<?xml version="1.0" encoding="utf-8"?>
<!-- Generator: Adobe Illustrator 24.0.2, SVG Export Plug-In . SVG Version: 6.00 Build 0)  -->
<svg version="1.1" id="Laag_1" xmlns="http://www.w3.org/2000/svg" xmlns:xlink="http://www.w3.org/1999/xlink" x="0px" y="0px"
	 viewBox="0 0 116.39 435.51" style="enable-background:new 0 0 116.39 435.51;" xml:space="preserve">
<style type="text/css">
	.st0{fill:#EFD4AC;}
</style>
<path class="st0" d="M115.88,204.67c-0.03-0.03-0.05-0.05-0.08-0.07c-1.76-1.52-3.51-3.05-5.02-4.83c-0.26-0.31-0.58-0.59-0.88-0.86
	c-1.51-1.34-3.08-2.62-4.54-4.03c-1.17-1.13-2.51-1.56-4.08-1.46c-0.94,0.06-1.87,0.15-2.79,0.27c-0.4,0.05-0.74,0.05-1.03-0.28
	c-0.51-5.34-2.28-10.42-3.69-15.64c0.41,0.22,0.45,0.53,0.57,0.79c0.18,0.42,0.43,0.81,0.81,1.06c1.31,0.82,2.66,1.6,4.19,1.83
	c2.48,0.39,4.93,0.32,7.26-0.78c0.33-0.16,0.69-0.28,1.05-0.4c0.34-0.11,0.63-0.29,0.61-0.69c-0.01-0.4-0.33-0.55-0.67-0.66
	c-0.14-0.05-0.3-0.06-0.44-0.1c-1.1-0.24-2.14-0.64-3.12-1.23c-0.54-0.34-1.1-0.63-1.66-0.95c-1.05-0.59-2.17-0.98-3.4-1.09
	c-1.47-0.13-2.92-0.12-4.29,0.55c-0.52,0.26-0.97,0.16-1.46-0.16c-0.34-0.23-0.5-0.55-0.65-0.88c-1.82-3.92-3.93-7.69-6.35-11.25
	c-2.11-3.1-4.11-6.27-6.38-9.25c-0.29-0.39-0.59-0.77-0.89-1.14c-0.65-0.82-1.22-1.71-1.8-2.58c-0.14-0.21-0.35-0.41-0.28-0.8
	c0.68,0.03,1.38,0.09,2.05,0.26c0.96,0.25,1.5,0.88,1.61,1.9c0.06,0.53,0.2,1.04,0.43,1.49c0.14,0.27,0.31,0.52,0.51,0.76
	c1.03,1.15,2.15,2.22,3.6,2.82c1.38,0.59,2.81,1,4.3,1.24c2.23,0.38,4.46,0.47,6.71,0.2c1.31-0.15,2.6-0.32,3.87-0.68
	c0.25-0.07,0.5-0.14,0.75-0.24c0.8-0.34,0.87-0.92,0.19-1.41c-0.28-0.2-0.59-0.34-0.88-0.5c-2.79-1.44-5.52-3.01-8.23-4.6
	c-1.26-0.75-2.55-1.42-3.85-2.1c-1.41-0.73-2.87-1-4.44-0.94c-1.34,0.05-2.63,0.2-3.63,1.28c-1.14-0.4-2.3-0.46-3.43-0.65
	c-0.46-0.08-0.72-0.32-0.96-0.68c-0.48-0.77-0.95-1.55-1.4-2.33c1.06-0.03,2.1-0.24,3.12-0.72c0.24-0.12,0.5-0.2,0.77-0.29
	c0.25-0.08,0.46-0.21,0.45-0.5c-0.01-0.29-0.24-0.4-0.49-0.48c-0.1-0.03-0.22-0.05-0.32-0.07c-0.8-0.18-1.56-0.47-2.27-0.9
	c-0.39-0.25-0.8-0.46-1.21-0.69c-0.73-0.41-1.5-0.68-2.34-0.77c-0.08-0.19-0.18-0.37-0.25-0.56c-1.62-3.88-3.25-7.76-4.87-11.65
	c0.97,0.06,1.93,0.04,2.91-0.07c0.95-0.11,1.89-0.24,2.81-0.5c0.18-0.05,0.37-0.1,0.54-0.18c0.58-0.25,0.64-0.67,0.14-1.03
	c-0.2-0.14-0.43-0.25-0.64-0.37c-2.03-1.05-4.02-2.19-5.98-3.35c-0.59-0.35-1.19-0.68-1.8-1c-1-4.37-0.5-8.69,0.55-13.01
	c0.43-1.79,1-3.11,1.41-4.15c1.54-3.85,3.27-6.54,4.1-7.83c1.07-1.65,2.01-2.85,2.28-3.19c0.52-0.67,0.46-0.55,1.39-1.68
	c0.11-0.13,0.22-0.27,0.33-0.4c0.65,1.05,1.28,2.12,1.92,3.17c0.16,0.25,0.32,0.5,0.5,0.75c0.17,0.22,0.39,0.38,0.68,0.27
	c0.23-0.09,0.33-0.31,0.34-0.54c0.07-1.5,0.72-2.82,1.24-4.18c0.04-0.11,0.07-0.23,0.11-0.34c0.01,0.08,0.02,0.15,0.03,0.23
	c0.25,2.3,0.9,4.46,2.1,6.47c0.93,1.55,2.13,2.88,3.24,4.3c1.02,1.32,2.2,2.45,3.5,3.48c1.44,1.14,2.96,2.18,4.47,3.21
	c0.96,0.65,1.92,1.32,3.05,1.68c0.43,0.14,0.89,0.28,1.25-0.13c0.34-0.38,0.08-0.78-0.06-1.15c-0.4-1.01-0.78-2.03-1.04-3.09
	c-0.41-1.67-0.72-3.36-0.9-5.07c-0.26-2.48-0.96-4.87-1.75-7.19c-1.1-3.23-3.05-5.9-5.83-7.95c-1.02-0.76-2.1-1.26-3.41-1.26
	c-0.41,0-0.87,0.02-1.35-0.31c0.95-0.71,1.93-1.15,2.91-1.59c2.2-0.96,4.41-1.88,6.54-2.98c0.53-0.28,1.09-0.52,1.67-0.67
	c3.15-0.84,5.85-2.69,8.83-3.88c0.22-0.09,0.36-0.28,0.32-0.53c-0.05-0.3-0.26-0.43-0.55-0.47c-0.32-0.03-0.6,0.06-0.87,0.18
	c-0.41,0.19-0.81,0.4-1.2,0.61c-2.24,1.23-4.53,2.33-6.98,3.08c-0.68,0.21-1.32,0.52-1.96,0.82c-0.98,0.45-1.96,0.94-2.94,1.4
	c-1.73,0.82-3.53,1.48-5.22,2.38c-0.22,0.12-0.41,0.33-0.72,0.23c-0.02-0.11-0.05-0.22-0.05-0.32c-0.03-1.83-0.92-3.2-2.17-4.31
	c-0.45-3.26-1.69-6.19-3.54-8.9c-0.9-1.32-2.07-2.35-3.45-3.16c-0.87-0.51-1.77-0.98-2.63-1.5c-1.79-1.09-3.69-1.14-5.63-0.57
	c-1.02,0.3-2.05,0.45-3.09,0.58c-1.07,0.14-1.91-0.23-2.66-1.08c-1.58-1.76-2.91-3.71-4.51-5.44c-1.19-1.29-1.92-2.87-2.51-4.49
	c-0.41-1.14-0.53-2.4-0.17-3.64c0.32-1.07,0.55-2.17,0.83-3.28c0.35,0.04,0.42,0.32,0.56,0.5c1.13,1.6,2.25,3.18,3.5,4.68
	c1.74,2.08,3.86,3.65,6.36,4.7c1.19,0.5,2.41,0.8,3.71,0.67c2-0.21,3.15-1.38,3.15-3.4c0.01-1.27-0.1-2.55-0.55-3.76
	c-0.11-0.28-0.19-0.57-0.26-0.8c0.08-0.42,0.41-0.59,0.62-0.85c1.19-1.37,1.65-2.95,1.6-4.77c-0.18-5.72-4.88-9.62-8.7-10.74
	c-0.62-0.18-1.25-0.26-1.89-0.2c-0.98,0.1-1.5,0.62-1.55,1.6c-0.04,0.69,0.14,1.34,0.6,1.88c0.31,0.35,0.64,0.43,0.87,0.21
	c0.28-0.26,0.19-0.54-0.01-0.8c-0.3-0.37-0.4-0.79-0.39-1.26c0.01-0.3,0.16-0.49,0.45-0.55c0.57-0.13,1.13-0.05,1.67,0.12
	c1.83,0.56,3.42,1.55,4.75,2.89c2.11,2.12,3.26,4.63,3.13,7.67c-0.06,1.38-0.6,2.51-1.56,3.48c-0.41-0.11-0.47-0.44-0.6-0.68
	c-1.03-1.78-2.42-3.24-4-4.51c-0.55-0.45-1.16-0.82-1.82-1.1c-0.52-0.23-1.07-0.33-1.64-0.31c-0.87,0.05-1.4,0.54-1.49,1.4
	c-0.07,0.77,0.05,1.5,0.49,2.14c1.23,1.84,2.77,3.36,4.74,4.38c1.19,0.61,1.67,0.67,3.6,0.57c0.27,0.12,0.32,0.39,0.41,0.63
	c0.37,1.15,0.5,2.34,0.44,3.55c-0.06,1.28-0.75,1.96-2.04,2.13c-1.03,0.13-2.01-0.07-2.96-0.45c-2.05-0.8-3.88-1.95-5.4-3.55
	c-2-2.11-3.61-4.5-5.2-6.91c-0.23-0.35-0.28-0.73-0.27-1.16c0.14-4.2-0.44-8.29-1.86-12.26c-0.2-0.57-0.41-1.13-0.61-1.69
	c-0.98-2.85-2.37-5.48-4.07-7.98c-2.08-3.07-4.48-5.9-6.83-8.77c-0.23-0.28-0.56-0.5-0.65-0.88c0.17-0.25,0.41-0.15,0.62-0.17
	c1.45-0.13,2.92-0.14,4.35-0.49c0.5-0.12,1.03-0.23,1.5-0.44c1.41-0.61,2.86-1.11,4.23-1.81c1.57-0.81,3.24-1.39,4.91-1.94
	c1.35-0.44,2.69-0.92,4.04-1.38c0.1-0.04,0.21-0.08,0.31-0.14c0.31-0.21,0.29-0.66-0.05-0.83c-0.16-0.09-0.34-0.14-0.52-0.17
	c-1.09-0.18-2.07-0.62-3.06-1.09c-1.39-0.66-2.78-1.29-4.19-1.9c-3.11-1.35-6.35-1.58-9.7-1.21c-1.94,0.21-3.65,0.92-5.15,2.06
	c-1.54,1.18-2.72,2.69-2.76,4.79c0,0.11-0.03,0.22-0.05,0.32c-0.31,0.11-0.5-0.11-0.72-0.23c-1.69-0.9-3.49-1.56-5.22-2.38
	c-0.97-0.46-1.96-0.95-2.94-1.4c-0.65-0.3-1.29-0.61-1.96-0.82C20.53,3.13,18.24,2.02,16,0.8c-0.39-0.22-0.79-0.42-1.2-0.61
	c-0.27-0.12-0.56-0.21-0.87-0.18c-0.29,0.04-0.5,0.17-0.55,0.47c-0.05,0.25,0.1,0.44,0.32,0.53c2.98,1.2,5.69,3.05,8.83,3.88
	c0.58,0.14,1.14,0.39,1.67,0.67c2.14,1.1,4.34,2.02,6.54,2.98c0.98,0.43,1.96,0.87,2.91,1.59c-0.48,0.32-0.94,0.31-1.35,0.31
	c-1.31,0-2.39,0.5-3.41,1.26c-2.78,2.05-4.73,4.72-5.83,7.95c-0.79,2.33-1.49,4.71-1.75,7.19c-0.18,1.71-0.49,3.41-0.9,5.07
	c-0.26,1.06-0.64,2.08-1.04,3.09c-0.14,0.37-0.41,0.77-0.06,1.15c0.36,0.41,0.82,0.26,1.25,0.13c1.13-0.36,2.09-1.03,3.05-1.68
	c1.51-1.03,3.03-2.07,4.47-3.21c1.3-1.03,2.48-2.16,3.5-3.48c1.11-1.41,2.31-2.75,3.24-4.3c1.2-2.01,1.85-4.17,2.1-6.47
	c0.12-1,0.26-2,0.11-3.02c-0.07-0.52-0.18-1.03-0.34-1.5c0.3-0.23,0.45,0,0.6,0.12c0.54,0.41,1.02,0.88,1.45,1.41
	c1.12,1.35,2.23,2.69,3.33,4.05c0.93,1.13,0.87,1.01,1.39,1.68c0.27,0.34,1.21,1.54,2.28,3.19c0.83,1.29,2.56,3.98,4.1,7.83
	c0.41,1.04,0.97,2.35,1.41,4.15c1.14,4.71,1.66,9.44,0.25,14.21c-0.5,1.72-0.96,3.46-1.66,5.12c-1.65,3.95-3.3,7.89-4.95,11.82
	c-0.88,2.09-1.98,4.07-3.15,6.01c-0.02,0-0.04,0.01-0.06,0.01c-0.13,0.02-0.26,0.06-0.38,0.12c-0.25,0.12-0.26,0.45-0.04,0.6
	c0.01,0,0.01,0.01,0.02,0.01c-0.11,0.18-0.22,0.37-0.34,0.55c-0.23,0.37-0.5,0.6-0.96,0.68c-1.14,0.19-2.3,0.25-3.43,0.65
	c-1-1.08-2.29-1.23-3.63-1.28c-1.57-0.06-3.04,0.21-4.44,0.94c-1.3,0.68-2.59,1.35-3.85,2.1c-2.7,1.6-5.43,3.16-8.23,4.6
	c-0.3,0.16-0.6,0.31-0.88,0.5c-0.68,0.5-0.61,1.07,0.19,1.41c0.24,0.11,0.5,0.17,0.75,0.24c1.26,0.36,2.56,0.53,3.87,0.68
	c2.25,0.27,4.48,0.18,6.71-0.2c1.49-0.24,2.92-0.66,4.3-1.24c1.45-0.6,2.58-1.67,3.6-2.82c0.21-0.23,0.38-0.49,0.51-0.76
	c0.23-0.45,0.37-0.96,0.43-1.49c0.12-1.02,0.66-1.65,1.61-1.9c0.68-0.17,1.37-0.23,2.05-0.26c0.07,0.4-0.14,0.59-0.28,0.8
	c-0.59,0.87-1.15,1.76-1.8,2.58c-0.31,0.38-0.6,0.76-0.89,1.14c-2.27,2.98-4.27,6.15-6.38,9.25c-2.42,3.56-4.53,7.33-6.35,11.25
	c-0.15,0.33-0.31,0.65-0.65,0.88c-0.49,0.32-0.94,0.42-1.46,0.16c-1.37-0.67-2.82-0.68-4.29-0.55c-1.23,0.11-2.34,0.5-3.4,1.09
	c-0.56,0.32-1.12,0.6-1.66,0.95c-0.97,0.59-2.02,0.99-3.12,1.23c-0.14,0.04-0.3,0.05-0.44,0.1c-0.33,0.11-0.66,0.26-0.67,0.66
	c-0.02,0.41,0.27,0.59,0.61,0.69c0.36,0.12,0.72,0.23,1.05,0.4c2.33,1.1,4.79,1.17,7.26,0.78c1.53-0.23,2.88-1.01,4.19-1.83
	c0.38-0.25,0.63-0.64,0.81-1.06c0.12-0.26,0.16-0.58,0.57-0.79c-1.41,5.23-3.18,10.3-3.69,15.64c-0.29,0.33-0.63,0.32-1.03,0.28
	c-0.93-0.12-1.86-0.21-2.79-0.27c-1.57-0.1-2.91,0.33-4.08,1.46c-1.46,1.41-3.03,2.69-4.54,4.03c-0.31,0.27-0.62,0.55-0.88,0.86
	c-1.51,1.78-3.26,3.31-5.02,4.83c-0.03,0.03-0.05,0.05-0.08,0.07c-0.29,0.24-0.67,0.46-0.47,0.91c0.18,0.41,0.61,0.36,0.98,0.37
	c0.11,0,0.23,0,0.33-0.02c2.39-0.23,4.78-0.46,7.16-0.69c0.15-0.02,0.31-0.03,0.45-0.07c2.73-0.85,5.41-1.81,7.17-4.29
	c1.08-1.53,2.09-3.11,2.49-4.98c0.01-0.07,0.07-0.13,0.14-0.23c0.23,0.14,0.18,0.38,0.17,0.56c-0.14,3.13,0.28,6.21,0.6,9.3
	c0.26,2.56,1.03,4.98,2,7.34c1.04,2.5,2.4,4.82,3.86,7.1c0.16,0.25,0.32,0.5,0.47,0.77c0.04,0.05,0.03,0.14,0.05,0.22
	c-0.14,0.24-0.39,0.2-0.59,0.22c-0.88,0.05-1.56,0.49-2.12,1.14c-0.46,0.54-0.86,1.14-1.12,1.8c-0.27,0.69-0.56,1.39-0.77,2.11
	c-0.69,2.33-1.82,4.42-3.25,6.37c-0.11,0.15-0.23,0.3-0.32,0.46c-0.16,0.27-0.23,0.56,0.04,0.81c0.21,0.2,0.5,0.14,0.78-0.15
	c0.15-0.16,0.29-0.34,0.42-0.52c0.5-0.68,1.14-1.21,1.92-1.5c2.08-0.78,3.58-2.28,4.88-4c0.59-0.78,0.77-1.7,0.83-2.65
	c0.04-0.59,0.03-1.2,0.04-1.79c0-0.25-0.05-0.52,0.06-0.73c0.07-0.04,0.1-0.06,0.14-0.06s0.07,0.02,0.1,0.04
	c0.06,0.05,0.13,0.1,0.16,0.15c2.68,4.04,5.56,7.92,8.58,11.67c0.04,0.82,0.11,1.63,0.25,2.45c0.25,1.55,0.51,3.1,1.09,4.58
	c0.21,0.55,0.44,1.1,0.65,1.66c-0.55,0.32-1.09,0.68-1.63,1.03c-0.66,0.44-1.24,0.97-1.67,1.65c-2.29,3.65-4.11,7.48-4.39,11.89
	c-0.02,0.37-0.05,0.75-0.04,1.12c0.05,0.77,0.27,0.96,1.05,1.02c0.17,0.02,0.37-0.08,0.51,0.08c0.05,0.13,0.01,0.23-0.06,0.32
	c-1.47,1.88-1.9,4.13-2.13,6.42c-0.13,1.19-0.13,2.39-0.09,3.59c0.03,1.01-0.08,2.03-0.05,3.04c0.05,2.66,0.17,5.32,0.22,7.98
	c0.04,2.77,0.15,5.54-0.02,8.31c-0.02,0.26-0.05,0.53-0.02,0.78c0.02,0.16,0.07,0.28,0.14,0.38c-0.19,0.11-0.38,0.24-0.56,0.39
	c-1.3,1.08-2.25,2.44-3.03,3.92c-0.11,0.22-0.2,0.45-0.28,0.68c-0.28,0.77-0.55,1.53-0.82,2.31c-0.07,0.2-0.14,0.42-0.15,0.63
	c-0.01,0.4,0.3,0.61,0.66,0.45c0.27-0.13,0.52-0.29,0.76-0.47c1.44-1.04,2.82-2.14,4.33-3.09c1.42-0.9,2.21-2.23,1.99-4.01
	c-0.03-0.18-0.04-0.38,0.12-0.62c0.25-0.05,0.45-0.36,0.78-0.39c0.09,0.18,0.01,0.3-0.03,0.43c-0.35,1.4-0.63,2.82-0.85,4.25
	c-0.63,4.15-1.11,8.32-0.97,12.53c0.08,2.54,0.22,5.06,0.84,7.54c0.58,2.35,1.32,4.66,2.15,6.94c0.08,0.23,0.16,0.46,0.24,0.69
	c0.16,0.49,0.03,0.9-0.34,1.26c-0.26,0.25-0.53,0.45-0.86,0.62c-0.64,0.31-1.05,0.84-1.26,1.53c-0.16,0.52-0.24,1.06-0.19,1.61
	c0.1,1.06,0.28,2.1,0.71,3.09c0.2,0.45,0.33,0.92,0.49,1.39c0.1,0.28,0.21,0.56,0.33,0.83c0.09,0.18,0.24,0.31,0.45,0.3
	c0.25-0.01,0.39-0.18,0.46-0.41c0.03-0.1,0.05-0.22,0.07-0.32c0.31-1.3,0.69-2.58,1.04-3.86c0.38-1.44,0.35-2.86-0.47-4.18
	c-0.03-0.05-0.07-0.09-0.09-0.14c-0.06-0.2,0.05-0.3,0.22-0.37c0.24,0.2,0.32,0.5,0.46,0.76c1.88,3.6,3.85,7.14,6.38,10.35
	c1.16,1.47,2.18,3.06,3.52,4.4s2.55,2.79,3.71,4.27c-0.41,0.9-0.79,1.82-1.13,2.76c-0.54-0.7-1.09-1.41-1.65-2.1
	c-0.33-0.41-0.75-0.71-1.19-0.98c-1.16-0.73-3.07-0.43-4.07,0.62c-0.18,0.2-0.35,0.41-0.43,0.68c-0.08,0.28,0.15,0.49,0.26,0.74
	c-0.37,0.05-0.7,0.08-1.02,0.14c-0.98,0.22-1.99,0.39-2.84,0.96c-2.32,1.55-3.76,3.74-4.44,6.43c-0.04,0.16-0.05,0.33-0.04,0.49
	c0.03,0.5,0.24,0.68,0.74,0.56c0.53-0.13,1.07-0.21,1.61-0.24c0.12-0.01,0.28-0.05,0.35,0.11c-0.02,0.05-0.02,0.11-0.05,0.15
	c-1.23,1.34-1.97,2.92-2.33,4.69c-0.17,0.8-0.33,1.6-0.36,2.42c-0.02,0.49-0.03,0.99-0.12,1.47c-0.29,1.39-0.35,2.81-0.54,4.21
	c-0.03,0.18-0.02,0.37,0.02,0.55c-1.28-0.08-2.54,0.33-3.77,1.04c-1.32,0.78-2.58,1.67-3.77,2.64c-1.22,1-2.42,2.03-3.88,2.68
	c-0.14,0.05-0.26,0.14-0.38,0.23c-0.41,0.35-0.38,0.8,0.07,1.13c0.29,0.21,0.61,0.27,0.96,0.31c0.52,0.05,1.04,0.15,1.53,0.34
	c0.23,0.09,0.5,0.17,0.76,0.17c2.51,0.04,5.04,0.03,7.44-0.85c1.95-0.71,3.42-1.99,4.08-4.04c0.14-0.42,0.34-0.85,0.41-1.28
	c0.09-0.68,0.49-0.85,1.07-0.81c0.16,0.29-0.03,0.51-0.11,0.75c-1.99,5.59-2.9,11.38-3.18,17.28c-0.2,4.23,1.48,8.07,1.65,8.53
	c0.17,0.5,0.32,0.9,0.44,1.17c0.19,0.48,0.5,1.23,0.97,2.12c0.68,1.33,1.21,2.02,2.14,3.54c0.39,0.63,0.96,1.57,1.6,2.75
	c-0.17,0.33-0.34,0.69-0.55,1.1c-0.75,0.02-1.4,0.41-2.05,0.76c-2.17,1.14-3.9,2.76-5.27,4.79c-0.55,0.81-0.9,1.72-1.2,2.65
	c-0.56,1.71-0.87,3.49-1.11,5.27c-0.63,4.78-2.15,9.25-4.63,13.38c-0.27,0.45-0.54,0.9-0.77,1.37c-0.24,0.51,0,0.89,0.58,0.91
	c0.49,0.01,0.97-0.08,1.42-0.27c1.05-0.43,2.12-0.75,3.22-1c0.88-0.2,1.72-0.5,2.54-0.89c0.64-0.31,1.29-0.61,1.96-0.81
	c1.95-0.58,3.61-1.61,5.15-2.89c0.75-0.62,1.53-1.21,2.3-1.8c0.48-0.37,0.91-0.78,1.26-1.28c1.17-1.69,2.01-3.48,2.06-5.6
	c0.05-1.39,0.16-2.77-0.04-4.15c-0.33-2.33-1.1-4.51-2.39-6.49c-0.14-0.22-0.29-0.44-0.38-0.68c-0.28-0.68-0.53-1.39-0.66-2.15
	c0.77,1.08,1.51,2.17,2.3,3.24c0.82,1.12,1.69,2.19,2.51,3.31c0.8,1.09,1.46,2.27,2.07,3.47c0.62,1.2,1.28,2.37,1.97,3.4
	c0.03,0.38-0.14,0.54-0.27,0.72c-0.87,1.28-1.32,2.69-1.3,4.23c0.02,1.62-0.27,3.21-0.33,4.82c-0.01,0.07-0.03,0.14-0.04,0.22
	c-0.06,0.39-0.08,0.77,0.32,0.98c0.13,0.07,0.25,0.08,0.36,0.06c-1.78,1.87-2.98,4.14-3.65,6.76c-0.05,0.22-0.06,0.45-0.05,0.68
	c0.04,0.69,0.33,0.94,1.02,0.77c0.73-0.18,1.47-0.29,2.22-0.33c0.17-0.01,0.38-0.06,0.49,0.15c-0.03,0.07-0.03,0.15-0.06,0.21
	c-1.69,1.84-2.7,4.02-3.21,6.45c-0.23,1.1-0.45,2.2-0.5,3.33c-0.03,0.68-0.05,1.36-0.17,2.02c-0.4,1.91-0.48,3.87-0.75,5.79
	c-0.04,0.25-0.03,0.52,0.03,0.78c0.09,0.44,0.41,0.6,0.84,0.46c0.14-0.05,0.27-0.13,0.41-0.19c1.65-0.72,3.29-1.44,4.95-2.14
	c2.61-1.12,5.24-2.21,7.87-3.31c1.13-0.48,2.1-1.15,2.78-2.2c0.14-0.21,0.26-0.46,0.59-0.53c0.27,0.8,0.51,1.61,0.81,2.42
	c0.2,0.52,0.43,1.04,0.71,1.51c0.31,0.52,0.75,0.58,1.24,0.24c0.15-0.11,0.28-0.25,0.41-0.39c0.66-0.66,1.32-1.32,1.98-1.98
	c1.69-1.69,2.9-3.71,4.03-5.79c0.83-1.53,1.24-3.2,1.49-4.92c0.14-0.96,0.33-1.92,0.54-2.87c0.24-1.08,0.95-1.82,1.88-2.43
	c0.55,0.85,0.9,1.71,1.31,2.55c1.53,3.15,2.82,6.37,3.74,9.74c0.22,0.8,0.19,1.56-0.08,2.32c-0.26,0.71-0.59,0.88-1.3,0.57
	c-0.63-0.27-1.15-0.17-1.69,0.16c-0.61,0.37-1.23,0.71-1.84,1.08c-1.49,0.9-2.39,2.26-2.94,3.86c-0.67,1.94-0.76,3.95-0.62,5.98
	c0.1,1.53,0.7,2.9,1.13,4.33c0.08,0.27,0.26,0.54,0.46,0.76c0.39,0.44,0.86,0.42,1.23-0.05c0.19-0.23,0.32-0.5,0.46-0.77
	c1.4-2.57,2.69-5.19,4.24-7.68c0.29-0.47,0.51-0.99,0.77-1.5c0.27-0.54,0.41-1.12,0.48-1.72c0.14-1.17-0.12-2.3-0.35-3.44
	c0.15-0.14,0.28-0.27,0.42-0.39c0.09-0.06,0.19-0.11,0.35-0.19c0.06,0.23,0.14,0.44,0.18,0.65c0.53,2.87,0.87,5.78,1.04,8.7
	c0.11,1.76,0.06,3.55-0.42,5.24c-1.31,4.53-3.24,8.77-6.35,12.43c-0.74-0.05-1.43-0.24-2.16-0.67c-0.63-0.36-1.3-0.55-2.01-0.63
	c-1.81-0.21-3.6-0.08-5.34,0.41c-0.98,0.27-1.93,0.21-2.85-0.23c-0.23-0.11-0.49-0.21-0.71-0.32c-0.81-0.44-1.65-0.46-2.51-0.17
	c-0.96,0.32-1.88,0.72-2.74,1.28c-1.13,0.74-2.24,1.49-3.38,2.22c-3.51,2.26-5.48,5.55-6.45,9.52c-0.12,0.47-0.2,0.96-0.14,1.45
	c0.07,0.49,0.46,0.7,0.91,0.5c0.2-0.09,0.39-0.23,0.57-0.36c0.45-0.33,0.91-0.66,1.33-1.03c0.73-0.65,1.58-0.97,2.53-1.09
	c0.97-0.13,1.93-0.3,2.89-0.43c1.25-0.18,2.36-0.7,3.41-1.39c0.71-0.48,1.4-1.01,2.03-1.6c0.93-0.88,1.92-1.69,3.11-2.19
	c0.93-0.39,1.9-0.68,2.84-1.05c0.54-0.22,1.08-0.32,1.65-0.22c1.57,0.31,3.05,0.07,4.47-0.66c0.17-0.09,0.39-0.28,0.6,0.02
	c-0.8,1.39-1.8,2.65-2.8,3.9c-1.48,1.86-2.73,3.85-3.79,5.96c-0.41,0.8-0.85,1.59-1.37,2.32c-0.19,0.27-0.33,0.59-0.7,0.72
	c-0.35-0.05-0.72-0.11-1.09-0.13c-0.74-0.03-1.43,0.12-1.99,0.62c-0.5,0.44-1.01,0.9-1.45,1.4c-0.8,0.9-1.27,1.94-1.28,3.16
	c-0.01,1.11,0.23,2.16,0.68,3.15c0.27,0.59,0.87,0.59,1.23,0.05c0.14-0.23,0.23-0.48,0.34-0.71c0.29-0.57,0.54-1.15,0.88-1.69
	c0.32-0.5,0.65-1.04,1.23-1.51c0.31,1.71,0.88,3.16,1.61,4.57c0.42,0.81,1,1.49,1.74,2.03c0.3,0.22,0.59,0.5,1.01,0.29
	c0.41-0.21,0.39-0.59,0.32-0.98c-0.01-0.07-0.03-0.14-0.04-0.22c-0.06-1.61-0.35-3.2-0.33-4.82c0.03-1.53-0.43-2.95-1.3-4.23
	c-0.13-0.18-0.3-0.34-0.27-0.72c0.69-1.03,1.35-2.2,1.97-3.4c0.61-1.2,1.27-2.38,2.07-3.47c0.82-1.12,1.69-2.19,2.51-3.31
	c0.78-1.07,1.53-2.16,2.3-3.24c-0.13,0.77-0.38,1.47-0.66,2.15c-0.09,0.23-0.24,0.46-0.38,0.68c-1.29,1.98-2.05,4.15-2.39,6.49
	c-0.2,1.38-0.08,2.76-0.04,4.15c0.05,2.12,0.89,3.91,2.06,5.6c0.35,0.5,0.78,0.91,1.26,1.28c0.77,0.59,1.55,1.18,2.3,1.8
	c1.54,1.28,3.21,2.32,5.15,2.89c0.68,0.2,1.32,0.5,1.96,0.81c0.82,0.39,1.66,0.69,2.54,0.89c1.1,0.25,2.17,0.57,3.22,1
	c0.45,0.19,0.94,0.28,1.42,0.27c0.58-0.02,0.82-0.4,0.58-0.91c-0.23-0.47-0.5-0.92-0.77-1.37c-2.48-4.14-4-8.61-4.63-13.38
	c-0.24-1.78-0.55-3.56-1.11-5.27c-0.3-0.93-0.65-1.84-1.2-2.65c-1.37-2.03-3.1-3.64-5.27-4.79c-0.66-0.34-1.31-0.74-2.05-0.76
	c-0.21-0.41-0.38-0.77-0.55-1.1c0.65-1.18,1.22-2.12,1.6-2.75c0.94-1.52,1.46-2.21,2.14-3.54c0.47-0.88,0.78-1.64,0.97-2.12
	c0.12-0.27,0.27-0.68,0.44-1.17c0.17-0.46,1.85-4.31,1.65-8.53c-0.28-5.9-1.19-11.7-3.18-17.28c-0.08-0.23-0.27-0.46-0.11-0.75
	c0.59-0.04,0.98,0.13,1.07,0.81c0.06,0.43,0.27,0.86,0.41,1.28c0.67,2.05,2.14,3.33,4.08,4.04c2.41,0.87,4.93,0.88,7.44,0.85
	c0.25,0,0.52-0.08,0.76-0.17c0.5-0.19,1.01-0.3,1.53-0.34c0.34-0.04,0.67-0.1,0.96-0.31c0.45-0.32,0.48-0.78,0.07-1.13
	c-0.12-0.1-0.24-0.18-0.38-0.23c-1.46-0.65-2.66-1.68-3.88-2.68c-1.19-0.97-2.44-1.87-3.77-2.64c-1.96-1.14-3.98-1.51-6.08-0.33
	c-0.16,0.09-0.33,0.15-0.48,0.22c-0.43-0.13-0.83-0.22-1.22-0.35c-0.74-0.25-1.32-0.7-1.67-1.41c-0.22-0.43-0.35-0.77-0.37-0.82
	c-0.43-1.26-8.1-14.74-12.81-19.56c-0.19-0.19-1.01-1.02-2.07-2.21c-1.13-1.26-1.92-2.25-2.17-2.57c-0.53-0.66-0.98-1.27-1.36-1.81
	c0.42,0.15,0.85,0.27,1.3,0.33c0.96,0.14,1.92,0.31,2.89,0.43c0.96,0.12,1.8,0.44,2.53,1.09c0.42,0.37,0.88,0.69,1.33,1.03
	c0.18,0.14,0.37,0.27,0.57,0.36c0.45,0.2,0.84-0.02,0.91-0.5c0.06-0.49-0.02-0.98-0.14-1.45c-0.97-3.97-2.95-7.25-6.45-9.52
	c-1.14-0.73-2.25-1.48-3.38-2.22c-0.86-0.56-1.78-0.96-2.74-1.28c-0.86-0.29-1.69-0.27-2.51,0.17c-0.23,0.12-0.48,0.22-0.71,0.32
	c-0.26,0.12-0.52,0.21-0.78,0.27c-0.9-1.65-1.77-3.32-2.64-4.99c-0.12-0.23-0.3-0.44-0.16-0.73c1.35-0.07,1.6,0.24,2.12,1.23
	c0.71,1.35,1.77,2.32,3.33,2.61c0.29,0.06,0.58,0.14,0.87,0.19c0.32,0.06,0.63,0.1,0.95,0.14c0.7,0.43,1.44,0.79,2.25,1.03
	c0.49,0.14,0.96,0.37,1.43,0.59c0.6,0.28,1.21,0.5,1.85,0.65c0.8,0.18,1.58,0.41,2.34,0.73c0.33,0.14,0.68,0.2,1.04,0.2
	c0.42-0.01,0.6-0.29,0.42-0.66c-0.16-0.34-0.36-0.67-0.56-1c-1.8-3.01-2.91-6.26-3.37-9.73c-0.18-1.3-0.4-2.59-0.81-3.83
	c-0.22-0.68-0.47-1.34-0.87-1.93c-1-1.47-2.25-2.65-3.83-3.48c-0.48-0.25-0.95-0.54-1.49-0.55c-0.15-0.29-0.28-0.56-0.4-0.8
	c0.47-0.86,0.88-1.54,1.17-2c0.66-1.08,1.04-1.58,1.52-2.5c2.61,1.09,5.23,2.18,7.82,3.29c1.66,0.7,3.3,1.42,4.95,2.14
	c0.14,0.06,0.27,0.14,0.41,0.19c0.42,0.14,0.75-0.02,0.84-0.46c0.05-0.25,0.06-0.52,0.03-0.78c-0.27-1.93-0.35-3.88-0.75-5.79
	c-0.13-0.66-0.14-1.34-0.17-2.02c-0.05-1.13-0.26-2.23-0.5-3.33c-0.5-2.43-1.51-4.61-3.21-6.45c-0.04-0.05-0.04-0.14-0.06-0.21
	c0.11-0.22,0.32-0.16,0.49-0.15c0.75,0.05,1.49,0.15,2.22,0.33c0.68,0.17,0.98-0.07,1.02-0.77c0.01-0.23,0-0.46-0.05-0.68
	c-0.27-1.07-0.64-2.07-1.09-3.02c0.02-0.15-0.04-0.31-0.2-0.45c-0.01-0.01-0.02-0.01-0.03-0.02c-1.1-2.13-2.67-3.94-4.79-5.36
	c-1.17-0.78-2.56-1.03-3.91-1.32c-0.44-0.09-0.89-0.13-1.41-0.2c0.14-0.35,0.46-0.63,0.35-1.02c-0.11-0.38-0.34-0.67-0.59-0.94
	c-1.08-1.14-2.95-1.62-4.48-1.28c-0.15-0.17-0.32-0.33-0.51-0.47c-0.1-0.08-0.2-0.15-0.3-0.23c-0.58-0.96-1.21-1.98-1.87-3
	c0.4-0.43,0.79-0.87,1.21-1.29c1.84-1.84,3.24-4.02,4.84-6.05c3.49-4.41,6.19-9.28,8.78-14.23c0.19-0.36,0.31-0.77,0.63-1.05
	c0.24,0.1,0.39,0.24,0.31,0.51c-0.03,0.07-0.07,0.14-0.12,0.2c-0.55,0.88-0.83,1.79-0.93,2.72c-0.22,0.38-0.42,0.76-0.61,1.16
	c-0.47,1.01-0.68,2.06-0.68,3.15c-0.02,1.27,0.49,2,1.52,2.27c-0.24,0.67-0.47,1.33-0.73,1.99c-0.24,0.63-0.43,1.28-0.56,1.94
	c-0.61,3.33-0.4,6.59,0.86,9.72c0.68,1.7,1.62,3.29,3.1,4.48c0.35,0.28,0.7,0.56,0.93,0.96c0.11,0.22,0.28,0.37,0.54,0.31
	c0.24-0.06,0.33-0.28,0.37-0.51c0.05-0.38-0.05-0.78,0.23-1.27c0.33,0.77,0.64,1.41,1.04,1.99c0.48,0.71,0.96,1.43,1.4,2.17
	c1.04,1.78,2.42,3.22,4.15,4.35c2.13,1.41,4.34,2.67,6.34,4.25c0.43,0.34,0.93,0.62,1.41,0.91c0.49,0.29,0.92,0.08,0.98-0.47
	c0.04-0.25,0-0.52-0.02-0.78c-0.17-2.77-0.05-5.54-0.02-8.31c0.05-2.66,0.16-5.32,0.22-7.98c0.03-1.01-0.08-2.03-0.05-3.04
	c0.04-1.2,0.04-2.4-0.09-3.59c-0.23-2.29-0.66-4.53-2.13-6.42c-0.07-0.09-0.12-0.19-0.06-0.32c0.14-0.16,0.34-0.06,0.51-0.08
	c0.77-0.05,0.99-0.25,1.05-1.02c0.02-0.37-0.02-0.75-0.04-1.12c-0.28-4.41-2.1-8.24-4.39-11.89c-0.42-0.68-1.01-1.21-1.67-1.65
	c-1.41-0.93-2.8-1.89-4.51-2.01c-0.13-0.29-0.23-0.49-0.31-0.69c-0.08-0.21-0.23-0.4-0.13-0.73c5.02-5.61,9.67-11.61,13.89-17.95
	c0.04-0.05,0.1-0.11,0.16-0.15c0.03-0.02,0.06-0.04,0.1-0.04s0.06,0.03,0.14,0.06c0.12,0.21,0.06,0.48,0.06,0.73
	c0.01,0.59,0,1.2,0.04,1.79c0.06,0.95,0.23,1.87,0.83,2.65c1.31,1.72,2.8,3.22,4.88,4c0.78,0.3,1.42,0.82,1.92,1.5
	c0.14,0.18,0.27,0.36,0.42,0.52c0.28,0.3,0.58,0.35,0.78,0.15c0.27-0.25,0.2-0.54,0.04-0.81c-0.1-0.16-0.22-0.31-0.32-0.46
	c-1.43-1.95-2.56-4.05-3.25-6.37c-0.22-0.72-0.5-1.41-0.78-2.11c-0.26-0.67-0.66-1.26-1.12-1.8c-0.56-0.66-1.23-1.09-2.12-1.14
	c-0.21-0.02-0.46,0.03-0.59-0.22c0.02-0.08,0.01-0.16,0.05-0.22c0.15-0.26,0.31-0.51,0.47-0.77c1.46-2.28,2.82-4.6,3.86-7.1
	c0.97-2.36,1.74-4.79,2-7.34c0.32-3.09,0.75-6.17,0.6-9.3c-0.01-0.18-0.06-0.41,0.17-0.56c0.07,0.11,0.14,0.16,0.14,0.23
	c0.4,1.87,1.41,3.45,2.49,4.98c1.77,2.48,4.44,3.44,7.17,4.29c0.14,0.05,0.3,0.05,0.45,0.07c2.38,0.23,4.77,0.47,7.16,0.69
	c0.11,0.02,0.23,0.02,0.33,0.02c0.37-0.01,0.8,0.04,0.98-0.37C116.55,205.13,116.17,204.91,115.88,204.67z M67.79,49.28
	c-0.68,0.22-1.36,0.1-2.03-0.18c-2.11-0.87-3.64-2.42-4.88-4.29c-0.33-0.5-0.47-1.09-0.19-1.68c0.45-0.27,0.88-0.18,1.32-0.05
	c0.5,0.16,0.96,0.41,1.38,0.73c1.76,1.3,3.24,2.86,4.29,4.79C67.78,48.8,67.95,48.98,67.79,49.28z M54.02,189.97
	c-0.26,0.6-0.56,1.19-1.12,1.57c-0.41,0.29-0.73,0.65-1.04,1.04c-0.31,0.41-0.63,0.81-0.94,1.22c0.05-0.5,0.09-1,0.09-1.51
	c0.91-0.83,1.79-1.69,2.6-2.64c0.07-0.08,0.14-0.18,0.27-0.16C54.1,189.61,54.1,189.78,54.02,189.97z M66.35,198.09
	c-0.14,0.11-0.26,0.27-0.36,0.42c-0.17,0.29-0.42,0.4-0.74,0.43c-1.11,0.11-1.98,0.69-2.81,1.33c-0.34-2.9-1.58-5.46-3.11-7.91
	c-0.31-0.49-0.73-0.88-1.21-1.2c-1.02-0.68-2.04-1.38-3.28-1.46c-0.09-0.21-0.17-0.35-0.22-0.5c-0.06-0.15-0.17-0.29-0.09-0.53
	c1.51-1.68,2.96-3.43,4.37-5.21c1.88,2.36,3.52,4.9,5.16,7.43c1.05,1.64,1.86,3.42,2.64,5.21
	C67.03,196.89,67.08,197.53,66.35,198.09z M55.86,185.99c-1.07,1.24-2.18,2.44-3.26,3.66c-0.28,0.32-0.58,0.64-0.87,0.94
	c-0.27,0.28-0.52,0.51-0.74,0.72c-0.04-0.9-0.14-1.81-0.31-2.72c-0.13-0.66-0.32-1.31-0.56-1.94c-0.26-0.66-0.49-1.32-0.73-1.99
	c1.04-0.27,1.54-1,1.52-2.27c-0.01-1.09-0.22-2.14-0.68-3.15c-0.62-1.33-1.43-2.55-2.32-3.71c-1.08-1.43-2.2-2.84-3.3-4.26
	c-0.41-0.54-0.87-1.04-1.42-1.43c-0.77-0.53-1.18-1.33-1.54-2.16c-0.05-0.13-0.08-0.25-0.06-0.36c0.04-0.07,0.09-0.14,0.13-0.22
	c0.03-0.03,0.06-0.06,0.11-0.09c0.18-0.02,0.28,0.12,0.37,0.23c2.28,2.66,4.97,4.88,7.61,7.14c1.47,1.26,2.86,2.6,4.25,3.96
	c-0.2,0.25-0.4,0.5-0.59,0.76c-0.12,0.16-0.15,0.37-0.04,0.54c0.12,0.18,0.32,0.2,0.52,0.14c0.31-0.09,0.63-0.18,0.94-0.28
	c0.09-0.03,0.18-0.05,0.27-0.08c0.21,0.2,0.41,0.41,0.62,0.61c0.93,0.91,1.79,1.87,2.61,2.86
	C57.57,183.93,56.74,184.98,55.86,185.99z M58.86,181.82c-0.14-0.19-0.25-0.32-0.34-0.44c-0.51-0.63-0.9-1.03-2.18-2.32
	c0.75-0.2,1.51-0.38,2.29-0.48c1.08-0.15,2.13-0.47,3.06-1.08c0.18-0.12,0.38-0.22,0.56-0.33c0.19-0.12,0.37-0.26,0.61-0.41
	c-0.05,0.29-0.18,0.44-0.29,0.58c-1.19,1.57-2.35,3.15-3.54,4.71C58.97,181.97,58.92,181.9,58.86,181.82z M60.38,174.67
	c-0.98,0.01-1.89,0.22-2.75,0.66c-1.08,0.56-1.99,1.33-2.82,2.18c-0.22-0.22-0.41-0.41-0.53-0.55c-0.18-0.16-0.49-0.45-0.87-0.81
	c-2.32-2.13-3.82-3.32-6.6-5.77c-0.39-0.34-1.1-0.97-1.99-1.88c-0.41-0.41-0.81-0.85-1.2-1.29c-0.38-0.43-0.77-0.86-1.16-1.29
	c0-0.01,0.01-0.01,0.01-0.02c1.59-2.43,3.78-4.34,5.77-6.43c0.02-0.03,0.05-0.05,0.08-0.07c1.6-1.23,3.18-2.5,4.79-3.71
	c2.9-2.2,4.53-5.15,5.03-8.71c0.36-2.57,0.56-5.15-0.41-7.64c0.21-0.3,0.34-0.58,0.56-0.77c0.93-0.84,1.61-1.87,2.33-2.87
	c0.22-0.31,0.48-0.59,0.74-0.85c0.29-0.3,0.57-0.62,0.83-0.94c0.45,0.71,0.89,1.43,1.31,2.17c0.39,0.69,0.77,1.38,1.17,2.06
	c0.64,1.08,1.2,2.2,1.7,3.35c0.53,1.21,0.54,1.25-0.63,1.77c-1.11,0.49-1.95,1.28-2.77,2.13c-0.64,0.66-1.04,1.46-1.11,2.4
	c-0.05,0.6-0.12,1.19-0.15,1.79c-0.05,0.74,0.04,1.47,0.24,2.18c0.26,0.92,0.63,1.8,0.81,2.75c0.07,0.39,0.28,0.58,0.5,0.54
	c0.3-0.04,0.36-0.29,0.43-0.53c0.24-0.81,0.51-1.61,0.84-2.39c0.68-1.6,1.34-3.22,2.04-4.81c0.33-0.74,0.45-1.51,0.43-2.3
	c-0.01-0.41,0.01-0.82-0.1-1.22c-0.03-0.12-0.06-0.28,0.18-0.31c0.2,0.22,0.26,0.52,0.33,0.8c0.52,1.86,1.04,3.72,1.53,5.59
	c0.15,0.57,0.28,1.15,0.4,1.73c-0.85,0.77-1.49,1.69-1.77,2.81c-0.18,0.73-0.3,1.45-0.39,2.17c-0.86,0.32-1.67,0.78-2.45,1.27
	c-0.66,0.42-1.17,0.98-1.54,1.66c-0.22,0.41-0.41,0.83-0.6,1.25c-1.16,2.63-1.25,5.45-1.36,8.25c-0.01,0.13,0.01,0.28,0.05,0.4
	c0.09,0.27,0.4,0.35,0.58,0.14c0.12-0.14,0.22-0.31,0.29-0.48c0.35-0.72,0.82-1.34,1.38-1.91c0.62-0.62,1.16-1.3,1.71-1.98
	c0.62-0.76,1.23-1.53,1.89-2.25c0.2-0.21,0.36-0.44,0.54-0.67c0.22,0.7,0.5,1.4,0.86,2.08c0.12,0.23,0.26,0.46,0.38,0.7
	c-0.29,1.17-0.73,2.62-1.47,4.19c-0.39,0.81-0.3,0.51-1.16,2.19c-0.51,1-1.21,1.88-1.77,2.84c-0.06,0.1-0.18,0.3-0.42,0.44
	c-0.2,0.12-0.45,0.16-0.73,0.14c-0.16-0.01-0.33-0.03-0.49-0.05C62.06,174.72,61.22,174.67,60.38,174.67z M49.07,111.88
	c0.85,2.1,1.7,4.21,2.71,6.24c-1.53,1.25-2.87,2.67-3.87,4.4c-0.14,0.24-0.2,0.58-0.6,0.68c-0.96-0.96-1.5-2.1-1.56-3.48
	c-0.14-3.04,1.02-5.55,3.13-7.67C48.93,111.99,49,111.94,49.07,111.88z M54.32,121.05c-0.5-0.81-0.98-1.63-1.43-2.46
	c0.03-0.02,0.06-0.05,0.1-0.08c0.42-0.32,0.88-0.57,1.38-0.73c0.44-0.14,0.87-0.23,1.32,0.05c0.28,0.59,0.14,1.17-0.19,1.68
	C55.14,120.05,54.75,120.57,54.32,121.05z M53.37,122.03c0.05-0.18,0.13-0.36,0.27-0.54c0.04,0.06,0.07,0.11,0.11,0.16
	C53.63,121.79,53.5,121.91,53.37,122.03z M52.78,120.02c0.1,0.17,0.14,0.35,0.12,0.54c-0.08,0.77-0.32,1.5-0.53,2.26
	c-0.03,0.02-0.06,0.04-0.08,0.06c-0.72-0.03-1.24,0.32-1.73,0.72c-0.06,0.05-0.13,0.09-0.2,0.14c-0.09,0.07-0.16,0.15-0.24,0.22
	c-0.51,0.14-1.02,0.17-1.52,0c-0.16-0.3,0.01-0.48,0.11-0.67c0.9-1.66,2.13-3.04,3.58-4.22C52.44,119.4,52.61,119.72,52.78,120.02z
	 M47.63,125.72c0.08-0.24,0.14-0.51,0.41-0.63c0.46,0.02,0.83,0.04,1.16,0.04c-0.15,0.28-0.29,0.57-0.37,0.9
	c-0.44,1.8-0.5,3.57-0.04,5.29c-1.01-0.25-1.54-0.92-1.6-2.04C47.12,128.06,47.26,126.87,47.63,125.72z M54.46,124.96
	c-0.27-0.59-0.56-1.17-0.93-1.71c0.28-0.22,0.56-0.44,0.81-0.68c0.82,1.35,1.71,2.65,2.68,3.9c0.21,0.28,0.43,0.56,0.64,0.84
	c-0.02,0.02-0.04,0.05-0.07,0.08c-0.77,0.82-1.63,1.51-2.55,2.11C55.28,127.98,55.14,126.46,54.46,124.96z M57.74,126.11
	c-0.21-0.28-0.43-0.56-0.65-0.83c-0.47-0.6-0.88-1.25-1.31-1.87c-0.1-0.15-0.26-0.29-0.2-0.58c0.5,0.02,1,0.07,1.49,0.19
	c0.69,0.18,1.09,0.64,1.17,1.38c0.05,0.39,0.14,0.75,0.31,1.08c0.08,0.16,0.19,0.31,0.31,0.45c-0.22,0.27-0.46,0.52-0.69,0.78
	C58.04,126.51,57.89,126.31,57.74,126.11z M63.2,121.99c0.05-0.02,0.1-0.04,0.16-0.05c0.01,0.04,0.02,0.09,0.03,0.13
	C63.33,122.04,63.26,122.02,63.2,121.99z M59.31,127.12c0.11-0.13,0.2-0.26,0.31-0.39c0.57,0.55,1.2,1.04,1.95,1.35
	c0.8,0.34,1.62,0.58,2.47,0.76c0,0.01,0,0.02-0.01,0.03c-0.47,1.28-1.04,2.54-1.85,3.66c-1.11-1.64-2.18-3.29-3.32-4.9
	C58.99,127.45,59.16,127.3,59.31,127.12z M73.02,146.18c0.14,0.23,0.2,0.48,0.17,0.75c-0.11,1.09-0.45,2.11-0.76,3.18
	c-1.01-0.08-1.73,0.4-2.41,0.95c-0.57-2.71-1.43-5.36-2.16-8.07c0.29,0.16,0.33,0.39,0.41,0.58c0.13,0.31,0.31,0.59,0.59,0.77
	c0.95,0.6,1.93,1.16,3.05,1.33c0.3,0.05,0.59,0.08,0.89,0.11C72.88,145.91,72.95,146.05,73.02,146.18z M65.52,129.24
	c0.32,0.76,0.63,1.52,0.96,2.28c1.4,3.26,2.64,6.59,4.1,9.83c-0.7,0.01-1.38,0.11-2.04,0.43c-0.38,0.19-0.71,0.12-1.06-0.12
	c-0.25-0.17-0.36-0.4-0.47-0.64c-1.25-2.69-2.69-5.28-4.33-7.73c0.61-0.83,1.14-1.72,1.57-2.68c0.24-0.54,0.51-1.06,0.78-1.58
	c0.14,0.02,0.29,0.04,0.43,0.06C65.48,129.14,65.5,129.19,65.52,129.24z M69.6,97.39c-1.7,2.5-3.09,5.13-4.07,7.98
	c-0.2,0.57-0.41,1.13-0.61,1.69c-1.41,3.97-2,8.06-1.86,12.26c0.01,0.43-0.04,0.81-0.27,1.16c-0.25,0.38-0.5,0.76-0.76,1.14
	c-0.53-0.1-1.07-0.14-1.62-0.12c-0.98,0.04-1.91,0.14-2.64,0.93c-0.83-0.29-1.67-0.33-2.5-0.47c-0.1-0.02-0.17-0.07-0.25-0.11
	c0.48-0.54,0.94-1.1,1.36-1.71c0.43-0.64,0.56-1.38,0.49-2.14c-0.09-0.86-0.62-1.35-1.49-1.4c-0.57-0.03-1.12,0.08-1.64,0.31
	c-0.47,0.2-0.91,0.46-1.33,0.75c-0.25-0.5-0.48-1-0.7-1.51c-0.67-1.6-1.34-3.21-2.02-4.82c1.15-0.97,2.46-1.71,3.94-2.16
	c0.54-0.17,1.1-0.24,1.67-0.12c0.29,0.06,0.44,0.25,0.45,0.55c0.01,0.47-0.09,0.89-0.39,1.26c-0.2,0.26-0.29,0.54-0.01,0.8
	c0.23,0.23,0.56,0.14,0.87-0.21c0.47-0.54,0.64-1.19,0.6-1.88c-0.05-0.97-0.57-1.5-1.55-1.6c-0.64-0.06-1.27,0.02-1.89,0.2
	c-1.34,0.39-2.78,1.13-4.1,2.16c-0.39-0.93-0.78-1.86-1.17-2.79c-0.5-1.21-0.84-2.47-1.21-3.72c-1.02-3.47-0.65-6.91,0.18-10.34
	c0.31-1.3,0.73-2.26,1.02-3.01c1.12-2.8,2.38-4.76,2.98-5.7c0.78-1.2,1.46-2.07,1.66-2.32c0.38-0.48,0.33-0.4,1.01-1.22
	c0.81-0.98,1.61-1.96,2.43-2.94c0.31-0.38,0.66-0.73,1.06-1.02c0.11-0.09,0.22-0.26,0.44-0.09c-0.12,0.35-0.2,0.71-0.25,1.09
	c-0.11,0.73-0.01,1.45,0.07,2.16c-0.11,0.03-0.23,0.05-0.33,0.11c-0.34,0.17-0.36,0.62-0.05,0.83c0.1,0.05,0.21,0.1,0.31,0.14
	c0.08,0.03,0.17,0.06,0.25,0.09c0.25,1.26,0.68,2.45,1.35,3.58c0.68,1.13,1.55,2.1,2.35,3.13c0.74,0.96,1.6,1.78,2.54,2.53
	c1.05,0.83,2.15,1.59,3.25,2.33c0.69,0.47,1.4,0.96,2.22,1.22c0.31,0.1,0.65,0.2,0.91-0.09c0.25-0.28,0.06-0.57-0.05-0.84
	c-0.29-0.73-0.56-1.47-0.75-2.25c-0.3-1.21-0.52-2.44-0.66-3.69c-0.06-0.58-0.16-1.15-0.28-1.71c0.33,0.13,0.66,0.27,0.99,0.4
	c1.57,1.57,3.14,3.13,4.36,5c0.06,0.09,0.11,0.18,0.17,0.27C72.52,93.4,70.99,95.34,69.6,97.39z M44.37,73.99
	c1.22,0.4,2.43,0.82,3.57,1.41c1,0.51,2.05,0.87,3.07,1.32c0.35,0.15,0.73,0.24,1.09,0.32c1.04,0.25,2.11,0.26,3.17,0.35
	c0.15,0.01,0.33-0.06,0.45,0.12c-0.07,0.28-0.3,0.44-0.47,0.64c-1.71,2.08-3.45,4.14-4.97,6.38c-0.51,0.75-0.97,1.51-1.4,2.3
	c0.59-2.31,0.5-4.69-0.09-7.11c-0.32-1.27-1.09-2.3-2.11-3.12c-0.09-0.07-0.19-0.13-0.27-0.2c-0.7-0.58-1.43-1.08-2.48-1
	c-0.17-0.59-0.34-1.15-0.49-1.73C43.76,73.78,44.07,73.89,44.37,73.99z M43.36,71.48c2.69-4.66,4.43-9.74,6.54-14.66
	c0.32-0.76,0.64-1.52,0.96-2.28c0.07-0.17,0.11-0.36,0.35-0.49c0.32,0.61,0.65,1.23,0.93,1.86c0.71,1.6,1.68,3,2.88,4.26
	c0.26,0.26,0.52,0.54,0.74,0.85c0.72,1,1.41,2.03,2.33,2.87c0.22,0.19,0.35,0.47,0.56,0.77c-0.79,2.04-0.8,4.16-0.57,6.27
	c-0.12-0.11-0.25-0.21-0.37-0.31c-1.09-0.83-2.33-1.35-3.74-1.5c-2.43-0.27-4.79-0.1-7.05,0.88c-1.02,0.45-2.04,0.9-3.05,1.38
	c-0.19,0.09-0.38,0.18-0.56,0.26C43.32,71.58,43.33,71.53,43.36,71.48z M24.67,101.02c0.69-1.59,1.47-3.12,2.34-4.6
	c0.55-0.94,1.08-1.88,1.61-2.83c0.95-1.67,1.92-3.31,3.05-4.86c1.34-1.85,2.62-3.75,3.88-5.65c0.62-0.94,1.3-1.84,1.98-2.73
	c1.44-1.87,2.78-3.81,3.98-5.84c0.19-0.32,0.4-0.62,0.65-1c0.44,0.52,0.44,1.1,0.57,1.62c0.07,0.28-0.18,0.48-0.33,0.68
	c-0.56,0.76-0.96,1.6-1.35,2.45c-1.32,2.9-1.17,5.83-0.16,8.76c0.54,1.6,1.15,3.16,1.72,4.75c0.32,0.88,0.54,1.79,0.65,2.73
	c0.07,0.67,0.2,1.33,0.42,1.97c0.1,0.26,0.24,0.47,0.55,0.49s0.5-0.17,0.6-0.41c0.14-0.35,0.27-0.7,0.37-1.06
	c0.37-1.47,0.96-2.84,1.7-4.15c0.06-0.1,0.11-0.21,0.17-0.31c-0.07,0.18-0.13,0.36-0.2,0.54c-1.03,2.88-1.46,5.86-1.35,8.91
	c0.01,0.31-0.03,0.59-0.2,0.85c-1.15,1.76-2.33,3.49-3.78,5.03c-1.1,1.17-2.43,2-3.93,2.58c-0.69,0.28-1.41,0.42-2.16,0.33
	c-0.94-0.12-1.44-0.62-1.48-1.55c-0.05-0.88,0.05-1.74,0.32-2.58c0.06-0.18,0.1-0.37,0.29-0.46c1.4,0.07,1.75,0.03,2.62-0.41
	c1.44-0.74,2.55-1.85,3.45-3.19c0.31-0.47,0.41-1,0.35-1.56c-0.07-0.62-0.45-0.98-1.08-1.02c-0.41-0.02-0.81,0.06-1.19,0.22
	c-0.48,0.2-0.92,0.47-1.32,0.8c-1.15,0.93-2.16,1.99-2.91,3.28c-0.1,0.18-0.14,0.42-0.44,0.5c-0.69-0.7-1.09-1.53-1.13-2.53
	c-0.1-2.21,0.74-4.04,2.27-5.58c0.97-0.98,2.12-1.7,3.45-2.1c0.39-0.12,0.8-0.18,1.21-0.09c0.21,0.05,0.32,0.18,0.33,0.4
	c0.01,0.34-0.07,0.65-0.28,0.92c-0.14,0.19-0.21,0.39-0.01,0.58c0.16,0.16,0.41,0.1,0.63-0.15c0.34-0.39,0.47-0.87,0.44-1.37
	c-0.04-0.71-0.41-1.09-1.13-1.16c-0.47-0.05-0.92,0.01-1.38,0.14c-2.78,0.82-6.19,3.65-6.32,7.81c-0.04,1.32,0.29,2.47,1.16,3.47
	c0.16,0.18,0.39,0.31,0.45,0.62c-0.05,0.17-0.11,0.38-0.19,0.58c-0.33,0.88-0.41,1.81-0.4,2.73c0.01,1.47,0.84,2.32,2.29,2.47
	c0.95,0.1,1.84-0.12,2.7-0.48c1.82-0.76,3.36-1.9,4.63-3.41c0.9-1.09,1.72-2.24,2.54-3.4c0.1-0.14,0.15-0.34,0.41-0.37
	c0.2,0.81,0.37,1.61,0.6,2.39c0.26,0.9,0.18,1.82-0.12,2.65c-0.43,1.17-0.96,2.33-1.83,3.26c-1.16,1.26-2.13,2.68-3.28,3.96
	c-0.54,0.62-1.15,0.88-1.93,0.79c-0.76-0.09-1.51-0.2-2.25-0.42c-1.42-0.41-2.79-0.38-4.1,0.41c-0.63,0.38-1.28,0.72-1.91,1.09
	c-0.29,0.17-0.55,0.35-0.82,0.55c0.21-0.64,0.43-1.28,0.61-1.93c0.28-0.97,0.4-1.98,0.33-3c-0.05-0.82-0.14-1.64-0.21-2.46
	c-0.1-1.29-0.64-2.39-1.52-3.3c-1.12-1.16-2.28-2.25-3.8-2.93C23.92,102.74,23.94,102.68,24.67,101.02z M35.09,103.39
	c0.76-1.41,1.84-2.54,3.12-3.49c0.31-0.23,0.64-0.41,1-0.53c0.32-0.1,0.64-0.16,0.96,0.03c0.2,0.43,0.1,0.85-0.14,1.22
	c-0.9,1.36-2.02,2.48-3.55,3.12c-0.48,0.2-0.98,0.29-1.47,0.13C34.9,103.66,35.02,103.53,35.09,103.39z M21.13,112.55
	c0.68-2.57,1.4-5.13,2.11-7.69c0.11-0.39,0.18-0.79,0.46-1.1c0.32,0.05,0.29,0.27,0.24,0.43c-0.14,0.55-0.12,1.12-0.14,1.68
	c-0.04,1.09,0.14,2.14,0.59,3.16c0.97,2.19,1.87,4.42,2.81,6.61c0.45,1.07,0.82,2.17,1.15,3.29l0,0c-0.89,1.33-1.58,2.73-2.03,4.23
	c-1.22-0.73-2.47-1.38-3.85-1.74c-0.4-0.11-0.81-0.15-1.22-0.23c-1.11-0.18-1.23-0.35-1.23-1.45
	C20.03,117.29,20.51,114.91,21.13,112.55z M28.77,146.9c-0.38,0.02-0.72-0.04-1-0.2c-0.33-0.19-0.5-0.47-0.58-0.6
	c-0.77-1.32-1.73-2.54-2.43-3.91c-1.18-2.31-1.06-1.89-1.6-3.01c-1.8-3.83-2.37-7.22-2.6-8.67c-0.28-1.77-0.35-3.34-0.41-4.03
	c-0.06-0.63-0.07-1.27-0.05-1.92c0.39,0.93,0.72,1.88,1.23,2.75c0.65,1.14,1.37,2.23,2.27,3.2c0.91,0.99,1.76,2.05,2.6,3.09
	c0,0,0,0.01,0.01,0.01c0.11,0.43,0.23,0.86,0.39,1.28c0.38,0.99,0.85,1.95,0.9,3.04c0.01,0.17,0.09,0.33,0.25,0.39
	c0.21,0.08,0.37-0.04,0.49-0.2c0.13-0.18,0.25-0.36,0.37-0.54c0.15-0.24,0.29-0.49,0.44-0.73c0.56,0.63,1.03,1.32,1.41,2.09
	c0.11,0.23,0.24,0.47,0.41,0.67c0.25,0.29,0.68,0.18,0.8-0.19c0.05-0.17,0.08-0.37,0.07-0.55c-0.07-1.86-0.15-3.73-0.38-5.57
	c1.04-1.29,2.26-2.41,3.4-3.61c0.01-0.02,0.04-0.03,0.06-0.05c1.16-0.9,2.31-1.82,3.49-2.7c2.11-1.6,3.3-3.74,3.66-6.33
	c0.26-1.87,0.41-3.75-0.29-5.56c0.15-0.22,0.25-0.42,0.41-0.56c0.68-0.61,1.17-1.36,1.7-2.08c0.16-0.22,0.35-0.43,0.54-0.62
	c0.88-0.92,1.58-1.94,2.1-3.1c0.2-0.46,0.45-0.9,0.68-1.35c0.18,0.09,0.2,0.23,0.26,0.35c0.23,0.55,0.46,1.11,0.69,1.66
	c0.21,0.5,0.42,0.99,0.62,1.49c-2.16,1.91-3.87,4.66-3.98,8.06c-0.05,1.82,0.41,3.4,1.6,4.77c0.22,0.25,0.54,0.42,0.62,0.85
	c-0.07,0.23-0.15,0.52-0.26,0.8c-0.45,1.21-0.56,2.49-0.55,3.76c0.01,2,1.14,3.16,3.1,3.39c0.11,0.26,0.22,0.52,0.36,0.77
	c0.22,0.41,0.43,0.82,0.66,1.22c0.54,0.95,0.97,1.95,1.24,3.01c0.07,0.26,0.16,0.52,0.27,0.77c0.07,0.18,0.22,0.31,0.44,0.3
	s0.33-0.16,0.4-0.35c0.16-0.47,0.26-0.95,0.31-1.44c0.08-0.68,0.24-1.34,0.47-1.99c0.41-1.15,0.86-2.29,1.25-3.45
	c0.04-0.12,0.07-0.24,0.11-0.36c1.33-0.74,2.52-1.67,3.59-2.75c0.06,0.08,0.12,0.16,0.17,0.25c0.92,1.38,1.85,2.77,2.82,4.11
	c0.14,0.19,0.25,0.39,0.39,0.58c-0.06,0.07-0.1,0.14-0.16,0.2c-1.6,1.73-2.93,3.69-4.51,5.44c-0.75,0.85-1.59,1.22-2.66,1.08
	c-1.05-0.13-2.07-0.28-3.09-0.58c-1.95-0.57-3.84-0.52-5.63,0.57c-0.87,0.52-1.76,0.99-2.63,1.5c-1.38,0.81-2.55,1.84-3.45,3.16
	c-0.77,1.13-1.43,2.3-1.97,3.51c-0.28-0.18-0.56-0.36-0.86-0.52c-1.19-0.61-2.44-0.9-3.78-0.91c-1.16,0-2.32,0.06-3.47,0.22
	C29.22,146.86,28.99,146.89,28.77,146.9z M29.9,150.28c-0.15-0.2-0.33-0.4-0.4-0.8c0.33,0.22,0.58,0.41,0.84,0.57
	c0.25,0.16,0.52,0.3,0.77,0.46c1.28,0.84,2.72,1.28,4.21,1.49c0.3,0.04,0.6,0.1,0.89,0.15c-0.1,0.49-0.19,0.99-0.26,1.5
	c-0.18,1.41-0.31,2.83-0.33,4.24C33.7,155.37,31.82,152.81,29.9,150.28z M32.72,215.08c-0.4,0.28-0.81,0.42-1.3,0.37
	c-0.09-0.01-0.18,0-0.27,0c0.2-0.13,0.4-0.26,0.58-0.4c0.75-0.59,1.54-1.14,2.33-1.67C33.8,214.1,33.35,214.64,32.72,215.08z
	 M47.29,265.58c-0.14-0.14-0.73-0.74-1.51-1.61c-0.82-0.92-1.4-1.64-1.58-1.87c-0.96-1.21-1.57-2.19-1.93-2.64
	c-2.5-3.16-4.35-6.72-6.19-10.27c-0.09-0.16-0.22-0.32-0.12-0.53c0.98-0.05,1.16,0.18,1.54,0.89c0.52,0.98,1.28,1.68,2.42,1.9
	c0.21,0.05,0.42,0.1,0.64,0.14c1.66,0.32,3.31,0.07,4.95-0.15c0.26-0.04,0.59-0.04,0.65-0.39c0.05-0.31-0.24-0.38-0.44-0.52
	c-1.01-0.69-2.12-1.23-3.07-2.02c-0.47-0.39-1.06-0.56-1.66-0.64c-0.84-0.11-1.68-0.13-2.53-0.13c-0.33-0.01-0.66,0.05-0.93,0.24
	c-0.17,0.12-0.35,0.14-0.54,0.1c-0.29-0.06-0.59-0.11-0.88-0.14c-0.43-0.05-0.69-0.31-0.86-0.66c-0.11-0.22-0.19-0.45-0.27-0.69
	c-0.39-1.19-0.81-2.37-1.18-3.57c-0.46-1.52-1.02-3.56-1.36-6.22c-0.39-2.95-0.3-5.26-0.22-7.5c0.07-1.75,0.21-3.28,0.28-3.97
	c0.03-0.3,0.12-1.25,0.35-2.84c0.87-6.29,1.74-8.4,2.03-9.24c0.06-0.18,0.11-0.37,0.19-0.55c0.11-0.07,0.22-0.14,0.33-0.21
	c0.35,0.3,0.4,0.46,0.24,0.91c-0.14,0.39-0.27,0.77-0.26,1.19c0,1.02,0.3,1.93,0.93,2.73c0.6,0.75,1.3,1.4,2.12,1.9
	c0.82,0.49,1.65,0.96,2.49,1.42c0.35,0.19,0.73,0.37,1.11,0.5c0.42,0.15,0.72,0.09,0.81-0.12c0.14-0.31-0.08-0.52-0.26-0.71
	c-0.6-0.62-1-1.36-1.33-2.14c-0.39-0.9-0.76-1.81-1.06-2.74c-0.21-0.64-0.55-1.19-1.08-1.61c-0.67-0.52-1.34-1.03-2.23-1.11
	c-0.23-0.03-0.41-0.1-0.54-0.31c-0.07-0.11-0.16-0.23-0.26-0.31c-0.01,0-0.01-0.01-0.01-0.01c0.68-0.43,1.36-0.86,2.03-1.3
	c1.72-1.14,3.11-2.57,4.15-4.35c0.43-0.74,0.92-1.46,1.4-2.17c0.4-0.59,0.7-1.22,1.04-1.99c0.29,0.49,0.18,0.89,0.23,1.27
	c0.04,0.23,0.13,0.45,0.37,0.51c0.26,0.06,0.43-0.09,0.54-0.31c0.23-0.41,0.58-0.68,0.93-0.96c0.34-0.28,0.65-0.58,0.94-0.89
	c0.18,0.2,0.41,0.36,0.72,0.44c-0.18,0.48-0.34,0.97-0.53,1.45c-0.18,0.46-0.31,0.93-0.41,1.41c-0.45,2.42-0.29,4.79,0.62,7.07
	c0.5,1.24,1.18,2.39,2.25,3.26c0.26,0.2,0.51,0.41,0.68,0.7c0.08,0.16,0.2,0.27,0.39,0.22c0.18-0.05,0.24-0.2,0.27-0.37
	c0.04-0.28-0.04-0.57,0.17-0.92c0.24,0.56,0.47,1.02,0.75,1.45c0.35,0.52,0.7,1.04,1.02,1.58c0.75,1.3,1.76,2.34,3.01,3.17
	c1.55,1.02,3.16,1.94,4.61,3.09c0.31,0.25,0.68,0.45,1.02,0.66c0.35,0.21,0.67,0.06,0.71-0.34c0.03-0.18,0-0.38-0.01-0.57
	c-0.12-2.01-0.04-4.03-0.01-6.04c0.03-1.93,0.12-3.87,0.16-5.8c0.02-0.73-0.06-1.47-0.04-2.21c0.02-0.73,0.01-1.45-0.04-2.18
	c0.03-0.02,0.06-0.03,0.09-0.05c1.13-0.68,2.09-1.59,2.91-2.61c0.87-1.1,1.28-2.36,1.28-3.76c0.01-0.57-0.17-1.1-0.36-1.63
	c-0.25-0.71-0.17-0.88,0.51-1.41c0.3,0.34,0.38,0.78,0.52,1.2c0.41,1.16,1.6,4.06,2.79,12.71c0.31,2.19,0.43,3.49,0.48,3.9
	c0.1,0.94,0.29,3.05,0.39,5.45c0.12,3.08,0.23,6.26-0.3,10.32c-0.48,3.66-1.24,6.46-1.87,8.55c-0.5,1.65-1.08,3.27-1.62,4.9
	c-0.11,0.32-0.22,0.64-0.37,0.95c-0.23,0.49-0.59,0.85-1.18,0.91c-0.41,0.05-0.81,0.12-1.22,0.2c-0.27,0.05-0.51,0.02-0.75-0.14
	c-0.38-0.27-0.83-0.34-1.28-0.33c-1.16,0-2.33,0.03-3.48,0.18c-0.83,0.11-1.64,0.34-2.28,0.87c-1.31,1.09-2.83,1.82-4.22,2.78
	c-0.27,0.19-0.68,0.29-0.6,0.71c0.08,0.48,0.54,0.48,0.89,0.53c2.26,0.31,4.52,0.65,6.81,0.21c0.3-0.05,0.59-0.13,0.87-0.19
	c0.27-0.05,0.52-0.13,0.77-0.22c-0.19,0.19-0.4,0.41-0.66,0.68c-0.25,0.26-0.42,0.43-0.94,0.95c-1.42,1.43-1.82,1.83-2.35,2.49
	c-0.09,0.12-0.2,0.25-0.34,0.44c-3.42,4.47-4.96,6.8-6.48,9.3c-0.52,0.85-0.98,1.73-1.41,2.62C48.8,267.31,48,266.3,47.29,265.58z
	 M74.72,242.36c-0.36,0.83-0.77,1.63-1.54,2.16c-0.56,0.4-1.01,0.89-1.42,1.43c-0.91,1.18-1.83,2.35-2.73,3.53
	c-0.1-0.08-0.2-0.16-0.3-0.25c-0.48-0.46-0.65-0.99-0.49-1.62c2.08-1.78,4.13-3.6,5.92-5.69c0.09-0.11,0.19-0.24,0.37-0.23
	C74.83,241.86,74.83,242.1,74.72,242.36z M65.79,248.36c-0.48,0.41-0.95,0.82-1.44,1.26c0.01-0.02,0.02-0.03,0.03-0.04
	C64.79,248.8,65.04,248.44,65.79,248.36z M46.91,315.32c-0.31-1.04-0.66-2.25-0.99-3.66c0.04-0.02,0.08-0.04,0.12-0.06
	c0.68-0.28,1.38-0.49,2.06-0.76c0.39-0.16,0.79-0.24,1.2-0.16c1.14,0.22,2.22,0.05,3.25-0.48c0.12-0.07,0.28-0.2,0.44,0.01
	c-0.58,1.01-1.31,1.93-2.04,2.84c-1.07,1.35-1.99,2.8-2.76,4.33c-0.12,0.24-0.25,0.47-0.38,0.71
	C47.51,317.17,47.2,316.25,46.91,315.32z M49.92,272.7c-0.61-0.54-0.56-1.14-0.22-1.88c0.11-0.24,0.22-0.49,0.32-0.73
	c0.35,0.45,0.7,0.91,1.04,1.37c-0.07,0.07-0.13,0.13-0.16,0.16C50.59,271.93,50.26,272.3,49.92,272.7z M36.07,293.39
	c-0.39,0.14-0.78,0.23-1.22,0.35c-0.14-0.06-0.32-0.13-0.48-0.22c-0.44-0.25-0.88-0.42-1.32-0.53c1.17-0.51,2.34-1.02,3.51-1.52
	c0.57-0.24,1.15-0.48,1.72-0.72c-0.09,0.19-0.16,0.33-0.19,0.42c-0.02,0.05-0.15,0.39-0.37,0.82
	C37.38,292.69,36.81,293.14,36.07,293.39z M36.27,299.27c0.86-3.15,2.05-6.17,3.45-9.12c0.86-0.36,1.71-0.72,2.57-1.08
	c0.23-0.1,0.45-0.21,0.67-0.34c0.1,0.21,0.19,0.44,0.24,0.68c0.21,0.95,0.41,1.9,0.54,2.87c0.05,0.34,0.11,0.67,0.17,1
	c-0.22,2.68-0.32,5.37-0.23,8.07c0.05,1.71,0.13,3.42,0.29,5.11c-0.06,0-0.12,0.01-0.18,0.01c-0.56-1.25-1.38-2.32-2.61-3.07
	c-0.6-0.37-1.23-0.71-1.84-1.08c-0.54-0.33-1.06-0.43-1.69-0.16c-0.71,0.32-1.04,0.14-1.3-0.57
	C36.08,300.83,36.05,300.07,36.27,299.27z M34.34,311.94c0.17-2.92,0.5-5.82,1.04-8.7c0.04-0.21,0.12-0.41,0.18-0.65
	c0.16,0.08,0.26,0.13,0.35,0.19c0.14,0.12,0.27,0.24,0.42,0.39c-0.23,1.14-0.5,2.27-0.35,3.44c0.07,0.6,0.21,1.18,0.48,1.72
	c0.25,0.5,0.48,1.03,0.77,1.5c0.05,0.09,0.1,0.18,0.16,0.27c-1.43,1.26-2.41,2.82-3.04,4.62C34.27,313.79,34.28,312.86,34.34,311.94
	z M41.11,329.61c-3.09-3.63-5.01-7.83-6.32-12.32c0.04-0.03,0.08-0.05,0.12-0.08c0.33-0.24,0.66-0.48,0.97-0.75
	c0.53-0.47,1.15-0.71,1.84-0.79c0.71-0.09,1.4-0.22,2.1-0.31c0.15-0.02,0.29-0.06,0.43-0.09c0.4,0.75,0.79,1.5,1.2,2.24
	c0.14,0.26,0.27,0.53,0.46,0.77c0.38,0.48,0.85,0.5,1.23,0.05c0.2-0.22,0.38-0.49,0.46-0.76c0.42-1.43,1.03-2.8,1.13-4.33
	c0.02-0.3,0.02-0.59,0.03-0.89c0.06-0.05,0.13-0.09,0.2-0.14c0.61,2.38,1.33,4.72,2.12,7.04c-0.1,0.14-0.2,0.28-0.39,0.35
	c-0.26-0.03-0.52-0.08-0.79-0.09c-0.54-0.02-1.04,0.09-1.45,0.45c-0.37,0.32-0.73,0.66-1.06,1.02c-0.58,0.66-0.92,1.41-0.93,2.3
	c-0.01,0.81,0.16,1.57,0.5,2.29c0.2,0.43,0.64,0.43,0.9,0.04c0.1-0.16,0.16-0.35,0.25-0.52c0.21-0.41,0.39-0.84,0.64-1.23
	c0.24-0.37,0.47-0.75,0.89-1.1c0.14,0.77,0.36,1.47,0.63,2.14c-0.77,0.44-1.27,1.11-1.54,1.98c-0.16,0.52-0.26,1.05-0.28,1.59
	c-0.41,0.11-0.8,0.26-1.18,0.47C42.55,329.37,41.85,329.55,41.11,329.61z M53.17,350.25c0.58,0.48,0.9,1.01,1.23,1.51
	c0.34,0.53,0.59,1.12,0.88,1.69c0.06,0.12,0.11,0.24,0.17,0.37c-1.32,0.29-2.68,0.54-3.82,1.3c-0.16,0.11-0.3,0.23-0.46,0.34
	c0.14-0.2,0.27-0.42,0.39-0.64C52.29,353.41,52.87,351.96,53.17,350.25z M58.3,339.32c1.6,2.03,3,4.21,4.84,6.05
	c2.83,2.81,5.22,5.98,7.62,9.15c1.06,1.4,2.02,2.88,2.88,4.42c0.16,0.29,0.39,0.55,0.38,0.95c-0.49,0.32-1.01,0.23-1.5,0.04
	c-1.51-0.57-2.94-1.25-4.02-2.56c-0.57-0.69-1.11-1.41-1.66-2.12c-0.79-1.04-1.6-2.07-2.42-3.09c-0.45-0.56-1.03-0.97-1.64-1.35
	c-1.48-0.93-3.83-0.63-5.26,0.56c0.01-0.13,0.02-0.26,0.02-0.4c-0.01-1.23-0.48-2.26-1.28-3.16c-0.44-0.5-0.95-0.96-1.45-1.4
	c-0.56-0.5-1.25-0.65-1.99-0.62c-0.37,0.02-0.74,0.08-1.09,0.13c-0.37-0.14-0.51-0.45-0.7-0.72c-0.52-0.74-0.96-1.52-1.37-2.33
	c-1.06-2.11-2.32-4.1-3.79-5.96c-1-1.25-2-2.51-2.8-3.9c0.22-0.3,0.43-0.11,0.6-0.02c0.61,0.32,1.24,0.52,1.88,0.65
	c0.21,0.54,0.38,1.09,0.57,1.64c0.14,0.39,0.29,0.77,0.46,1.14c0.12,0.25,0.33,0.43,0.61,0.41c0.34-0.02,0.54-0.24,0.63-0.56
	c0.04-0.14,0.06-0.3,0.1-0.44c0.18-0.74,0.38-1.48,0.58-2.22c0.43-0.01,0.86,0.08,1.28,0.25c0.94,0.37,1.91,0.66,2.84,1.05
	c1.19,0.5,2.18,1.31,3.11,2.19c0.63,0.59,1.32,1.12,2.03,1.6c0.03,0.02,0.06,0.03,0.09,0.05C58,338.92,58.14,339.12,58.3,339.32z
	 M51.54,328.87c-0.3-0.02-0.6-0.06-0.91-0.14c-0.32-0.09-0.65-0.16-0.97-0.22c0.05-1.17-0.18-2.32-0.78-3.42
	c-0.03-0.33-0.06-0.66-0.07-1c0.03-0.01,0.05-0.03,0.08-0.04c0.32,0.28,0.44,0.68,0.63,1.05C50.18,326.36,50.85,327.62,51.54,328.87
	z M51.3,322.28c-0.41-0.08-0.81-0.15-1.22-0.2c-0.59-0.06-0.95-0.42-1.18-0.91c-0.15-0.31-0.26-0.62-0.37-0.95
	c-0.13-0.4-0.27-0.81-0.41-1.21c0.33-0.54,0.65-1.1,0.95-1.69c0.45-0.87,0.92-1.73,1.51-2.52c0.6-0.81,1.23-1.59,1.82-2.41
	c0.57-0.78,1.11-1.57,1.67-2.36c-0.09,0.56-0.28,1.07-0.48,1.57c-0.07,0.17-0.18,0.33-0.28,0.49c-0.94,1.44-1.49,3.02-1.74,4.72
	c-0.14,1-0.06,2.01-0.03,3.01c0.02,0.82,0.21,1.58,0.51,2.29c-0.01,0-0.02,0.01-0.02,0.01C51.82,322.3,51.57,322.33,51.3,322.28z
	 M54.41,307.76c-0.54-0.04-1.04-0.18-1.57-0.49c-0.46-0.26-0.94-0.4-1.46-0.46c-1.32-0.15-2.62-0.06-3.89,0.3
	c-0.71,0.2-1.4,0.15-2.07-0.16c-0.12-0.06-0.25-0.11-0.38-0.17v-0.01c-0.53-4.06-0.41-7.24-0.3-10.32c0-0.09,0.01-0.17,0.01-0.26
	c0.14,0.34,0.29,0.68,0.47,1c1.13,2.07,2.33,4.1,4.03,5.79c0.67,0.66,1.32,1.32,1.98,1.98c0.14,0.14,0.26,0.28,0.41,0.39
	c0.5,0.33,0.94,0.28,1.24-0.24c0.28-0.48,0.51-0.99,0.71-1.51c0.3-0.8,0.54-1.61,0.81-2.42c0.32,0.07,0.44,0.32,0.59,0.53
	c0.55,0.84,1.3,1.44,2.15,1.89C56.41,305.07,55.52,306.46,54.41,307.76z M52.96,274.31c-0.55-0.33-1.14-0.59-1.83-0.66
	c-0.19-0.02-0.35-0.07-0.48-0.17c0.34-0.39,0.69-0.78,1.04-1.17C52.14,272.96,52.57,273.63,52.96,274.31z M57.81,263.2
	c-0.5,0.62-1.33,1.97-2.66,3.63c-0.25,0.32-1.05,1.31-2.17,2.57c-0.62,0.7-1.16,1.26-1.53,1.66c-0.37-0.56-0.75-1.12-1.12-1.65
	c0.6-1.31,1.24-2.6,2.01-3.81c2.48-3.83,4.95-7.67,8.25-10.9c1.83-1.79,3.63-3.6,5.56-5.29C63.67,254.19,61.18,258.96,57.81,263.2z
	 M95.13,195.9c-0.41,0.07-0.82,0.12-1.22,0.23c-1.6,0.42-3.05,1.22-4.44,2.1c-0.91,0.58-1.61,1.34-2.12,2.28
	c-0.31,0.56-0.57,1.14-0.82,1.72c-1.6,3.62-1.72,7.49-1.87,11.35c-0.01,0.18,0.02,0.38,0.07,0.55c0.12,0.37,0.55,0.48,0.8,0.19
	c0.16-0.2,0.3-0.43,0.41-0.67c0.48-0.99,1.13-1.85,1.9-2.62c0.85-0.85,1.6-1.79,2.35-2.72c0.85-1.05,1.69-2.1,2.6-3.09
	c0.9-0.97,1.62-2.06,2.27-3.2c0.5-0.87,0.84-1.82,1.23-2.75c0.02,0.65,0.01,1.29-0.05,1.92c-0.06,0.68-0.14,2.26-0.41,4.03
	c-0.23,1.45-0.8,4.84-2.6,8.67c-0.53,1.12-0.41,0.7-1.6,3.01c-0.7,1.37-1.66,2.59-2.43,3.91c-0.08,0.14-0.24,0.41-0.58,0.6
	c-0.28,0.16-0.62,0.22-1,0.2c-0.23-0.01-0.45-0.04-0.68-0.06c-1.15-0.15-2.31-0.22-3.47-0.22c-1.34,0.01-2.6,0.3-3.78,0.91
	c-1.83,0.95-3.31,2.32-4.66,3.83c-0.37,0.42-0.7,0.87-1.04,1.32c-0.17,0.23-0.21,0.5-0.05,0.74c0.16,0.25,0.44,0.27,0.71,0.2
	c0.43-0.13,0.87-0.24,1.29-0.39c1.68-0.53,3.36-1,5.12-1.24c1.49-0.21,2.93-0.65,4.21-1.49c0.25-0.16,0.52-0.3,0.78-0.46
	s0.5-0.35,0.84-0.57c-0.06,0.41-0.24,0.6-0.4,0.8c-3.04,4-5.93,8.11-9.22,11.9c-1.47,1.7-2.99,3.35-4.49,5.03
	c-0.39,0.44-0.79,0.87-1.2,1.29c-0.89,0.91-1.6,1.54-1.99,1.88c-0.24,0.21-0.46,0.41-0.68,0.6c1.01-2.85,1.92-5.74,2.65-8.68
	c0.85-3.41,1.05-6.88,1.15-10.36c0.19-5.79-0.47-11.53-1.33-17.23c-0.3-1.96-0.68-3.91-1.16-5.84c-0.05-0.18-0.15-0.35-0.04-0.59
	c0.46,0.05,0.73,0.47,1.07,0.54c0.22,0.32,0.2,0.59,0.16,0.85c-0.31,2.44,0.78,4.28,2.73,5.52c2.06,1.31,3.97,2.82,5.95,4.24
	c0.33,0.24,0.68,0.47,1.05,0.65c0.49,0.23,0.92-0.06,0.9-0.61c-0.01-0.29-0.11-0.59-0.21-0.87c-0.37-1.06-0.75-2.12-1.13-3.17
	c-0.11-0.32-0.23-0.64-0.38-0.94c-1.07-2.04-2.38-3.9-4.16-5.39c-0.98-0.82-2.11-1.26-3.42-1.11c-0.67,0.07-1.23-0.12-1.78-0.5
	c-0.96-0.67-1.61-1.49-1.96-2.63c-0.89-2.95-2.03-5.8-3.64-8.43c-1.42-2.33-2.87-4.53-5.82-8.44c1.78-2.28,3.48-4.64,5.1-7.06
	c0.03-0.04,0.07-0.08,0.12-0.11c0.02-0.01,0.05-0.03,0.07-0.03c0.03,0,0.05,0.02,0.1,0.05c0.09,0.15,0.05,0.35,0.05,0.53
	c0.01,0.43,0,0.87,0.03,1.3c0.05,0.69,0.17,1.36,0.6,1.93c0.95,1.25,2.04,2.34,3.55,2.91c0.57,0.22,1.04,0.6,1.4,1.09
	c0.1,0.13,0.2,0.26,0.31,0.38c0.2,0.22,0.42,0.26,0.57,0.11c0.2-0.18,0.14-0.39,0.03-0.59c-0.07-0.12-0.16-0.22-0.24-0.33
	c-1.04-1.42-1.86-2.94-2.37-4.63c-0.16-0.52-0.37-1.03-0.56-1.53c-0.19-0.48-0.48-0.92-0.81-1.31c-0.41-0.48-0.9-0.79-1.54-0.83
	c-0.15-0.01-0.33,0.02-0.43-0.16c0.01-0.06,0.01-0.12,0.03-0.16c0.11-0.19,0.22-0.37,0.34-0.56c1.06-1.66,2.05-3.35,2.81-5.16
	c0.33-0.79,0.61-1.59,0.85-2.4c0.73,1.29,1.3,2.63,1.67,4.07c0.1,0.36,0.23,0.71,0.37,1.06c0.1,0.24,0.3,0.43,0.6,0.41
	s0.45-0.23,0.55-0.49c0.23-0.64,0.35-1.31,0.42-1.97c0.11-0.94,0.32-1.85,0.65-2.73c0.53-1.49,1.1-2.96,1.62-4.45
	c0.77,0.36,1.59,0.64,2.42,0.9c0.1,0.03,0.22,0.04,0.33,0.05c1.73,0.17,3.47,0.34,5.2,0.5c0.08,0.01,0.16,0.01,0.24,0.01
	c0.27-0.01,0.58,0.03,0.71-0.27c0.14-0.33-0.13-0.48-0.34-0.66c-0.02-0.02-0.04-0.03-0.06-0.05c-1.28-1.11-2.55-2.22-3.65-3.51
	c-0.19-0.22-0.42-0.43-0.64-0.62c-1.1-0.98-2.24-1.91-3.3-2.93c-0.07-0.07-0.15-0.12-0.23-0.18c-0.15-0.77-0.39-1.53-0.74-2.29
	c-0.39-0.86-0.79-1.69-1.35-2.45c-0.15-0.21-0.41-0.41-0.33-0.68c0.13-0.52,0.13-1.1,0.57-1.62c0.25,0.38,0.46,0.68,0.65,1
	c1.21,2.03,2.54,3.97,3.98,5.84c0.68,0.89,1.36,1.79,1.98,2.73c1.26,1.9,2.54,3.8,3.88,5.65c1.13,1.55,2.1,3.19,3.05,4.86
	c0.53,0.95,1.06,1.89,1.61,2.83c0.87,1.49,1.65,3.02,2.34,4.6c0.73,1.66,0.75,1.72-0.87,2.43c-1.52,0.68-2.69,1.77-3.8,2.93
	c-0.88,0.91-1.42,2.01-1.52,3.3c-0.06,0.82-0.16,1.64-0.21,2.46c-0.06,1.02,0.05,2.03,0.33,3c0.35,1.26,0.87,2.48,1.11,3.78
	c0.1,0.54,0.39,0.79,0.68,0.75c0.41-0.05,0.5-0.41,0.59-0.73c0.33-1.12,0.7-2.22,1.15-3.29c0.94-2.2,1.84-4.42,2.81-6.61
	c0.45-1.02,0.62-2.07,0.59-3.16c-0.02-0.56,0.01-1.13-0.14-1.68c-0.05-0.16-0.08-0.39,0.24-0.43c0.28,0.31,0.35,0.71,0.46,1.1
	c0.71,2.56,1.43,5.12,2.11,7.69c0.62,2.36,1.1,4.74,1.11,7.2C96.36,195.55,96.24,195.72,95.13,195.9z"/>
</svg>
