<?xml version="1.0" encoding="utf-8"?>
<!-- Generator: Adobe Illustrator 24.0.2, SVG Export Plug-In . SVG Version: 6.00 Build 0)  -->
<svg version="1.1" id="Laag_1" xmlns="http://www.w3.org/2000/svg" xmlns:xlink="http://www.w3.org/1999/xlink" x="0px" y="0px"
	 viewBox="0 0 199.28 53.16" style="enable-background:new 0 0 199.28 53.16;" xml:space="preserve">
<style type="text/css">
	.st0{fill:url(#SVGID_1_);}
	.st1{fill:url(#SVGID_2_);}
	.st2{fill:#FFFFFF;}
</style>
<g id="Streep_1_">
	
		<radialGradient id="SVGID_1_" cx="99.64" cy="1.8877" r="70.4597" gradientTransform="matrix(1 0 0 -1 0 54.0497)" gradientUnits="userSpaceOnUse">
		<stop  offset="0" style="stop-color:#FFFAD2"/>
		<stop  offset="0.0853" style="stop-color:#FEF3C0"/>
		<stop  offset="0.2541" style="stop-color:#F3DE92"/>
		<stop  offset="0.2702" style="stop-color:#F2DC8E"/>
		<stop  offset="0.5726" style="stop-color:#F0BF00"/>
		<stop  offset="1" style="stop-color:#C9961A"/>
	</radialGradient>
	<path class="st0" d="M0,52.16c8.3-0.23,16.61-0.32,24.91-0.49l24.91-0.28c16.61-0.16,33.21-0.15,49.82-0.23
		c16.61,0.08,33.21,0.07,49.82,0.23l24.91,0.28c8.3,0.17,16.61,0.26,24.91,0.49c-8.3,0.23-16.61,0.32-24.91,0.49l-24.91,0.28
		c-16.61,0.16-33.21,0.15-49.82,0.23c-16.61-0.08-33.21-0.07-49.82-0.23l-24.91-0.28C16.61,52.48,8.31,52.39,0,52.16z"/>
</g>
<g id="Streep">
	
		<radialGradient id="SVGID_2_" cx="99.64" cy="53.0518" r="70.4597" gradientTransform="matrix(1 0 0 -1 0 54.0497)" gradientUnits="userSpaceOnUse">
		<stop  offset="0" style="stop-color:#FFFAD2"/>
		<stop  offset="0.0853" style="stop-color:#FEF3C0"/>
		<stop  offset="0.2541" style="stop-color:#F3DE92"/>
		<stop  offset="0.2702" style="stop-color:#F2DC8E"/>
		<stop  offset="0.5726" style="stop-color:#F0BF00"/>
		<stop  offset="1" style="stop-color:#C9961A"/>
	</radialGradient>
	<path class="st1" d="M0,1c8.3-0.23,16.61-0.32,24.91-0.49l24.91-0.28C66.43,0.07,83.03,0.08,99.64,0
		c16.61,0.08,33.21,0.07,49.82,0.23l24.91,0.28c8.3,0.17,16.61,0.26,24.91,0.49c-8.3,0.23-16.61,0.32-24.91,0.49l-24.91,0.28
		C132.85,1.93,116.25,1.92,99.64,2C83.03,1.92,66.43,1.93,49.82,1.77L24.91,1.49C16.61,1.32,8.31,1.22,0,1z"/>
</g>
<g id="_x31_2-11-21">
	<path class="st2" d="M26.5,43.19c-3.5,0-6.88-0.16-8.85-0.16c-2.62,0-5.68,0.16-8.41,0.16l-0.22-1.43l4.43-0.42
		c1.26-0.11,1.69-0.42,1.75-1.27c0.11-1.22,0.22-3.66,0.22-7.58V22c0-3.97,0-6.68-0.11-8.32c0-0.64-0.22-0.85-0.66-0.79
		c-1.04,0.05-3.44,0.16-4.92,0.21l0.33-1.48c3.61-0.42,9.18-1.27,10.44-1.75l0.27,0.16c0,1.96-0.22,5.41-0.22,11.98v10.33
		c0,3.97,0.05,5.99,0.16,7.74c0.05,0.85,0.27,1.22,1.26,1.33l4.43,0.37L26.5,43.19z"/>
	<path class="st2" d="M55.02,34.56c-1.15,3.97-1.64,7.26-1.75,8.74c-1.04-0.11-3.82-0.26-15.41-0.26c-2.46,0-4.26,0-5.85,0.11
		l-0.16-0.42c0.33-0.85,0.87-2.07,1.26-2.7c6.72-4.77,11.96-10.76,13.39-15.16c0.66-2.01,0.87-3.87,0.87-6.2
		c0-3.44-1.37-7.21-5.35-7.21c-3.61,0-5.14,2.07-5.14,5.41c0,0.79,0.22,1.59,0.38,2.38c0.11,0.48-0.05,1.11-0.44,1.48
		c-0.49,0.48-1.2,0.69-1.86,0.69c-1.58,0.05-2.62-1.17-2.62-3.18c0-2.07,1.09-4.03,2.84-5.62c1.86-1.64,4.7-2.76,7.87-2.76
		c2.9,0,5.19,0.85,6.61,1.96c2.51,1.91,3.44,4.88,3.44,7.95c0,3.18-1.15,5.56-3.28,7.9c-1.8,2.01-5.74,5.51-12.51,11.45
		c8.52-0.16,12.51-0.37,13.6-0.48c0.71-0.11,1.15-0.37,1.42-1.17c0.33-0.74,0.87-2.17,1.26-3.55L55.02,34.56z"/>
	<path class="st2" d="M95.84,43.19c-3.5,0-6.88-0.16-8.85-0.16c-2.62,0-5.68,0.16-8.41,0.16l-0.22-1.43l4.42-0.42
		c1.26-0.11,1.69-0.42,1.75-1.27c0.11-1.22,0.22-3.66,0.22-7.58V22c0-3.97,0-6.68-0.11-8.32c0-0.64-0.22-0.85-0.66-0.79
		c-1.04,0.05-3.44,0.16-4.92,0.21l0.33-1.48c3.61-0.42,9.18-1.27,10.44-1.75l0.27,0.16c0,1.96-0.22,5.41-0.22,11.98v10.33
		c0,3.97,0.05,5.99,0.16,7.74c0.05,0.85,0.27,1.22,1.26,1.33l4.42,0.37L95.84,43.19z"/>
	<path class="st2" d="M121.96,43.19c-3.5,0-6.88-0.16-8.85-0.16c-2.62,0-5.68,0.16-8.41,0.16l-0.22-1.43l4.42-0.42
		c1.26-0.11,1.69-0.42,1.75-1.27c0.11-1.22,0.22-3.66,0.22-7.58V22c0-3.97,0-6.68-0.11-8.32c0-0.64-0.22-0.85-0.66-0.79
		c-1.04,0.05-3.44,0.16-4.92,0.21l0.33-1.48c3.61-0.42,9.18-1.27,10.44-1.75l0.27,0.16c0,1.96-0.22,5.41-0.22,11.98v10.33
		c0,3.97,0.05,5.99,0.16,7.74c0.05,0.85,0.27,1.22,1.26,1.33l4.42,0.37L121.96,43.19z"/>
	<g>
		<path class="st2" d="M62.9,24.88l-0.6,3.29c4.04-0.16,8.09-0.16,12.62,0l0.55-3.29C70.87,24.99,66.99,24.99,62.9,24.88z"/>
		<path class="st2" d="M125.84,24.88l-0.6,3.29c4.04-0.16,8.09-0.16,12.62,0l0.55-3.29C133.82,24.99,129.94,24.99,125.84,24.88z"/>
	</g>
	<path class="st2" d="M166.55,34.56c-1.15,3.97-1.64,7.26-1.75,8.74c-1.04-0.11-3.82-0.26-15.41-0.26c-2.46,0-4.26,0-5.85,0.11
		l-0.16-0.42c0.33-0.85,0.87-2.07,1.26-2.7c6.72-4.77,11.96-10.76,13.39-15.16c0.66-2.01,0.87-3.87,0.87-6.2
		c0-3.44-1.37-7.21-5.35-7.21c-3.61,0-5.14,2.07-5.14,5.41c0,0.79,0.22,1.59,0.38,2.38c0.11,0.48-0.06,1.11-0.44,1.48
		c-0.49,0.48-1.2,0.69-1.86,0.69c-1.58,0.05-2.62-1.17-2.62-3.18c0-2.07,1.09-4.03,2.84-5.62c1.86-1.64,4.7-2.76,7.87-2.76
		c2.9,0,5.19,0.85,6.61,1.96c2.51,1.91,3.44,4.88,3.44,7.95c0,3.18-1.15,5.56-3.28,7.9c-1.8,2.01-5.74,5.51-12.51,11.45
		c8.52-0.16,12.51-0.37,13.6-0.48c0.71-0.11,1.15-0.37,1.42-1.17c0.33-0.74,0.87-2.17,1.26-3.55L166.55,34.56z"/>
	<path class="st2" d="M190.27,43.19c-3.5,0-6.88-0.16-8.85-0.16c-2.62,0-5.68,0.16-8.41,0.16l-0.22-1.43l4.43-0.42
		c1.26-0.11,1.69-0.42,1.75-1.27c0.11-1.22,0.22-3.66,0.22-7.58V22c0-3.97,0-6.68-0.11-8.32c0-0.64-0.22-0.85-0.66-0.79
		c-1.04,0.05-3.44,0.16-4.92,0.21l0.33-1.48c3.61-0.42,9.18-1.27,10.44-1.75l0.27,0.16c0,1.96-0.22,5.41-0.22,11.98v10.33
		c0,3.97,0.05,5.99,0.16,7.74c0.05,0.85,0.27,1.22,1.26,1.33l4.43,0.37L190.27,43.19z"/>
</g>
</svg>
