<?xml version="1.0" encoding="utf-8"?>
<!-- Generator: Adobe Illustrator 24.0.2, SVG Export Plug-In . SVG Version: 6.00 Build 0)  -->
<svg version="1.1" id="Laag_1" xmlns="http://www.w3.org/2000/svg" xmlns:xlink="http://www.w3.org/1999/xlink" x="0px" y="0px"
	 viewBox="0 0 233.23 110.12" style="enable-background:new 0 0 233.23 110.12;" xml:space="preserve">
<style type="text/css">
	.st0{fill:#FFFFFF;}
	.st1{fill:url(#SVGID_1_);}
</style>
<g id="Bart__x26__Merel_2_">
	<g id="Merel_1_">
		<path class="st0" d="M51.86,109.99c-0.08,0.04-0.15,0.06-0.23,0.06s-0.23,0-0.46,0c-0.54,0-1.16-0.09-1.86-0.26
			c-0.71-0.17-1.4-0.38-2.06-0.63c-0.67-0.25-1.24-0.53-1.72-0.83c-0.48-0.31-0.77-0.57-0.89-0.8c-0.04-0.54-0.06-1.09-0.06-1.66
			s0-1.13,0-1.66c0-4.28,0.32-8.75,0.95-13.41c0.63-4.66,1.67-9.7,3.12-15.13c0.15-0.53,0.32-1.21,0.49-2.03s0.35-1.71,0.54-2.67
			c-0.92,0.73-2.01,1.88-3.27,3.47c-1.26,1.59-2.59,3.46-3.98,5.62c-1.4,2.16-2.79,4.53-4.18,7.11c-1.4,2.58-2.67,5.2-3.81,7.85
			c-1.15,2.66-2.13,5.28-2.95,7.88c-0.82,2.6-1.33,5-1.52,7.22c-1.83-0.54-3.1-1.07-3.81-1.6c-0.71-0.54-1.06-1.18-1.06-1.95
			c0-0.69,0.21-1.66,0.63-2.92s1.01-2.75,1.78-4.47c0.76-1.72,1.7-3.64,2.81-5.76s2.33-4.4,3.67-6.85c1.53-2.79,3.03-5.41,4.5-7.85
			s2.91-4.66,4.33-6.65c1.41-1.99,2.8-3.71,4.15-5.16c1.36-1.45,2.7-2.56,4.04-3.32c0.54,0,1.25,0.13,2.15,0.4s1.78,0.59,2.64,0.97
			s1.62,0.77,2.29,1.18c0.67,0.4,1.04,0.74,1.12,1c-0.54,1.07-1.17,2.67-1.89,4.81c-0.73,2.14-1.46,4.57-2.21,7.28
			s-1.45,5.59-2.12,8.63s-1.19,5.95-1.58,8.74c0.88-2.1,1.9-4.29,3.07-6.56c1.16-2.27,2.4-4.53,3.7-6.76
			c1.3-2.24,2.63-4.4,3.98-6.51c1.36-2.1,2.68-4.02,3.98-5.76c1.3-1.74,2.51-3.26,3.64-4.56s2.13-2.25,3.01-2.87
			c0.53,0,1.25,0.13,2.15,0.4c0.9,0.27,1.78,0.59,2.64,0.97s1.62,0.77,2.29,1.18c0.67,0.4,1.04,0.74,1.12,1
			c-1.22,2.18-2.29,4.83-3.21,7.97c-0.92,3.13-1.69,6.42-2.32,9.86c-0.63,3.44-1.11,6.85-1.43,10.23c-0.32,3.38-0.49,6.41-0.49,9.08
			c0,0.88,0,1.8,0,2.75s0.04,1.95,0.12,2.98c-0.54,0-1.18-0.07-1.92-0.2c-0.75-0.13-1.47-0.32-2.18-0.54
			c-0.71-0.23-1.35-0.49-1.92-0.77c-0.57-0.29-0.97-0.6-1.2-0.95c-0.04-0.54-0.06-1.09-0.06-1.66s0-1.13,0-1.66
			c0-4.28,0.32-8.75,0.95-13.41c0.63-4.66,1.67-9.7,3.12-15.13c0.15-0.53,0.32-1.26,0.51-2.18s0.38-1.87,0.57-2.87
			c-1.07,0.54-2.28,1.56-3.64,3.07s-2.73,3.34-4.13,5.5c-1.4,2.16-2.77,4.56-4.13,7.19c-1.36,2.64-2.58,5.32-3.67,8.05
			c-1.09,2.73-2.01,5.44-2.75,8.14C52.47,105.26,52.02,107.73,51.86,109.99z"/>
		<path class="st0" d="M100.92,82.02c-0.15,2.37-0.57,4.4-1.26,6.1s-1.67,3.19-2.95,4.47s-2.84,2.44-4.67,3.47
			c-1.83,1.03-3.97,2.03-6.42,2.98c0,0.23-0.01,0.47-0.03,0.72s-0.03,0.51-0.03,0.77c0,0.5,0.04,1.01,0.12,1.55
			c0.08,0.54,0.21,1.03,0.4,1.49s0.46,0.83,0.8,1.12s0.78,0.43,1.32,0.43c1.03,0,2.04-0.23,3.04-0.69c0.99-0.46,1.94-1.02,2.84-1.69
			s1.74-1.39,2.52-2.18c0.78-0.78,1.48-1.5,2.09-2.15c0.38,0.34,0.71,0.67,0.97,0.97c-1.72,2.29-3.6,4.19-5.65,5.7
			c-2.04,1.51-3.98,2.47-5.82,2.89c-2.64-0.31-4.69-1.27-6.16-2.89s-2.21-3.58-2.21-5.87c0-1.57,0.22-3.16,0.66-4.79
			c0.44-1.62,1.05-3.19,1.83-4.7s1.7-2.93,2.75-4.27s2.18-2.5,3.38-3.5c1.2-0.99,2.45-1.78,3.73-2.35s2.55-0.86,3.81-0.86
			C97.75,78.98,99.39,80.07,100.92,82.02z M96.97,83.91c-1.03,0.15-2.1,0.57-3.21,1.26s-2.15,1.6-3.12,2.75s-1.86,2.48-2.67,4.01
			c-0.8,1.53-1.43,3.17-1.89,4.93c3.06-1.53,5.6-3.41,7.62-5.64C95.73,88.98,96.82,86.55,96.97,83.91z"/>
		<path class="st0" d="M102.18,104.6c0.19-1.11,0.52-2.57,1-4.38s1.04-3.74,1.69-5.79c0.65-2.04,1.34-4.1,2.06-6.16
			c0.73-2.06,1.43-3.92,2.12-5.56c0.5-1.18,0.94-2.11,1.32-2.78s0.8-1.23,1.26-1.69c0.54,0.08,1.09,0.21,1.66,0.4
			s1.13,0.42,1.66,0.69s1.01,0.54,1.43,0.83c0.42,0.29,0.74,0.56,0.97,0.83c-1.03,1.22-1.94,2.62-2.72,4.18
			c-0.78,1.57-1.58,3.57-2.38,6.02c2.06-1.83,3.89-3.59,5.47-5.27c1.59-1.68,3.07-3.55,4.44-5.62c0.23-0.19,0.63-0.29,1.2-0.29
			c0.54,0,1.05,0.09,1.55,0.26s0.84,0.41,1.03,0.72c-0.69,1.83-1.03,3.65-1.03,5.44c0,1.68,0.25,2.94,0.74,3.78
			c-0.04,0.23-0.3,0.67-0.77,1.32c-0.48,0.65-1,1.26-1.58,1.83c-1.03-0.53-1.95-1.27-2.75-2.21s-1.4-1.96-1.78-3.07
			c-1.8,1.26-3.32,2.49-4.59,3.7c-1.26,1.2-2.34,2.54-3.24,4.01s-1.66,3.16-2.29,5.07s-1.23,4.18-1.81,6.82
			c-0.34-0.04-0.76-0.16-1.23-0.37c-0.48-0.21-0.96-0.47-1.43-0.77c-0.48-0.31-0.91-0.63-1.29-0.97
			C102.55,105.23,102.3,104.91,102.18,104.6z"/>
		<path class="st0" d="M147.17,82.02c-0.15,2.37-0.57,4.4-1.26,6.1s-1.67,3.19-2.95,4.47s-2.84,2.44-4.67,3.47
			c-1.83,1.03-3.97,2.03-6.42,2.98c0,0.23-0.01,0.47-0.03,0.72s-0.03,0.51-0.03,0.77c0,0.5,0.04,1.01,0.12,1.55
			c0.08,0.54,0.21,1.03,0.4,1.49s0.46,0.83,0.8,1.12s0.78,0.43,1.32,0.43c1.03,0,2.04-0.23,3.04-0.69c0.99-0.46,1.94-1.02,2.84-1.69
			s1.74-1.39,2.52-2.18c0.78-0.78,1.48-1.5,2.09-2.15c0.38,0.34,0.71,0.67,0.97,0.97c-1.72,2.29-3.6,4.19-5.65,5.7
			c-2.04,1.51-3.98,2.47-5.82,2.89c-2.64-0.31-4.69-1.27-6.16-2.89c-1.47-1.62-2.21-3.58-2.21-5.87c0-1.57,0.22-3.16,0.66-4.79
			c0.44-1.62,1.05-3.19,1.83-4.7s1.7-2.93,2.75-4.27s2.18-2.5,3.38-3.5c1.2-0.99,2.45-1.78,3.73-2.35s2.55-0.86,3.81-0.86
			C144,78.98,145.65,80.07,147.17,82.02z M143.22,83.91c-1.03,0.15-2.1,0.57-3.21,1.26s-2.15,1.6-3.12,2.75s-1.86,2.48-2.67,4.01
			c-0.8,1.53-1.43,3.17-1.89,4.93c3.06-1.53,5.6-3.41,7.62-5.64C141.98,88.98,143.07,86.55,143.22,83.91z"/>
		<path class="st0" d="M149.75,102.08c0-1.68,0.4-4.04,1.2-7.08c0.8-3.04,1.93-6.58,3.38-10.63c2.37-6.46,4.59-11.84,6.68-16.13
			c2.08-4.3,4.12-7.65,6.1-10.06c0.46,0.08,1.02,0.27,1.69,0.57c0.67,0.31,1.33,0.64,1.98,1c0.65,0.36,1.23,0.74,1.75,1.12
			s0.85,0.69,1,0.92c-2.98,3.52-5.6,7.3-7.85,11.35c-2.26,4.05-4.32,8.69-6.19,13.93c-1.6,4.51-2.83,8.57-3.67,12.18
			c-0.84,3.61-1.26,6.62-1.26,9.03c0,0.65,0,1.05,0,1.2c0,0.15,0.02,0.31,0.06,0.46c-0.54-0.08-0.99-0.21-1.38-0.4
			c-0.38-0.19-0.63-0.42-0.74-0.69c-0.08-0.19-0.29-0.47-0.63-0.83s-0.65-0.64-0.92-0.83c-0.34-0.23-0.63-0.83-0.86-1.81
			C149.87,104.4,149.75,103.3,149.75,102.08z"/>
	</g>
	<g id="_x26__1_">
		<g>
			
				<radialGradient id="SVGID_1_" cx="172.635" cy="72.4397" r="50.7983" gradientTransform="matrix(1 0 0 -1 0 111.0297)" gradientUnits="userSpaceOnUse">
				<stop  offset="0" style="stop-color:#FCF5AF"/>
				<stop  offset="0.1292" style="stop-color:#F5E497"/>
				<stop  offset="0.1753" style="stop-color:#F2DC8E"/>
				<stop  offset="0.2567" style="stop-color:#F2D46C"/>
				<stop  offset="0.364" style="stop-color:#F1CB42"/>
				<stop  offset="0.4628" style="stop-color:#F1C517"/>
				<stop  offset="0.5489" style="stop-color:#F0C100"/>
				<stop  offset="0.6128" style="stop-color:#F0BF00"/>
				<stop  offset="1" style="stop-color:#C9961A"/>
			</radialGradient>
			<path class="st1" d="M192.41,63.26l-16.97,13.92c3.58-7.1,5.37-12.66,5.37-16.66c0-2.39-1.15-4.48-3.45-6.27
				c-2.3-1.82-5.55-3.87-9.76-6.13c-0.09,0.09-1.18,0.91-3.27,2.46c-3.16,2.3-5.15,3.85-5.96,4.66c-0.87,0.92-2.4,2.55-4.61,4.88
				c-2.93,3.1-5.13,5.24-6.63,6.4c-1.58,1.22-3.75,2.36-6.49,3.4c-2.69,1.01-5.45,1.52-8.28,1.52c-5.01,0-9.66-1.55-13.92-4.66
				c-4.27-3.1-6.4-7.25-6.4-12.45c0-3.91,1.57-7.84,4.7-11.78l16.7-5.95c-5.67,5.4-8.51,10.28-8.51,14.64c0,2.69,1.1,4.91,3.31,6.67
				c2.21,1.79,5.07,2.69,8.6,2.69c4.3,0,8.75-1.3,13.34-3.9c4.63-2.54,9.46-5.94,14.51-10.21c-3.1-1.52-6.7-3.37-10.79-5.55
				c-4.48-2.3-9.6-4.48-15.36-6.54c-4.9-1.79-8.16-3.66-9.81-5.6c-1.61-1.94-2.42-4.27-2.42-6.99c0-5.94,2.98-11.06,8.95-15.36
				S147.86,0,155.14,0c4.66,0,8.49,1.31,11.51,3.94c3.01,2.66,4.52,5.76,4.52,9.31c0,2.39-0.84,4.91-2.51,7.57
				c-1.64,2.63-4.85,5.45-9.63,8.46l19.12,9.99c3.94-2.81,7.85-5.3,11.73-7.48c3.88-2.18,7.57-3.99,11.08-5.44
				c3.51-1.45,6.88-2.54,10.12-3.27c3.24-0.73,6.29-1.1,9.16-1.1c3.73,0,6.82,0.78,9.27,2.33c2.48,1.58,3.72,3.7,3.72,6.36
				c0,3.11-2.01,5.96-6.04,8.55c-3.49-0.06-6.63-0.33-9.4-0.81c2.48-3.46,4.51-6.91,6.09-10.34l-4.03-0.18
				c-3.67,0-7.91,0.55-12.72,1.66c-4.9,1.1-9.16,2.4-12.81,3.9c-3.61,1.46-8.36,3.75-14.24,6.85c5.13,2.87,8.7,5.6,10.7,8.19
				c2,2.57,3,5.36,3,8.37C193.8,58.75,193.34,60.87,192.41,63.26z M145.53,22.47l11.55,5.82c1.97-2.51,2.96-5.28,2.96-8.33
				c0-3.67-1.48-6.82-4.43-9.45c-2.99-2.63-7.87-4.03-14.64-4.21c-2.81,2.54-4.21,4.99-4.21,7.34c0,1.4,0.55,2.75,1.66,4.03
				C139.52,19.05,141.89,20.65,145.53,22.47z"/>
		</g>
	</g>
	<g id="Bart_1_">
		<path class="st0" d="M37.53,20.11c0,2.37-0.65,4.48-1.95,6.33c-1.3,1.85-3.07,3.39-5.33,4.61c1.45,0.99,2.61,2.21,3.47,3.64
			c0.86,1.43,1.29,3.01,1.29,4.73c0,2.06-0.62,4.1-1.86,6.1c-1.24,2.01-2.89,3.78-4.96,5.33c-2.06,1.55-4.41,2.8-7.05,3.75
			s-5.33,1.43-8.08,1.43c-2.98,0-5.59-0.56-7.82-1.69C3,53.21,1.26,51.62,0,49.55c0.38-1.15,0.89-2.57,1.52-4.27
			c0.63-1.7,1.33-3.5,2.09-5.39s1.54-3.77,2.32-5.64c0.78-1.87,1.52-3.55,2.21-5.04c1.45-3.25,2.75-5.94,3.9-8.08
			c1.15-2.14,2.2-3.84,3.15-5.1c-2.1,0.65-4.01,1.39-5.73,2.21c-1.72,0.82-2.98,1.61-3.78,2.38c-0.34-0.23-0.7-0.57-1.06-1.03
			s-0.71-0.96-1.03-1.52c-0.32-0.55-0.59-1.12-0.8-1.69s-0.33-1.09-0.37-1.55c0.99-0.69,2.28-1.35,3.87-1.98
			c1.58-0.63,3.31-1.18,5.19-1.63c1.87-0.46,3.79-0.82,5.76-1.09s3.85-0.4,5.65-0.4c4.58,0,8.18,0.92,10.77,2.75
			C36.23,14.32,37.53,16.86,37.53,20.11z M15.7,33.81c-0.73-0.34-1.4-0.86-2.01-1.55c-0.88,1.95-1.71,3.86-2.49,5.73
			c-0.78,1.87-1.48,3.61-2.09,5.22c-0.61,1.6-1.11,3-1.49,4.18s-0.59,2.04-0.63,2.58c0.53,0.31,1.17,0.54,1.92,0.69
			s1.67,0.23,2.78,0.23c2.6,0,5.08-0.36,7.45-1.09s4.45-1.71,6.25-2.95c1.79-1.24,3.23-2.67,4.3-4.27c1.07-1.6,1.6-3.29,1.6-5.04
			c0-2.52-1.09-4.34-3.26-5.44c-2.98,1.22-6.34,1.83-10.09,1.83c-0.54,0-0.95,0-1.23,0C16.41,33.92,16.08,33.88,15.7,33.81z
			 M26.81,13.92c-0.8,0-1.65,0.05-2.55,0.14c-0.9,0.1-1.84,0.24-2.84,0.43c0.15,0.15,0.28,0.32,0.37,0.49
			c0.1,0.17,0.18,0.35,0.26,0.54c-0.34,0.46-0.76,1.13-1.26,2.01s-1.05,1.9-1.66,3.07s-1.25,2.46-1.92,3.87s-1.35,2.87-2.03,4.36
			c0.65-0.15,1.44-0.28,2.38-0.37c0.94-0.1,1.86-0.14,2.78-0.14c0.5,0,0.98,0.02,1.46,0.06c0.48,0.04,0.95,0.1,1.41,0.17
			c1.83-0.31,3.49-0.75,4.96-1.35c1.47-0.59,2.74-1.28,3.81-2.06c1.07-0.78,1.89-1.65,2.47-2.61c0.57-0.95,0.86-1.97,0.86-3.04
			c0-1.83-0.73-3.22-2.18-4.15C31.67,14.39,29.57,13.92,26.81,13.92z"/>
		<path class="st0" d="M58.8,28.53c0.38,0,0.83,0.07,1.35,0.2s0.98,0.31,1.4,0.52s0.77,0.43,1.06,0.66s0.43,0.44,0.43,0.63
			c-0.76,1.6-1.47,3.22-2.12,4.84s-1.2,3.18-1.66,4.67c-0.46,1.49-0.81,2.89-1.06,4.18c-0.25,1.3-0.37,2.43-0.37,3.38
			c0,1.07,0.11,1.96,0.34,2.66c0.23,0.71,0.61,1.21,1.15,1.52c-0.46,0.31-1.05,0.55-1.78,0.74s-1.38,0.29-1.95,0.29
			c-2.06,0-3.1-1.41-3.1-4.24c0-2.18,0.73-5.16,2.18-8.94c-0.76,1.75-1.64,3.4-2.64,4.94c-0.99,1.54-2.01,2.9-3.04,4.08
			s-2.07,2.14-3.12,2.88c-1.05,0.74-2.02,1.19-2.89,1.34c-1.41,0-2.56-0.64-3.44-1.93c-0.88-1.29-1.32-2.93-1.32-4.92
			c0-2.15,0.46-4.41,1.38-6.79s2.09-4.58,3.52-6.62c1.43-2.03,2.99-3.73,4.67-5.09s3.3-2.04,4.87-2.04
			c0.38,0.11,0.81,0.34,1.29,0.69c0.48,0.34,0.94,0.74,1.38,1.2c0.44,0.46,0.81,0.92,1.12,1.4c0.31,0.48,0.48,0.89,0.52,1.23
			c-1.53,0.23-3.1,0.97-4.73,2.23c-1.62,1.26-3.09,2.77-4.41,4.55c-1.32,1.77-2.4,3.67-3.24,5.69c-0.84,2.02-1.26,3.91-1.26,5.66
			c0,0.72,0.27,1.18,0.8,1.37c1.11-0.23,2.39-1.17,3.84-2.84c1.45-1.66,3.21-4.23,5.27-7.71c0.38-0.69,0.81-1.45,1.29-2.29
			s0.96-1.72,1.46-2.64s0.98-1.84,1.46-2.78C57.93,30.32,58.38,29.41,58.8,28.53z"/>
		<path class="st0" d="M64.58,50.54c0.19-1.11,0.52-2.57,1-4.38s1.04-3.74,1.69-5.79c0.65-2.04,1.34-4.1,2.06-6.16
			c0.73-2.06,1.43-3.92,2.12-5.56c0.5-1.18,0.94-2.11,1.32-2.78s0.8-1.23,1.26-1.69c0.54,0.08,1.09,0.21,1.66,0.4
			s1.13,0.42,1.66,0.69s1.01,0.54,1.43,0.83c0.42,0.29,0.74,0.56,0.97,0.83c-1.03,1.22-1.94,2.62-2.72,4.18
			c-0.78,1.57-1.58,3.57-2.38,6.02c2.06-1.83,3.89-3.59,5.47-5.27c1.59-1.68,3.07-3.55,4.44-5.62c0.23-0.19,0.63-0.29,1.2-0.29
			c0.54,0,1.05,0.09,1.55,0.26s0.84,0.41,1.03,0.72c-0.69,1.83-1.03,3.65-1.03,5.44c0,1.68,0.25,2.94,0.74,3.78
			c-0.04,0.23-0.3,0.67-0.77,1.32c-0.48,0.65-1,1.26-1.58,1.83c-1.03-0.53-1.95-1.27-2.75-2.21s-1.4-1.96-1.78-3.07
			c-1.8,1.26-3.32,2.49-4.59,3.7c-1.26,1.2-2.34,2.54-3.24,4.01c-0.9,1.47-1.66,3.16-2.29,5.07c-0.63,1.91-1.23,4.18-1.81,6.82
			c-0.34-0.04-0.76-0.16-1.23-0.37c-0.48-0.21-0.96-0.47-1.43-0.77c-0.48-0.31-0.91-0.63-1.29-0.97
			C64.95,51.17,64.7,50.85,64.58,50.54z"/>
		<path class="st0" d="M92.44,29.74c-0.19-0.23-0.36-0.72-0.51-1.46c-0.15-0.75-0.23-1.38-0.23-1.92c0.99,0.15,1.95,0.23,2.87,0.23
			c0.92,0,1.76,0,2.52,0c0.57-1.13,1.19-2.26,1.86-3.37c0.67-1.11,1.32-2.13,1.95-3.06c0.63-0.92,1.22-1.71,1.78-2.35
			c0.55-0.64,0.98-1.06,1.29-1.25c0.38,0,0.87,0.07,1.46,0.2s1.19,0.31,1.81,0.52c0.61,0.21,1.16,0.43,1.66,0.66
			s0.84,0.46,1.03,0.69c-1.15,1.44-2.13,2.78-2.95,4.01s-1.71,2.65-2.66,4.24c0.76,0,1.54,0,2.32,0s1.58-0.06,2.38-0.17
			c0.19,0.19,0.34,0.43,0.46,0.72c0.11,0.29,0.17,0.58,0.17,0.89c-1.87,0.73-4.15,1.09-6.82,1.09c-0.96,1.84-1.81,3.67-2.55,5.49
			c-0.75,1.82-1.38,3.57-1.89,5.26c-0.52,1.69-0.92,3.28-1.2,4.77c-0.29,1.49-0.43,2.83-0.43,4.02c0,1.69,0.63,2.62,1.89,2.82
			c1.15-0.15,2.24-0.44,3.27-0.86c1.03-0.42,1.95-0.95,2.75-1.6c0.23,0.34,0.36,0.63,0.4,0.86c-0.23,0.34-0.62,0.74-1.18,1.2
			c-0.55,0.46-1.16,0.9-1.8,1.34c-0.65,0.43-1.28,0.81-1.89,1.11c-0.61,0.3-1.07,0.47-1.38,0.51c-0.96,0-1.91-0.19-2.87-0.57
			s-1.83-0.86-2.61-1.43s-1.42-1.22-1.92-1.92c-0.5-0.71-0.75-1.41-0.75-2.09c0-0.92,0.12-2.07,0.37-3.47s0.6-2.92,1.06-4.56
			c0.46-1.65,0.99-3.37,1.6-5.16c0.61-1.8,1.28-3.58,2.01-5.34h-3.27V29.74z"/>
	</g>
</g>
</svg>
