<?xml version="1.0" encoding="utf-8"?>
<!-- Generator: Adobe Illustrator 24.0.2, SVG Export Plug-In . SVG Version: 6.00 Build 0)  -->
<svg version="1.1" id="Laag_1" xmlns="http://www.w3.org/2000/svg" xmlns:xlink="http://www.w3.org/1999/xlink" x="0px" y="0px"
	 viewBox="0 0 218.27 189.25" style="enable-background:new 0 0 218.27 189.25;" xml:space="preserve">
<style type="text/css">
	.st0{fill:#801624;}
	.st1{fill:#FFFFFF;}
</style>
<g>
	<path class="st0" d="M101.64,53.26c0.85-2.1,1.77-4.47,2.75-6.81c3.24-7.78,6.8-15.41,11.56-22.4
		c5.08-7.46,11.26-13.77,19.18-18.27c5.87-3.33,12.16-5.29,18.88-5.7c18.42-1.13,36.08,9.19,43.51,25c3.9,8.29,4.35,16.83,1.4,25.53
		c-0.02,0.06-0.09,0.11-0.23,0.27c-0.07-1.33-0.13-2.56-0.19-3.79c-0.47-8.9-2.6-17.36-7.13-25.09
		c-4.65-7.95-11.02-13.94-20.02-16.7c-8.16-2.5-16.07-1.41-23.76,1.97c-7.59,3.33-13.92,8.42-19.51,14.42
		c-10.8,11.57-18.97,24.82-24.68,39.58c-0.43,1.12-0.8,2.26-1.21,3.39c-0.39,1.08-1.03,1.37-2.26,1.02
		c-0.91-0.25-1.21-0.74-1.07-1.77c0.6-4.36-0.19-8.59-1.66-12.67c-5.05-13.97-14.12-24.46-27.67-30.67
		c-11.69-5.35-23.35-4.47-34.81,1.15c-8.99,4.41-14.87,11.57-18.62,20.65c-2.74,6.62-3.95,13.54-3.79,20.71
		c0.32,14.16,5.24,26.72,13.55,38c4.11,5.58,9.46,9.95,15.1,13.9c7.26,5.09,14.66,9.98,21.98,14.98
		c7.51,5.13,14.85,10.48,21.29,16.97c5.79,5.84,10.54,12.38,13.61,20.36c0.23-0.79,0.38-1.37,0.56-1.93
		c2.67-8.42,7.56-15.23,14.83-20.29c0.92-0.64,1.43-1.35,1.73-2.46c1.48-5.31,4.87-9.33,9.03-12.74c6.9-5.65,14.82-9.15,23.48-11.17
		c7.55-1.75,12.06-3.84,16.82-7.54c-0.32-0.25-0.59-0.54-0.92-0.72c-3.16-1.78-4.09-4.86-4.75-8.1c-0.51-2.49,0.11-4.69,1.74-6.63
		c0.35-0.41,0.61-0.91,0.86-1.39c0.4-0.78,0.96-0.96,1.59-0.35c0.38,0.37,0.65,0.87,0.91,1.34c0.74,1.33,1.45,2.68,2.27,4.2
		c1.88-1.59,3.62-3.02,5.31-4.52c0.97-0.86,2.3-0.64,2.5,0.66c0.53,3.33,1.85,6.67,0.19,10.05c-0.11,0.22-0.11,0.49-0.18,0.8
		c1.7,0.05,3.35,0.08,5,0.17c0.47,0.03,0.93,0.23,1.39,0.51c-3.06,2.58-6.24,4.65-10.34,4.53c-1.27-0.04-2.54-0.22-3.82-0.27
		c-0.36-0.02-0.83,0.07-1.09,0.3c-4.83,4.09-10.52,6.28-16.61,7.7c-5.19,1.21-10.24,2.86-14.95,5.42c-0.44,0.24-0.89,0.48-1.28,0.85
		c0.23-0.06,0.46-0.11,0.68-0.19c7.06-2.85,14.37-4.71,21.95-5.5c4.61-0.48,9.23-0.81,13.83-1.33c9.75-1.11,17.88-5.5,24.71-12.43
		c1.68-1.71,2.79-3.81,3.69-6.22c-1.13,0.21-2.13,0.47-3.14,0.56c-5.42,0.47-9.84-1.61-13.47-5.49c-3.11-3.32-4.6-7.31-4.5-11.86
		c0.05-2.42,0.05-4.81-0.67-7.15c-0.23-0.75,0.08-0.99,0.77-1.05c1.18-0.09,2.08,0.43,2.98,1.13c2.54,1.96,5.13,3.85,7.7,5.76
		c0.2,0.15,0.44,0.24,0.76,0.41c0.86-3.59,2.99-6.46,4.87-9.47c1.35-2.17,2.71-4.34,3.07-6.94c0.14-1.03,0.08-2.08,0.12-3.22
		c0.74-0.37,1.52-0.25,1.91,0.64c2.01,4.57,4.04,9.13,5.9,13.76c1.1,2.73,0.56,5.62,0.29,8.45c-0.11,1.12-0.29,2.23-0.44,3.35
		c2.5-1.65,4.96-3.25,7.4-4.89c1.99-1.34,3.94-2.76,5.94-4.09c0.33-0.22,0.92-0.28,1.28-0.14c0.28,0.11,0.56,0.67,0.53,1.01
		c-0.18,2.1-0.29,4.23-0.74,6.29c-0.57,2.63-2.06,4.87-4.12,6.56c-2.11,1.73-4.35,3.32-6.69,4.73c-2.54,1.53-5.38,1.65-8.32,0.88
		c-0.22,1.09-0.37,2.12-0.63,3.13c-1.12,4.39-3.87,7.71-7.1,10.69c-4.65,4.28-10.32,6.45-16.45,7.28c-6.2,0.84-12.46,1.27-18.7,1.87
		c-9.94,0.96-19.48,3.22-27.98,8.76c-3.79,2.47-7.24,5.31-9.92,9c-0.54,0.74-0.94,1.58-1.4,2.37c0.1,0.1,0.21,0.19,0.31,0.29
		c0.44-0.26,0.9-0.51,1.33-0.78c4.27-2.67,8.82-4.66,13.82-5.52c4.04-0.69,8.07-0.53,12.11-0.08c4.16,0.46,8.32,1.22,12.52,0.28
		c0.24-0.05,0.48-0.15,0.77-0.24c-0.32-2.63-0.55-5.23,0.78-7.69c1.42-2.63,4.13-3.6,6.36-5.17c1.36,0.98,1.44,2.03,0.35,4.9
		c3.16-0.09,6.28-0.17,9.41-0.26c0.36-0.01,0.72-0.11,1.08-0.18c1.19-0.21,1.83,0.32,1.87,1.54c0,0.07,0.03,0.16,0,0.22
		c-0.9,2.02-1.57,4.18-2.76,6c-1.28,1.96-3.5,2.62-5.82,2.79c-0.3,0.02-0.6,0.1-0.87,0.25c1.62,0.05,3.27,0.3,4.86,0.09
		c1.44-0.19,2.06,1.01,1.54,2.03c-0.57,1.1-1.08,2.24-1.78,3.25c-1.51,2.18-3.78,2.93-6.49,2.05c-1.86-0.61-3.66-1.42-5.44-2.25
		c-2.04-0.95-2.86-2.7-2.88-4.89c0-0.47-0.03-0.94-0.04-1.51c-1.31,0.1-2.56,0.28-3.81,0.29c-3.03,0.02-6.06,0.02-9.09-0.06
		c-4.38-0.12-8.77-0.5-13.07,0.64c-8.47,2.25-15.53,6.78-21.22,13.4c-2.79,3.24-5.28,6.7-7.04,10.64
		c-1.76,3.97-2.39,8.17-2.62,12.44c-0.23,4.12-0.35,8.25-0.51,12.37c-0.05,1.3-1.74,2.44-2.9,1.9c-0.22-0.1-0.4-0.51-0.43-0.79
		c-0.24-1.8-0.45-3.61-0.65-5.42c-0.73-6.6-3.3-12.48-6.84-18.02c-4.76-7.46-11.02-13.49-17.93-18.9
		c-9-7.06-18.67-13.14-28.28-19.32c-6.69-4.3-13.42-8.56-19.39-13.87C15.23,105.46,8.66,96.9,4.44,86.63
		c-3.58-8.72-5.08-17.8-4.18-27.17c1.18-12.3,5.61-23.3,14.21-32.31c6.04-6.32,13.72-9.91,22.1-12.05
		c6.89-1.76,13.9-2.29,20.95-1.33c17.84,2.43,31.04,11.61,39.23,27.68C98.71,45.27,100.06,49.38,101.64,53.26z M196.75,68.12
		c-2.07,3.85-4.22,7.74-6.24,11.7c-0.91,1.79-1.44,3.71-1.16,5.8c0.41,3.06,1.57,5.85,3.16,8.42c1.05,1.69,2.34,3.31,4.58,3.8
		C203.27,87.85,203.33,77.95,196.75,68.12z M197.06,98.81c-0.84-0.29-1.68-0.45-2.39-0.85c-0.72-0.4-1.35-0.98-1.96-1.56
		c-2.89-2.72-4.59-6.07-5.21-9.98c-0.17-1.06,0.08-2.42-0.5-3.12c-0.63-0.77-2.02-0.88-3.03-1.37c-1.48-0.72-2.91-1.53-4.4-2.32
		c0.06,1.85,0.16,3.66,0.18,5.47c0.1,6.96,3.93,11.36,9.89,14.19C192.11,100.46,194.64,100.3,197.06,98.81z M215.55,82.21
		c-3.93,2.53-8.24,4.34-11.46,7.79c-2.31,2.47-3.94,5.37-5.27,8.45c1.26,0.65,1.87,0.63,3.44,0.34c2.7-0.49,4.56-2.3,6.56-3.94
		C212.79,91.61,215.1,87.48,215.55,82.21z M174.02,131.07c-1.23-0.04-2.32-0.08-3.4-0.1c-1.78-0.03-3.57-0.11-5.35-0.06
		c-3.27,0.08-5.09,1.43-5.95,4.29c-0.41,1.38-0.14,1.83,1.25,2.13c2.91,0.62,5.72,0.24,8.43-0.87
		C171.47,135.44,173.27,133.74,174.02,131.07z M158.81,137.96c-0.52,2.76-0.24,3.36,2.06,4.45c0.79,0.37,1.58,0.75,2.41,1.03
		c1.42,0.47,2.87,0.89,4.38,0.44c1.87-0.55,3.54-1.39,4.54-3.35C167.52,140.38,162.95,140.53,158.81,137.96z M171.66,97.82
		c-4.3,2.63-6.55,6.2-6.07,11.26c2.2-0.72,4.31-1.49,5.25-3.88C171.77,102.83,171.7,100.37,171.66,97.82z M164.03,109.24
		c-1.16-2.55-1.62-5.43,1.35-9.28c-0.9-1.05-1.78-2.08-2.8-3.27c-0.04,0.08-0.07,0.25-0.16,0.35c-1.57,1.74-1.67,3.74-1.23,5.93
		C161.65,105.31,162.2,107.57,164.03,109.24z M177.27,107.85c-0.98-0.12-1.67-0.17-2.35-0.29c-1.15-0.21-2.18-0.14-3.15,0.69
		c-0.49,0.42-1.23,0.58-1.88,0.81c-1.01,0.35-2.03,0.64-3.04,0.96C170.56,110.75,173.97,110.18,177.27,107.85z M163.41,126.57
		c-1.27,1.02-2.41,1.94-3.55,2.86c0.09,0.11,0.18,0.22,0.26,0.32C161.51,129.14,163.39,129.13,163.41,126.57z"/>
	<g>
		<path class="st1" d="M27.21,89.7c-0.06-0.5-0.11-1.05-0.14-1.65s-0.05-1.15-0.05-1.67c0-0.82,0.03-1.61,0.08-2.37
			s0.12-1.55,0.2-2.38c0.08-0.83,0.17-1.73,0.27-2.71c0.1-0.98,0.18-2.1,0.26-3.38c0.16,0,0.39,0.05,0.69,0.14s0.6,0.2,0.91,0.32
			s0.58,0.25,0.81,0.38s0.37,0.24,0.41,0.32c-0.21,0.48-0.4,1.11-0.56,1.89c-0.17,0.78-0.3,1.63-0.41,2.55
			c-0.11,0.92-0.2,1.87-0.26,2.84s-0.09,1.88-0.09,2.73c0,0.39,0.01,0.78,0.02,1.16s0.03,0.73,0.05,1.05
			c0.26-0.38,0.56-0.92,0.89-1.63c0.34-0.71,0.69-1.49,1.05-2.37c0.36-0.87,0.72-1.78,1.09-2.74c0.36-0.95,0.7-1.86,1-2.73
			c0.31-0.87,0.57-1.64,0.78-2.34c0.21-0.69,0.37-1.22,0.45-1.57c0.16,0,0.4,0.05,0.71,0.14c0.31,0.09,0.62,0.2,0.92,0.32
			s0.57,0.25,0.8,0.38s0.36,0.24,0.39,0.32c-0.21,0.48-0.4,1.11-0.56,1.89c-0.17,0.78-0.3,1.63-0.41,2.55
			c-0.11,0.92-0.2,1.87-0.26,2.84s-0.09,1.88-0.09,2.73c0,0.36,0,0.71,0.01,1.06s0.02,0.67,0.05,0.95c0.39-1.02,0.8-2.03,1.23-3.03
			c0.42-1,0.84-1.96,1.26-2.87s0.82-1.77,1.22-2.56s0.76-1.5,1.09-2.12s0.62-1.13,0.87-1.54c0.24-0.4,0.44-0.67,0.57-0.81
			c0.28,0.04,0.57,0.14,0.88,0.3c0.3,0.17,0.57,0.38,0.8,0.64c-0.36,0.28-0.76,0.75-1.22,1.39c-0.45,0.64-0.92,1.39-1.4,2.24
			c-0.48,0.85-0.96,1.75-1.45,2.71c-0.48,0.96-0.94,1.89-1.35,2.8c-0.42,0.91-0.79,1.76-1.11,2.54c-0.32,0.79-0.57,1.42-0.75,1.9
			c-0.32,0.15-0.63,0.22-0.94,0.22c-0.39-0.05-0.76-0.15-1.11-0.29c-0.35-0.15-0.6-0.33-0.75-0.53c-0.04-0.2-0.07-0.43-0.09-0.69
			s-0.04-0.52-0.05-0.78c-0.01-0.26-0.02-0.51-0.03-0.75s-0.01-0.44-0.01-0.62c0-1.09,0.04-2.21,0.13-3.34
			c0.09-1.14,0.19-2.35,0.31-3.66c-0.28,0.83-0.6,1.73-0.94,2.69s-0.7,1.91-1.08,2.85c-0.37,0.94-0.76,1.84-1.14,2.69
			c-0.39,0.85-0.76,1.59-1.13,2.22c-0.32,0.15-0.63,0.22-0.94,0.22c-0.39-0.05-0.76-0.15-1.12-0.29
			C27.6,90.09,27.35,89.91,27.21,89.7z"/>
		<path class="st1" d="M41.74,87.9c0-0.11,0.01-0.25,0.03-0.41c0.02-0.17,0.05-0.39,0.1-0.66c0.05-0.28,0.11-0.61,0.19-1
			s0.18-0.87,0.3-1.42c0.02-0.12,0.08-0.32,0.17-0.59s0.2-0.56,0.34-0.86s0.31-0.59,0.52-0.87c0.2-0.28,0.44-0.49,0.73-0.63
			c0.21,0.05,0.48,0.17,0.83,0.38c0.34,0.2,0.64,0.48,0.88,0.84c-0.28,0.32-0.52,0.64-0.71,0.96c-0.19,0.32-0.36,0.65-0.52,0.99
			c-0.15,0.34-0.29,0.7-0.42,1.07s-0.27,0.76-0.43,1.16c-0.13,0.34-0.26,0.7-0.37,1.06s-0.17,0.68-0.18,0.95
			c0,0.22,0,0.38-0.01,0.47s-0.04,0.14-0.1,0.14c-0.05,0-0.15-0.03-0.29-0.09c-0.15-0.06-0.3-0.16-0.45-0.29s-0.29-0.29-0.41-0.49
			C41.8,88.4,41.74,88.17,41.74,87.9z M45.26,79.9c0-0.07,0.02-0.18,0.05-0.33c-0.06-0.06-0.11-0.15-0.16-0.28
			c-0.04-0.12-0.06-0.23-0.06-0.33c0-0.11,0.01-0.26,0.05-0.45c0.03-0.19,0.07-0.4,0.12-0.62c0.05-0.22,0.11-0.45,0.18-0.69
			c0.07-0.24,0.15-0.46,0.22-0.65c0.15,0,0.33,0.04,0.54,0.12c0.21,0.08,0.43,0.18,0.65,0.31s0.42,0.27,0.61,0.42
			c0.18,0.15,0.32,0.3,0.42,0.43c-0.14,0.14-0.31,0.32-0.53,0.56s-0.44,0.49-0.64,0.76c-0.21,0.26-0.4,0.51-0.57,0.75
			c-0.17,0.23-0.28,0.4-0.33,0.5c-0.15-0.02-0.28-0.09-0.39-0.19C45.31,80.1,45.26,80,45.26,79.9z"/>
		<path class="st1" d="M46.47,85.69c0.45-1.82,0.9-3.15,1.34-3.99s0.89-1.26,1.37-1.26c0.34,0,0.76,0.17,1.23,0.5
			c-0.39,0.7-0.7,1.28-0.91,1.74s-0.37,0.88-0.47,1.26c-0.21,0.74-0.43,1.5-0.66,2.29c-0.23,0.79-0.46,1.55-0.69,2.27
			s-0.44,1.38-0.63,1.96s-0.34,1.03-0.45,1.34c-0.27,0.72-0.54,1.34-0.8,1.84c-0.26,0.5-0.54,0.91-0.82,1.23
			c-0.28,0.32-0.58,0.55-0.89,0.7c-0.31,0.15-0.65,0.22-1.02,0.22c-0.27,0-0.54-0.03-0.8-0.08c-0.26-0.05-0.51-0.13-0.75-0.22
			c-0.23-0.09-0.44-0.21-0.63-0.34c-0.18-0.13-0.33-0.28-0.44-0.42c0.01-0.09,0.05-0.17,0.12-0.25c0.07-0.08,0.13-0.13,0.19-0.14
			c0.21,0.22,0.43,0.38,0.65,0.48c0.23,0.1,0.5,0.15,0.82,0.15c0.39,0,0.74-0.12,1.04-0.35c0.3-0.23,0.61-0.68,0.91-1.35
			c0.31-0.67,0.64-1.61,0.99-2.82C45.54,89.24,45.97,87.65,46.47,85.69z M49.47,78.98c0-0.06,0.02-0.17,0.05-0.31
			c-0.15-0.15-0.22-0.36-0.22-0.63c0-0.11,0.01-0.26,0.05-0.46c0.03-0.2,0.07-0.41,0.13-0.64c0.05-0.23,0.12-0.46,0.18-0.69
			c0.07-0.23,0.14-0.44,0.21-0.61c0.15,0,0.33,0.04,0.54,0.12c0.21,0.08,0.43,0.18,0.65,0.31s0.42,0.27,0.61,0.42
			c0.18,0.15,0.32,0.3,0.42,0.43c-0.15,0.13-0.33,0.33-0.55,0.57c-0.22,0.25-0.44,0.5-0.64,0.76c-0.21,0.26-0.4,0.51-0.57,0.74
			c-0.17,0.23-0.28,0.39-0.31,0.49c-0.15-0.02-0.28-0.09-0.39-0.19C49.53,79.2,49.47,79.09,49.47,78.98z"/>
		<path class="st1" d="M51.08,94.62c0-0.07,0.02-0.14,0.07-0.2s0.1-0.12,0.17-0.18c0.15,0.13,0.27,0.24,0.38,0.31
			c0.1,0.07,0.2,0.13,0.29,0.18s0.19,0.08,0.29,0.09c0.1,0.01,0.21,0.02,0.35,0.02c0.64,0,1.25-0.17,1.82-0.51
			c0.58-0.34,1.12-0.83,1.63-1.46c0.51-0.64,0.97-1.42,1.39-2.34c0.42-0.92,0.79-1.96,1.1-3.13c-0.15,0.15-0.33,0.31-0.54,0.49
			c-0.21,0.18-0.44,0.35-0.67,0.51s-0.46,0.31-0.69,0.44s-0.42,0.23-0.58,0.29c-0.21-0.04-0.4-0.13-0.58-0.27
			c-0.18-0.14-0.33-0.32-0.47-0.53s-0.24-0.44-0.31-0.71s-0.11-0.54-0.11-0.84c0-0.48,0.09-0.97,0.27-1.47
			c0.18-0.5,0.41-1,0.71-1.48c0.29-0.48,0.64-0.94,1.04-1.37s0.82-0.8,1.27-1.12s0.9-0.57,1.36-0.76s0.91-0.28,1.35-0.28
			c0.43,0,0.75,0.09,0.97,0.27c0.21,0.18,0.37,0.48,0.47,0.91c-0.13-0.07-0.31-0.11-0.52-0.11c-0.29,0-0.64,0.12-1.02,0.35
			s-0.78,0.54-1.18,0.91s-0.79,0.8-1.19,1.29c-0.39,0.48-0.74,0.98-1.04,1.48c-0.3,0.5-0.55,1-0.74,1.47
			c-0.19,0.48-0.29,0.91-0.29,1.29c0,0.09,0.01,0.14,0.02,0.16c0.01,0.02,0.03,0.03,0.05,0.03c0.11,0,0.26-0.06,0.45-0.18
			s0.41-0.28,0.65-0.47c0.24-0.19,0.49-0.41,0.75-0.66s0.5-0.51,0.74-0.76c0.53-0.59,1.01-1.25,1.45-1.98s0.78-1.44,1.04-2.13
			c0.33,0.02,0.63,0.08,0.88,0.17s0.44,0.18,0.53,0.28c-0.42,0.96-0.75,1.76-1,2.41s-0.47,1.23-0.65,1.73
			c-0.33,0.88-0.64,1.69-0.93,2.42s-0.58,1.41-0.88,2.03s-0.63,1.2-0.98,1.73c-0.35,0.53-0.75,1.05-1.19,1.54
			c-0.21,0.23-0.45,0.44-0.71,0.62s-0.53,0.33-0.81,0.45c-0.28,0.12-0.55,0.21-0.81,0.28c-0.26,0.06-0.51,0.09-0.73,0.09
			c-0.29,0-0.6-0.03-0.9-0.1c-0.31-0.07-0.59-0.16-0.86-0.28c-0.26-0.12-0.49-0.25-0.69-0.41C51.3,94.95,51.16,94.79,51.08,94.62z"
			/>
		<path class="st1" d="M69.44,81.69c0.12,0,0.27,0.02,0.43,0.06c0.17,0.04,0.32,0.1,0.45,0.17s0.25,0.14,0.34,0.21
			c0.09,0.07,0.14,0.14,0.14,0.2c-0.25,0.52-0.47,1.03-0.68,1.56c-0.21,0.52-0.39,1.02-0.53,1.5c-0.15,0.48-0.26,0.93-0.34,1.34
			c-0.08,0.42-0.12,0.78-0.12,1.09c0,0.34,0.04,0.63,0.11,0.86c0.07,0.23,0.2,0.39,0.37,0.49c-0.15,0.1-0.34,0.18-0.57,0.24
			s-0.44,0.09-0.63,0.09c-0.66,0-1-0.45-1-1.36c0-0.7,0.23-1.66,0.7-2.87c-0.25,0.56-0.53,1.09-0.85,1.59
			c-0.32,0.49-0.64,0.93-0.98,1.31c-0.33,0.38-0.67,0.69-1,0.93c-0.34,0.24-0.65,0.38-0.93,0.43c-0.45,0-0.82-0.21-1.11-0.62
			c-0.28-0.41-0.42-0.94-0.42-1.58c0-0.69,0.15-1.42,0.44-2.18c0.29-0.76,0.67-1.47,1.13-2.13c0.46-0.65,0.96-1.2,1.5-1.64
			s1.06-0.66,1.57-0.66c0.12,0.04,0.26,0.11,0.41,0.22c0.15,0.11,0.3,0.24,0.44,0.39c0.14,0.15,0.26,0.3,0.36,0.45
			c0.1,0.15,0.15,0.28,0.17,0.39c-0.49,0.07-1,0.31-1.52,0.72c-0.52,0.4-0.99,0.89-1.42,1.46c-0.42,0.57-0.77,1.18-1.04,1.83
			c-0.27,0.65-0.41,1.26-0.41,1.82c0,0.23,0.09,0.38,0.26,0.44c0.36-0.07,0.77-0.38,1.23-0.91c0.47-0.53,1.03-1.36,1.69-2.48
			c0.12-0.22,0.26-0.47,0.41-0.74s0.31-0.55,0.47-0.85c0.16-0.29,0.32-0.59,0.47-0.89C69.16,82.26,69.3,81.97,69.44,81.69z"/>
		<path class="st1" d="M78,81.69c0.12,0,0.27,0.02,0.43,0.06c0.17,0.04,0.32,0.1,0.45,0.17s0.25,0.14,0.34,0.21
			c0.09,0.07,0.14,0.14,0.14,0.2c-0.25,0.52-0.47,1.03-0.68,1.56c-0.21,0.52-0.39,1.02-0.53,1.5c-0.15,0.48-0.26,0.93-0.34,1.34
			c-0.08,0.42-0.12,0.78-0.12,1.09c0,0.34,0.04,0.63,0.11,0.86c0.07,0.23,0.2,0.39,0.37,0.49c-0.15,0.1-0.34,0.18-0.57,0.24
			s-0.44,0.09-0.63,0.09c-0.66,0-1-0.45-1-1.36c0-0.7,0.23-1.66,0.7-2.87c-0.25,0.56-0.53,1.09-0.85,1.59
			c-0.32,0.49-0.64,0.93-0.98,1.31c-0.33,0.38-0.67,0.69-1,0.93c-0.34,0.24-0.65,0.38-0.93,0.43c-0.45,0-0.82-0.21-1.11-0.62
			c-0.28-0.41-0.42-0.94-0.42-1.58c0-0.69,0.15-1.42,0.44-2.18c0.29-0.76,0.67-1.47,1.13-2.13c0.46-0.65,0.96-1.2,1.5-1.64
			s1.06-0.66,1.57-0.66c0.12,0.04,0.26,0.11,0.41,0.22c0.15,0.11,0.3,0.24,0.44,0.39c0.14,0.15,0.26,0.3,0.36,0.45
			c0.1,0.15,0.15,0.28,0.17,0.39c-0.49,0.07-1,0.31-1.52,0.72c-0.52,0.4-0.99,0.89-1.42,1.46c-0.42,0.57-0.77,1.18-1.04,1.83
			c-0.27,0.65-0.41,1.26-0.41,1.82c0,0.23,0.09,0.38,0.26,0.44c0.36-0.07,0.77-0.38,1.23-0.91c0.47-0.53,1.03-1.36,1.69-2.48
			c0.12-0.22,0.26-0.47,0.41-0.74s0.31-0.55,0.47-0.85c0.16-0.29,0.32-0.59,0.47-0.89C77.72,82.26,77.87,81.97,78,81.69z"/>
		<path class="st1" d="M83.29,80.2c0.32,0.1,0.62,0.32,0.9,0.65s0.49,0.71,0.63,1.11c-0.14,0.33-0.34,0.73-0.63,1.2
			c-0.28,0.47-0.56,0.94-0.85,1.43c-0.28,0.48-0.54,0.95-0.76,1.38c-0.23,0.44-0.36,0.8-0.4,1.08c0.2-0.21,0.41-0.45,0.65-0.73
			s0.47-0.55,0.7-0.83s0.44-0.53,0.64-0.76s0.35-0.4,0.46-0.51c0.23-0.25,0.51-0.53,0.83-0.86c0.32-0.32,0.65-0.63,1-0.92
			s0.7-0.53,1.06-0.74c0.36-0.2,0.68-0.3,0.98-0.3c0.32,0,0.59,0.11,0.8,0.32c0.21,0.21,0.38,0.44,0.51,0.67
			c0,0.02-0.05,0.06-0.14,0.1c-0.09,0.04-0.22,0.16-0.4,0.36c-0.17,0.22-0.36,0.52-0.58,0.91c-0.21,0.39-0.42,0.8-0.63,1.25
			c-0.2,0.45-0.37,0.91-0.51,1.37s-0.2,0.89-0.2,1.27c0,0.31,0.04,0.5,0.12,0.59s0.19,0.13,0.34,0.13c0.13,0,0.28-0.03,0.42-0.09
			c0.15-0.06,0.26-0.09,0.35-0.09c0.05,0.02,0.09,0.08,0.12,0.16c0.03,0.08,0.05,0.15,0.05,0.21c-0.1,0.09-0.21,0.17-0.35,0.26
			c-0.13,0.09-0.28,0.17-0.42,0.24c-0.15,0.07-0.29,0.13-0.43,0.18c-0.14,0.05-0.27,0.07-0.38,0.07c-0.36,0-0.65-0.05-0.87-0.16
			c-0.23-0.1-0.41-0.24-0.53-0.41c-0.13-0.17-0.22-0.38-0.27-0.62s-0.07-0.49-0.07-0.76c0-0.15,0.01-0.31,0.04-0.5
			c0.02-0.18,0.07-0.4,0.15-0.65c0.07-0.25,0.18-0.55,0.31-0.9s0.31-0.77,0.52-1.26c-0.02,0-0.19,0.09-0.5,0.26
			s-0.64,0.44-0.99,0.79c-0.58,0.55-1.1,1.1-1.56,1.64s-0.93,1.14-1.41,1.81c-0.27,0.38-0.51,0.7-0.71,0.97
			c-0.2,0.26-0.38,0.44-0.53,0.53c-0.26-0.15-0.45-0.35-0.57-0.62s-0.21-0.54-0.28-0.82c0-0.23,0.03-0.53,0.1-0.88
			c0.07-0.36,0.16-0.75,0.28-1.19s0.26-0.89,0.43-1.37c0.17-0.48,0.36-0.96,0.57-1.44c0.47-1.08,0.89-1.93,1.28-2.54
			C82.95,80.58,83.19,80.25,83.29,80.2z"/>
		<path class="st1" d="M95.72,82.08c-0.06-0.07-0.12-0.23-0.16-0.47c-0.05-0.24-0.07-0.45-0.07-0.62c0.32,0.05,0.63,0.07,0.92,0.07
			s0.56,0,0.81,0c0.18-0.36,0.38-0.73,0.6-1.08c0.21-0.36,0.42-0.69,0.63-0.98c0.2-0.3,0.39-0.55,0.57-0.76
			c0.18-0.21,0.32-0.34,0.41-0.4c0.12,0,0.28,0.02,0.47,0.06s0.38,0.1,0.58,0.17c0.2,0.07,0.37,0.14,0.53,0.21
			c0.16,0.07,0.27,0.15,0.33,0.22c-0.37,0.46-0.68,0.89-0.95,1.29c-0.26,0.4-0.55,0.85-0.86,1.36c0.24,0,0.49,0,0.75,0
			s0.51-0.02,0.76-0.05c0.06,0.06,0.11,0.14,0.15,0.23s0.05,0.19,0.05,0.29c-0.6,0.23-1.33,0.35-2.19,0.35
			c-0.31,0.59-0.58,1.18-0.82,1.76c-0.24,0.58-0.44,1.15-0.61,1.69s-0.29,1.05-0.39,1.53c-0.09,0.48-0.14,0.91-0.14,1.29
			c0,0.54,0.2,0.84,0.61,0.9c0.37-0.05,0.72-0.14,1.05-0.28c0.33-0.13,0.63-0.31,0.88-0.52c0.07,0.11,0.12,0.2,0.13,0.28
			c-0.07,0.11-0.2,0.24-0.38,0.38c-0.18,0.15-0.37,0.29-0.58,0.43c-0.21,0.14-0.41,0.26-0.61,0.36c-0.2,0.1-0.34,0.15-0.44,0.16
			c-0.31,0-0.61-0.06-0.92-0.18c-0.31-0.12-0.59-0.28-0.84-0.46s-0.46-0.39-0.62-0.62c-0.16-0.23-0.24-0.45-0.24-0.67
			c0-0.29,0.04-0.67,0.12-1.12c0.08-0.45,0.19-0.94,0.34-1.47s0.32-1.08,0.52-1.66c0.2-0.58,0.41-1.15,0.64-1.71h-1.03V82.08z"/>
		<path class="st1" d="M100.67,88.76c0.06-0.36,0.17-0.83,0.32-1.41c0.15-0.58,0.33-1.2,0.54-1.86c0.21-0.66,0.43-1.32,0.66-1.98
			s0.46-1.26,0.68-1.79c0.16-0.38,0.3-0.68,0.42-0.89c0.12-0.21,0.26-0.4,0.41-0.54c0.17,0.02,0.35,0.07,0.53,0.13
			s0.36,0.13,0.53,0.22s0.32,0.17,0.46,0.27c0.13,0.09,0.24,0.18,0.31,0.27c-0.33,0.39-0.62,0.84-0.88,1.34
			c-0.25,0.5-0.51,1.15-0.76,1.93c0.66-0.59,1.25-1.15,1.76-1.69s0.99-1.14,1.43-1.81c0.07-0.06,0.2-0.09,0.39-0.09
			c0.17,0,0.34,0.03,0.5,0.08s0.27,0.13,0.33,0.23c-0.22,0.59-0.33,1.17-0.33,1.75c0,0.54,0.08,0.95,0.24,1.22
			c-0.01,0.07-0.1,0.21-0.25,0.42c-0.15,0.21-0.32,0.4-0.51,0.59c-0.33-0.17-0.63-0.41-0.88-0.71c-0.26-0.3-0.45-0.63-0.57-0.99
			c-0.58,0.4-1.07,0.8-1.47,1.19s-0.75,0.82-1.04,1.29s-0.53,1.02-0.74,1.63c-0.2,0.61-0.4,1.34-0.58,2.19
			c-0.11-0.01-0.24-0.05-0.4-0.12c-0.15-0.07-0.31-0.15-0.46-0.25s-0.29-0.2-0.41-0.31C100.79,88.97,100.71,88.86,100.67,88.76z"/>
		<path class="st1" d="M110.71,89.78c-0.7-0.07-1.26-0.38-1.68-0.92c-0.42-0.54-0.63-1.23-0.63-2.06c0-0.49,0.07-1,0.22-1.53
			s0.36-1.04,0.63-1.54c0.27-0.5,0.59-0.97,0.96-1.41s0.77-0.82,1.2-1.14c0.68-0.5,1.31-0.75,1.9-0.75
			c0.39,0.21,0.78,0.64,1.16,1.31c0.06,0,0.12,0,0.17-0.01c0.05-0.01,0.1-0.01,0.17-0.01c0.65,0,0.98,0.58,0.98,1.73
			c0,0.77-0.13,1.51-0.38,2.2s-0.6,1.32-1.05,1.89c-0.45,0.57-0.98,1.04-1.6,1.43C112.13,89.34,111.45,89.62,110.71,89.78z
			 M111.65,83.97c-0.21,0.28-0.41,0.59-0.59,0.92c-0.18,0.33-0.34,0.67-0.48,1c-0.14,0.34-0.24,0.66-0.31,0.98
			c-0.07,0.31-0.11,0.59-0.11,0.84c0,0.29,0.05,0.58,0.15,0.85c0.1,0.27,0.21,0.42,0.33,0.46c0.55-0.12,1.06-0.35,1.52-0.69
			s0.86-0.76,1.2-1.26s0.6-1.07,0.79-1.71c0.19-0.64,0.29-1.32,0.29-2.04c0-0.32-0.02-0.57-0.05-0.75c-0.04-0.18-0.1-0.34-0.18-0.48
			c-0.54,0.16-1.02,0.42-1.45,0.77C112.32,83.21,111.96,83.58,111.65,83.97z"/>
		<path class="st1" d="M121.67,88.73c-0.23-0.2-0.39-0.44-0.47-0.74c-0.08-0.29-0.12-0.55-0.12-0.75c0-0.26,0.03-0.48,0.09-0.66
			c-0.05,0-0.16,0.1-0.33,0.29c-0.17,0.2-0.36,0.43-0.56,0.7c-0.2,0.27-0.4,0.53-0.6,0.79s-0.34,0.45-0.44,0.57
			c-0.16,0.17-0.31,0.31-0.45,0.4c-0.14,0.1-0.25,0.15-0.34,0.16c-0.2,0-0.4-0.03-0.62-0.1c-0.21-0.07-0.42-0.16-0.61-0.29
			c-0.19-0.12-0.36-0.27-0.5-0.44s-0.24-0.37-0.28-0.59c0-0.34,0.01-0.63,0.03-0.85s0.06-0.46,0.12-0.72
			c0.11-0.47,0.27-0.99,0.49-1.58c0.21-0.59,0.46-1.17,0.75-1.74c0.28-0.57,0.6-1.11,0.95-1.6c0.35-0.5,0.72-0.89,1.12-1.17
			c0.11,0,0.24,0.01,0.39,0.03c0.15,0.02,0.3,0.05,0.45,0.1c0.15,0.05,0.3,0.11,0.44,0.17c0.14,0.07,0.26,0.16,0.36,0.27
			c-0.11,0.12-0.39,0.53-0.84,1.23c-0.45,0.7-0.95,1.71-1.5,3.02c-0.06,0.14-0.13,0.33-0.22,0.59s-0.17,0.53-0.26,0.81
			s-0.16,0.56-0.21,0.83s-0.08,0.48-0.08,0.64c0,0.1,0.02,0.17,0.05,0.22s0.06,0.09,0.08,0.11c0.18-0.07,0.42-0.28,0.7-0.61
			s0.68-0.84,1.18-1.53c0.12-0.17,0.27-0.37,0.43-0.59c0.17-0.22,0.33-0.46,0.51-0.71s0.33-0.51,0.49-0.78
			c0.15-0.27,0.28-0.54,0.38-0.81c0.05-0.15,0.11-0.32,0.19-0.53c0.08-0.2,0.18-0.41,0.29-0.64c0.12-0.22,0.25-0.44,0.4-0.67
			s0.33-0.44,0.54-0.64c0.16,0,0.33,0.02,0.52,0.05c0.18,0.04,0.36,0.08,0.52,0.14c0.17,0.06,0.31,0.12,0.43,0.18
			c0.12,0.07,0.21,0.14,0.28,0.21c-0.22,0.54-0.47,1.07-0.74,1.6s-0.52,1.05-0.76,1.56c-0.23,0.51-0.43,1.02-0.59,1.52
			s-0.24,1-0.24,1.47c0,0.26,0.02,0.48,0.06,0.67s0.09,0.35,0.14,0.48c0.05,0.13,0.09,0.24,0.14,0.32c0.04,0.09,0.06,0.16,0.06,0.22
			c0,0.01-0.01,0.03-0.04,0.05c-0.01,0.01-0.02,0.02-0.04,0.02c-0.09,0-0.2-0.02-0.33-0.05c-0.14-0.04-0.29-0.09-0.45-0.16
			c-0.17-0.07-0.33-0.14-0.5-0.23C121.97,88.92,121.82,88.82,121.67,88.73z"/>
		<path class="st1" d="M125.83,88.38c0-0.24,0.03-0.59,0.08-1.03s0.13-0.92,0.22-1.44s0.2-1.04,0.31-1.58
			c0.12-0.54,0.24-1.03,0.36-1.45c0.16-0.58,0.41-1.02,0.75-1.33s0.76-0.47,1.26-0.47c0.27,0,0.54,0.04,0.8,0.13
			c0.26,0.09,0.42,0.2,0.47,0.33c-0.36,0.29-0.64,0.66-0.86,1.1c-0.21,0.44-0.39,0.9-0.52,1.4c-0.13,0.5-0.23,1.01-0.29,1.53
			c-0.07,0.52-0.14,1.01-0.21,1.46c0.4-0.54,0.79-1.03,1.15-1.46c0.36-0.44,0.68-0.78,0.97-1.04c0.38-0.36,0.64-0.65,0.77-0.89
			c0.13-0.24,0.25-0.5,0.35-0.78c0.07-0.22,0.16-0.48,0.27-0.77c0.1-0.29,0.28-0.56,0.52-0.81c0.05-0.01,0.15-0.02,0.31-0.02
			c0.12,0,0.25,0.01,0.4,0.02c0.14,0.01,0.27,0.04,0.4,0.07c0.12,0.04,0.23,0.08,0.31,0.13c0.09,0.05,0.13,0.11,0.15,0.18
			c-0.2,0.26-0.38,0.66-0.55,1.21c-0.17,0.55-0.33,1.15-0.46,1.8s-0.26,1.3-0.37,1.94s-0.21,1.19-0.29,1.63
			c0.05-0.02,0.16-0.12,0.33-0.29c0.17-0.17,0.37-0.39,0.58-0.64c0.21-0.26,0.44-0.54,0.68-0.85s0.45-0.61,0.64-0.9
			c0.23-0.36,0.43-0.69,0.58-1s0.29-0.65,0.41-1c0.12-0.36,0.22-0.75,0.32-1.19s0.2-0.95,0.31-1.56c0.07-0.1,0.24-0.18,0.49-0.25
			s0.48-0.1,0.69-0.1c0.18,0,0.32,0.03,0.41,0.09c-0.06,0.69-0.17,1.3-0.34,1.84c-0.17,0.54-0.39,1.07-0.67,1.57
			c-0.28,0.51-0.63,1.02-1.05,1.53c-0.42,0.51-0.91,1.07-1.47,1.67c-0.23,0.25-0.49,0.52-0.76,0.81c-0.28,0.29-0.55,0.57-0.81,0.82
			s-0.51,0.46-0.74,0.64c-0.23,0.17-0.4,0.26-0.52,0.26c-0.28,0-0.52-0.11-0.7-0.33c-0.18-0.22-0.28-0.5-0.28-0.85
			c0-0.36,0.01-0.67,0.05-0.93c0.03-0.26,0.08-0.54,0.16-0.84c0.07-0.27,0.13-0.5,0.17-0.68s0.08-0.34,0.11-0.48
			s0.05-0.25,0.06-0.35s0.02-0.2,0.04-0.29c-0.1,0.05-0.23,0.15-0.39,0.3s-0.32,0.33-0.5,0.53c-0.17,0.2-0.34,0.41-0.52,0.62
			c-0.17,0.21-0.31,0.39-0.42,0.53c-0.23,0.32-0.44,0.6-0.61,0.85c-0.17,0.25-0.33,0.48-0.49,0.7c-0.15,0.22-0.3,0.44-0.45,0.67
			c-0.15,0.23-0.32,0.47-0.52,0.73c-0.39-0.12-0.67-0.31-0.84-0.55C125.91,89.03,125.83,88.73,125.83,88.38z"/>
		<path class="st1" d="M143.95,81.51c-0.05,0.76-0.18,1.42-0.41,1.96c-0.22,0.55-0.54,1.03-0.95,1.44s-0.91,0.78-1.5,1.11
			s-1.28,0.65-2.06,0.96c0,0.07,0,0.15-0.01,0.23c-0.01,0.08-0.01,0.16-0.01,0.25c0,0.16,0.01,0.32,0.04,0.5
			c0.02,0.17,0.07,0.33,0.13,0.48c0.06,0.15,0.15,0.27,0.26,0.36c0.11,0.09,0.25,0.14,0.42,0.14c0.33,0,0.66-0.07,0.98-0.22
			s0.62-0.33,0.91-0.54c0.29-0.21,0.56-0.45,0.81-0.7s0.48-0.48,0.67-0.69c0.12,0.11,0.23,0.21,0.31,0.31
			c-0.55,0.74-1.16,1.35-1.81,1.83c-0.66,0.48-1.28,0.79-1.87,0.93c-0.85-0.1-1.51-0.41-1.98-0.93s-0.71-1.15-0.71-1.89
			c0-0.5,0.07-1.02,0.21-1.54c0.14-0.52,0.34-1.03,0.59-1.51s0.55-0.94,0.88-1.37c0.34-0.43,0.7-0.8,1.09-1.12
			c0.39-0.32,0.79-0.57,1.2-0.76c0.41-0.18,0.82-0.28,1.22-0.28C142.93,80.53,143.46,80.88,143.95,81.51z M142.68,82.11
			c-0.33,0.05-0.68,0.18-1.03,0.41c-0.36,0.22-0.69,0.52-1,0.88c-0.31,0.37-0.6,0.8-0.86,1.29c-0.26,0.49-0.46,1.02-0.61,1.58
			c0.98-0.49,1.8-1.1,2.45-1.81C142.28,83.74,142.63,82.96,142.68,82.11z"/>
		<path class="st1" d="M147.78,80.2c0.32,0.1,0.62,0.32,0.9,0.65s0.49,0.71,0.63,1.11c-0.14,0.33-0.34,0.73-0.63,1.2
			c-0.28,0.47-0.56,0.94-0.85,1.43c-0.28,0.48-0.54,0.95-0.76,1.38c-0.23,0.44-0.36,0.8-0.4,1.08c0.2-0.21,0.41-0.45,0.65-0.73
			s0.47-0.55,0.7-0.83s0.44-0.53,0.64-0.76s0.35-0.4,0.46-0.51c0.23-0.25,0.51-0.53,0.83-0.86c0.32-0.32,0.65-0.63,1-0.92
			s0.7-0.53,1.06-0.74c0.36-0.2,0.68-0.3,0.98-0.3c0.32,0,0.59,0.11,0.8,0.32c0.21,0.21,0.38,0.44,0.51,0.67
			c0,0.02-0.05,0.06-0.14,0.1c-0.09,0.04-0.22,0.16-0.4,0.36c-0.17,0.22-0.36,0.52-0.58,0.91c-0.21,0.39-0.42,0.8-0.63,1.25
			c-0.2,0.45-0.37,0.91-0.51,1.37c-0.13,0.47-0.2,0.89-0.2,1.27c0,0.31,0.04,0.5,0.12,0.59s0.19,0.13,0.34,0.13
			c0.13,0,0.28-0.03,0.42-0.09c0.15-0.06,0.26-0.09,0.35-0.09c0.05,0.02,0.09,0.08,0.12,0.16c0.03,0.08,0.05,0.15,0.05,0.21
			c-0.1,0.09-0.21,0.17-0.35,0.26c-0.13,0.09-0.28,0.17-0.42,0.24c-0.15,0.07-0.29,0.13-0.43,0.18c-0.14,0.05-0.27,0.07-0.38,0.07
			c-0.36,0-0.65-0.05-0.87-0.16c-0.23-0.1-0.41-0.24-0.53-0.41c-0.13-0.17-0.22-0.38-0.27-0.62s-0.07-0.49-0.07-0.76
			c0-0.15,0.01-0.31,0.04-0.5c0.02-0.18,0.07-0.4,0.15-0.65c0.07-0.25,0.18-0.55,0.31-0.9s0.31-0.77,0.52-1.26
			c-0.02,0-0.19,0.09-0.5,0.26s-0.64,0.44-0.99,0.79c-0.58,0.55-1.1,1.1-1.56,1.64s-0.93,1.14-1.41,1.81
			c-0.27,0.38-0.51,0.7-0.71,0.97c-0.2,0.26-0.38,0.44-0.53,0.53c-0.26-0.15-0.45-0.35-0.57-0.62s-0.21-0.54-0.28-0.82
			c0-0.23,0.03-0.53,0.1-0.88c0.07-0.36,0.16-0.75,0.28-1.19s0.26-0.89,0.43-1.37c0.17-0.48,0.36-0.96,0.57-1.44
			c0.47-1.08,0.89-1.93,1.28-2.54C147.44,80.58,147.69,80.25,147.78,80.2z"/>
		<path class="st1" d="M155.19,90.55c-0.15,0-0.29-0.03-0.42-0.1s-0.25-0.15-0.36-0.24c-0.1-0.09-0.19-0.19-0.25-0.29
			s-0.09-0.19-0.09-0.25c0-0.15,0.02-0.34,0.05-0.57c0.04-0.23,0.09-0.46,0.17-0.67c0.07-0.21,0.17-0.4,0.28-0.55
			s0.23-0.23,0.37-0.23c0.34,0,0.69,0.12,1.04,0.36s0.61,0.51,0.78,0.8c-0.15,0.16-0.28,0.34-0.39,0.54s-0.22,0.39-0.33,0.57
			s-0.23,0.33-0.37,0.45C155.53,90.49,155.37,90.55,155.19,90.55z M155.59,85.67c0-0.33,0.09-0.81,0.27-1.45
			c0.18-0.63,0.41-1.33,0.69-2.1c0.28-0.77,0.6-1.56,0.96-2.38s0.71-1.58,1.08-2.29c0.36-0.71,0.71-1.33,1.04-1.85
			c0.33-0.52,0.62-0.87,0.87-1.04c0.2,0.04,0.41,0.13,0.64,0.27c0.23,0.14,0.44,0.3,0.63,0.48c0.2,0.18,0.37,0.37,0.52,0.56
			c0.15,0.2,0.23,0.37,0.26,0.52c-0.63,0.52-1.25,1.16-1.86,1.92c-0.61,0.77-1.18,1.62-1.7,2.55c-0.52,0.93-0.98,1.93-1.37,2.99
			c-0.39,1.06-0.69,2.15-0.88,3.25c-0.15-0.04-0.29-0.08-0.43-0.14c-0.14-0.05-0.26-0.13-0.36-0.23c-0.1-0.1-0.18-0.23-0.24-0.41
			C155.62,86.16,155.59,85.94,155.59,85.67z"/>
	</g>
</g>
</svg>
