<?xml version="1.0" encoding="utf-8"?>
<!-- Generator: Adobe Illustrator 24.0.2, SVG Export Plug-In . SVG Version: 6.00 Build 0)  -->
<svg version="1.1" id="Laag_1" xmlns="http://www.w3.org/2000/svg" xmlns:xlink="http://www.w3.org/1999/xlink" x="0px" y="0px"
	 viewBox="0 0 218.27 189.25" style="enable-background:new 0 0 218.27 189.25;" xml:space="preserve">
<style type="text/css">
	.st0{fill:#801624;}
</style>
<path class="st0" d="M101.64,53.26c0.85-2.1,1.77-4.47,2.75-6.81c3.24-7.78,6.8-15.41,11.56-22.4c5.08-7.46,11.26-13.77,19.18-18.27
	c5.87-3.33,12.16-5.29,18.88-5.7c18.42-1.13,36.08,9.19,43.51,25c3.9,8.29,4.35,16.83,1.4,25.53c-0.02,0.06-0.09,0.11-0.23,0.27
	c-0.07-1.33-0.13-2.56-0.19-3.79c-0.47-8.9-2.6-17.36-7.13-25.09c-4.65-7.95-11.02-13.94-20.02-16.7
	c-8.16-2.5-16.07-1.41-23.76,1.97c-7.59,3.33-13.92,8.42-19.51,14.42c-10.8,11.57-18.97,24.82-24.68,39.58
	c-0.43,1.12-0.8,2.26-1.21,3.39c-0.39,1.08-1.03,1.37-2.26,1.02c-0.91-0.25-1.21-0.74-1.07-1.77c0.6-4.36-0.19-8.59-1.66-12.67
	c-5.05-13.97-14.12-24.46-27.67-30.67c-11.69-5.35-23.35-4.47-34.81,1.15c-8.99,4.41-14.87,11.57-18.62,20.65
	c-2.74,6.62-3.95,13.54-3.79,20.71c0.32,14.16,5.24,26.72,13.55,38c4.11,5.58,9.46,9.95,15.1,13.9c7.26,5.09,14.66,9.98,21.98,14.98
	c7.51,5.13,14.85,10.48,21.29,16.97c5.79,5.84,10.54,12.38,13.61,20.36c0.23-0.79,0.38-1.37,0.56-1.93
	c2.67-8.42,7.56-15.23,14.83-20.29c0.92-0.64,1.43-1.35,1.73-2.46c1.48-5.31,4.87-9.33,9.03-12.74c6.9-5.65,14.82-9.15,23.48-11.17
	c7.55-1.75,12.06-3.84,16.82-7.54c-0.32-0.25-0.59-0.54-0.92-0.72c-3.16-1.78-4.09-4.86-4.75-8.1c-0.51-2.49,0.11-4.69,1.74-6.63
	c0.35-0.41,0.61-0.91,0.86-1.39c0.4-0.78,0.96-0.96,1.59-0.35c0.38,0.37,0.65,0.87,0.91,1.34c0.74,1.33,1.45,2.68,2.27,4.2
	c1.88-1.59,3.62-3.02,5.31-4.52c0.97-0.86,2.3-0.64,2.5,0.66c0.53,3.33,1.85,6.67,0.19,10.05c-0.11,0.22-0.11,0.49-0.18,0.8
	c1.7,0.05,3.35,0.08,5,0.17c0.47,0.03,0.93,0.23,1.39,0.51c-3.06,2.58-6.24,4.65-10.34,4.53c-1.27-0.04-2.54-0.22-3.82-0.27
	c-0.36-0.02-0.83,0.07-1.09,0.3c-4.83,4.09-10.52,6.28-16.61,7.7c-5.19,1.21-10.24,2.86-14.95,5.42c-0.44,0.24-0.89,0.48-1.28,0.85
	c0.23-0.06,0.46-0.11,0.68-0.19c7.06-2.85,14.37-4.71,21.95-5.5c4.61-0.48,9.23-0.81,13.83-1.33c9.75-1.11,17.88-5.5,24.71-12.43
	c1.68-1.71,2.79-3.81,3.69-6.22c-1.13,0.21-2.13,0.47-3.14,0.56c-5.42,0.47-9.84-1.61-13.47-5.49c-3.11-3.32-4.6-7.31-4.5-11.86
	c0.05-2.42,0.05-4.81-0.67-7.15c-0.23-0.75,0.08-0.99,0.77-1.05c1.18-0.09,2.08,0.43,2.98,1.13c2.54,1.96,5.13,3.85,7.7,5.76
	c0.2,0.15,0.44,0.24,0.76,0.41c0.86-3.59,2.99-6.46,4.87-9.47c1.35-2.17,2.71-4.34,3.07-6.94c0.14-1.03,0.08-2.08,0.12-3.22
	c0.74-0.37,1.52-0.25,1.91,0.64c2.01,4.57,4.04,9.13,5.9,13.76c1.1,2.73,0.56,5.62,0.29,8.45c-0.11,1.12-0.29,2.23-0.44,3.35
	c2.5-1.65,4.96-3.25,7.4-4.89c1.99-1.34,3.94-2.76,5.94-4.09c0.33-0.22,0.92-0.28,1.28-0.14c0.28,0.11,0.56,0.67,0.53,1.01
	c-0.18,2.1-0.29,4.23-0.74,6.29c-0.57,2.63-2.06,4.87-4.12,6.56c-2.11,1.73-4.35,3.32-6.69,4.73c-2.54,1.53-5.38,1.65-8.32,0.88
	c-0.22,1.09-0.37,2.12-0.63,3.13c-1.12,4.39-3.87,7.71-7.1,10.69c-4.65,4.28-10.32,6.45-16.45,7.28c-6.2,0.84-12.46,1.27-18.7,1.87
	c-9.94,0.96-19.48,3.22-27.98,8.76c-3.79,2.47-7.24,5.31-9.92,9c-0.54,0.74-0.94,1.58-1.4,2.37c0.1,0.1,0.21,0.19,0.31,0.29
	c0.44-0.26,0.9-0.51,1.33-0.78c4.27-2.67,8.82-4.66,13.82-5.52c4.04-0.69,8.07-0.53,12.11-0.08c4.16,0.46,8.32,1.22,12.52,0.28
	c0.24-0.05,0.48-0.15,0.77-0.24c-0.32-2.63-0.55-5.23,0.78-7.69c1.42-2.63,4.13-3.6,6.36-5.17c1.36,0.98,1.44,2.03,0.35,4.9
	c3.16-0.09,6.28-0.17,9.41-0.26c0.36-0.01,0.72-0.11,1.08-0.18c1.19-0.21,1.83,0.32,1.87,1.54c0,0.07,0.03,0.16,0,0.22
	c-0.9,2.02-1.57,4.18-2.76,6c-1.28,1.96-3.5,2.62-5.82,2.79c-0.3,0.02-0.6,0.1-0.87,0.25c1.62,0.05,3.27,0.3,4.86,0.09
	c1.44-0.19,2.06,1.01,1.54,2.03c-0.57,1.1-1.08,2.24-1.78,3.25c-1.51,2.18-3.78,2.93-6.49,2.05c-1.86-0.61-3.66-1.42-5.44-2.25
	c-2.04-0.95-2.86-2.7-2.88-4.89c0-0.47-0.03-0.94-0.04-1.51c-1.31,0.1-2.56,0.28-3.81,0.29c-3.03,0.02-6.06,0.02-9.09-0.06
	c-4.38-0.12-8.77-0.5-13.07,0.64c-8.47,2.25-15.53,6.78-21.22,13.4c-2.79,3.24-5.28,6.7-7.04,10.64c-1.76,3.97-2.39,8.17-2.62,12.44
	c-0.23,4.12-0.35,8.25-0.51,12.37c-0.05,1.3-1.74,2.44-2.9,1.9c-0.22-0.1-0.4-0.51-0.43-0.79c-0.24-1.8-0.45-3.61-0.65-5.42
	c-0.73-6.6-3.3-12.48-6.84-18.02c-4.76-7.46-11.02-13.49-17.93-18.9c-9-7.06-18.67-13.14-28.28-19.32
	c-6.69-4.3-13.42-8.56-19.39-13.87C15.23,105.46,8.66,96.9,4.44,86.63c-3.58-8.72-5.08-17.8-4.18-27.17
	c1.18-12.3,5.61-23.3,14.21-32.31c6.04-6.32,13.72-9.91,22.1-12.05c6.89-1.76,13.9-2.29,20.95-1.33
	c17.84,2.43,31.04,11.61,39.23,27.68C98.71,45.27,100.06,49.38,101.64,53.26z M196.75,68.12c-2.07,3.85-4.22,7.74-6.24,11.7
	c-0.91,1.79-1.44,3.71-1.16,5.8c0.41,3.06,1.57,5.85,3.16,8.42c1.05,1.69,2.34,3.31,4.58,3.8
	C203.27,87.85,203.33,77.95,196.75,68.12z M197.06,98.81c-0.84-0.29-1.68-0.45-2.39-0.85c-0.72-0.4-1.35-0.98-1.96-1.56
	c-2.89-2.72-4.59-6.07-5.21-9.98c-0.17-1.06,0.08-2.42-0.5-3.12c-0.63-0.77-2.02-0.88-3.03-1.37c-1.48-0.72-2.91-1.53-4.4-2.32
	c0.06,1.85,0.16,3.66,0.18,5.47c0.1,6.96,3.93,11.36,9.89,14.19C192.11,100.46,194.64,100.3,197.06,98.81z M215.55,82.21
	c-3.93,2.53-8.24,4.34-11.46,7.79c-2.31,2.47-3.94,5.37-5.27,8.45c1.26,0.65,1.87,0.63,3.44,0.34c2.7-0.49,4.56-2.3,6.56-3.94
	C212.79,91.61,215.1,87.48,215.55,82.21z M174.02,131.07c-1.23-0.04-2.32-0.08-3.4-0.1c-1.78-0.03-3.57-0.11-5.35-0.06
	c-3.27,0.08-5.09,1.43-5.95,4.29c-0.41,1.38-0.14,1.83,1.25,2.13c2.91,0.62,5.72,0.24,8.43-0.87
	C171.47,135.44,173.27,133.74,174.02,131.07z M158.81,137.96c-0.52,2.76-0.24,3.36,2.06,4.45c0.79,0.37,1.58,0.75,2.41,1.03
	c1.42,0.47,2.87,0.89,4.38,0.44c1.87-0.55,3.54-1.39,4.54-3.35C167.52,140.38,162.95,140.53,158.81,137.96z M171.66,97.82
	c-4.3,2.63-6.55,6.2-6.07,11.26c2.2-0.72,4.31-1.49,5.25-3.88C171.77,102.83,171.7,100.37,171.66,97.82z M164.03,109.24
	c-1.16-2.55-1.62-5.43,1.35-9.28c-0.9-1.05-1.78-2.08-2.8-3.27c-0.04,0.08-0.07,0.25-0.16,0.35c-1.57,1.74-1.67,3.74-1.23,5.93
	C161.65,105.31,162.2,107.57,164.03,109.24z M177.27,107.85c-0.98-0.12-1.67-0.17-2.35-0.29c-1.15-0.21-2.18-0.14-3.15,0.69
	c-0.49,0.42-1.23,0.58-1.88,0.81c-1.01,0.35-2.03,0.64-3.04,0.96C170.56,110.75,173.97,110.18,177.27,107.85z M163.41,126.57
	c-1.27,1.02-2.41,1.94-3.55,2.86c0.09,0.11,0.18,0.22,0.26,0.32C161.51,129.14,163.39,129.13,163.41,126.57z"/>
</svg>
