<?xml version="1.0" encoding="utf-8"?>
<!-- Generator: Adobe Illustrator 24.0.2, SVG Export Plug-In . SVG Version: 6.00 Build 0)  -->
<svg version="1.1" id="Laag_1" xmlns="http://www.w3.org/2000/svg" xmlns:xlink="http://www.w3.org/1999/xlink" x="0px" y="0px"
	 viewBox="0 0 118.27 442.26" style="enable-background:new 0 0 118.27 442.26;" xml:space="preserve">
<style type="text/css">
	.st0{fill:#D4AF37;}
	.st1{fill:#EFD4AC;}
	.st2{fill:#A51B25;}
</style>
<path class="st0" d="M92.99,226.69c-0.27-0.79-0.55-1.56-0.83-2.34c-0.08-0.23-0.17-0.47-0.28-0.69c-0.79-1.5-1.76-2.88-3.08-3.98
	c-0.73-0.61-1.56-0.93-2.53-0.82c-0.49,0.05-0.91-0.09-1.32-0.37c-0.71-0.49-1.19-1.1-1.45-1.94c-0.66-2.18-1.5-4.29-2.69-6.23
	c-1.13-1.84-2.26-3.57-4.79-6.87c-0.11-0.14-0.19-0.24-0.25-0.33c-0.39-0.49-0.69-0.78-1.74-1.84c-0.38-0.38-0.51-0.51-0.69-0.7
	c-0.31-0.31-0.55-0.56-0.71-0.73c-0.13-0.12-0.36-0.33-0.65-0.6c-1.71-1.57-2.82-2.45-4.87-4.26c-0.29-0.25-0.81-0.72-1.47-1.39
	c-0.3-0.31-0.6-0.63-0.89-0.95c-1.11-1.24-2.23-2.46-3.32-3.71c-2.43-2.8-4.57-5.84-6.81-8.79c-0.11-0.15-0.25-0.29-0.29-0.59
	c0.25,0.16,0.43,0.3,0.62,0.42c0.19,0.12,0.39,0.22,0.57,0.34c0.95,0.62,2.01,0.95,3.11,1.1c1.3,0.18,2.54,0.53,3.78,0.92
	c0.31,0.11,0.63,0.19,0.95,0.29c0.2,0.05,0.41,0.04,0.53-0.15c0.11-0.17,0.09-0.38-0.04-0.55c-0.25-0.33-0.49-0.67-0.77-0.98
	c-1-1.12-2.09-2.13-3.44-2.83c-0.88-0.45-1.8-0.67-2.8-0.67c-0.86,0-1.71,0.05-2.56,0.16c-0.17,0.02-0.33,0.04-0.5,0.05
	c-0.28,0.01-0.53-0.03-0.74-0.15c-0.25-0.14-0.37-0.35-0.43-0.45c-0.57-0.98-1.28-1.88-1.8-2.89c-0.87-1.7-0.79-1.4-1.18-2.22
	c-1.33-2.83-1.75-5.33-1.92-6.4c-0.21-1.3-0.26-2.47-0.31-2.98c-0.05-0.47-0.05-0.94-0.04-1.42c0.29,0.69,0.53,1.39,0.91,2.03
	c0.48,0.84,1.01,1.64,1.68,2.36c0.67,0.73,1.3,1.51,1.92,2.28c0.56,0.69,1.11,1.38,1.74,2.01c0.57,0.57,1.05,1.2,1.4,1.94
	c0.08,0.17,0.18,0.35,0.3,0.49c0.19,0.21,0.51,0.13,0.59-0.14c0.04-0.13,0.06-0.27,0.05-0.41c-0.11-2.85-0.21-5.71-1.38-8.38
	c-0.19-0.43-0.38-0.86-0.61-1.27c-0.37-0.69-0.89-1.26-1.56-1.68c-1.03-0.65-2.1-1.24-3.28-1.55c-0.29-0.08-0.6-0.11-0.9-0.17
	c-0.82-0.13-0.91-0.26-0.91-1.07c0.01-1.82,0.36-3.57,0.82-5.32c0.5-1.9,1.03-3.79,1.56-5.68c0.08-0.29,0.13-0.59,0.34-0.81
	c0.24,0.03,0.21,0.2,0.18,0.32c-0.11,0.41-0.09,0.83-0.1,1.24c-0.03,0.81,0.1,1.58,0.43,2.34c0.72,1.62,1.38,3.26,2.08,4.89
	c0.33,0.79,0.61,1.6,0.85,2.43c0.07,0.24,0.13,0.5,0.43,0.54c0.22,0.03,0.43-0.15,0.51-0.55c0.18-0.96,0.56-1.86,0.82-2.79
	c0.21-0.72,0.29-1.46,0.25-2.22c-0.03-0.61-0.11-1.21-0.15-1.82c-0.07-0.95-0.47-1.76-1.13-2.44c-0.83-0.86-1.68-1.66-2.81-2.16
	c-1.19-0.53-1.18-0.57-0.64-1.8c0.51-1.17,1.09-2.3,1.73-3.4c0.41-0.69,0.8-1.39,1.19-2.09c0.7-1.23,1.42-2.44,2.25-3.59
	c0.99-1.36,1.94-2.77,2.87-4.17c0.46-0.69,0.96-1.36,1.46-2.02c1.07-1.38,2.05-2.82,2.94-4.31c0.14-0.23,0.29-0.46,0.48-0.74
	c0.33,0.39,0.33,0.81,0.42,1.2c0.05,0.21-0.13,0.35-0.25,0.51c-0.41,0.56-0.71,1.18-1,1.81c-0.97,2.14-0.87,4.31-0.12,6.47
	c0.4,1.18,0.85,2.34,1.27,3.51c0.24,0.65,0.4,1.32,0.48,2.02c0.05,0.49,0.15,0.99,0.31,1.46c0.07,0.19,0.18,0.35,0.41,0.36
	c0.23,0.01,0.37-0.13,0.45-0.31c0.11-0.26,0.2-0.52,0.27-0.79c0.27-1.09,0.71-2.1,1.26-3.06c0.24-0.41,0.45-0.83,0.67-1.24
	c1.24-2.35,1.34-4.82,0.73-7.34c-0.23-0.94-0.81-1.7-1.56-2.3c-0.07-0.05-0.14-0.09-0.2-0.15c-0.52-0.43-1.06-0.8-1.83-0.74
	c-0.23-0.79-0.48-1.54-0.56-2.35c-0.02-0.2,0.03-0.38,0.13-0.55c1.98-3.44,3.28-7.2,4.83-10.83c0.24-0.56,0.47-1.13,0.71-1.68
	c0.05-0.13,0.08-0.27,0.26-0.36c0.23,0.45,0.48,0.91,0.69,1.37c0.53,1.18,1.24,2.22,2.13,3.15c0.19,0.19,0.39,0.4,0.55,0.63
	c0.53,0.74,1.04,1.5,1.72,2.12c0.16,0.14,0.26,0.35,0.41,0.57c-0.71,1.84-0.57,3.75-0.3,5.65c0.37,2.63,1.57,4.81,3.71,6.43
	c1.19,0.9,2.36,1.83,3.54,2.74c0.02,0.02,0.05,0.03,0.06,0.05c1.47,1.54,3.09,2.95,4.26,4.75c0.69,1.07,1.32,2.18,1.98,3.26
	c0.12,0.19,0.24,0.37,0.37,0.55c0.13,0.16,0.29,0.28,0.5,0.2c0.17-0.07,0.25-0.23,0.25-0.4c0.05-1.11,0.53-2.08,0.92-3.09
	c0.43-1.09,0.62-2.24,0.81-3.38c0.34-2.07,0.23-4.13-0.03-6.2c-0.31-2.47-1.24-4.69-2.64-6.73c-0.67-0.98-1.53-1.74-2.55-2.34
	c-0.65-0.38-1.3-0.73-1.94-1.11c-1.32-0.81-2.72-0.84-4.16-0.42c-0.75,0.22-1.51,0.33-2.28,0.43c-0.79,0.1-1.41-0.17-1.96-0.8
	c-1.16-1.3-2.15-2.74-3.33-4.02c-0.88-0.95-1.42-2.12-1.86-3.32c-0.31-0.85-0.39-1.77-0.13-2.69c0.23-0.79,0.41-1.6,0.61-2.42
	c0.26,0.03,0.31,0.23,0.41,0.37c0.83,1.18,1.66,2.35,2.58,3.46c1.28,1.54,2.85,2.7,4.7,3.47c0.88,0.37,1.78,0.59,2.74,0.49
	c1.48-0.15,2.32-1.02,2.33-2.51c0.01-0.94-0.07-1.88-0.41-2.78c-0.08-0.21-0.14-0.42-0.19-0.59c0.06-0.31,0.3-0.44,0.46-0.63
	c0.88-1.01,1.22-2.18,1.18-3.52c-0.13-4.23-3.6-7.1-6.42-7.94c-0.46-0.13-0.93-0.19-1.4-0.15c-0.73,0.07-1.11,0.46-1.15,1.18
	c-0.03,0.51,0.1,0.99,0.45,1.39c0.23,0.26,0.47,0.32,0.64,0.15c0.21-0.19,0.14-0.4-0.01-0.59c-0.22-0.27-0.29-0.59-0.29-0.93
	c0.01-0.22,0.12-0.36,0.33-0.41c0.42-0.09,0.83-0.04,1.23,0.09c1.35,0.41,2.52,1.15,3.51,2.14c1.56,1.56,2.41,3.42,2.31,5.67
	c-0.05,1.02-0.45,1.86-1.15,2.57c-0.3-0.08-0.35-0.33-0.45-0.51c-0.76-1.31-1.78-2.39-2.96-3.34c-0.41-0.33-0.86-0.61-1.34-0.81
	c-0.39-0.17-0.79-0.25-1.21-0.23c-0.64,0.03-1.03,0.4-1.1,1.03c-0.05,0.57,0.04,1.11,0.36,1.58c0.91,1.36,2.04,2.48,3.5,3.24
	c0.88,0.45,1.23,0.49,2.66,0.42c0.2,0.09,0.24,0.29,0.3,0.47c0.27,0.85,0.37,1.73,0.33,2.62c-0.05,0.95-0.55,1.45-1.5,1.57
	c-0.76,0.09-1.48-0.05-2.19-0.33c-1.52-0.59-2.87-1.44-3.99-2.62c-1.48-1.56-2.67-3.32-3.84-5.11c-0.17-0.26-0.21-0.54-0.2-0.86
	c0.11-3.1-0.33-6.12-1.37-9.05c-0.15-0.42-0.31-0.83-0.45-1.25c-0.73-2.1-1.75-4.05-3.01-5.89c-1.54-2.27-3.31-4.36-5.05-6.48
	c-0.17-0.21-0.41-0.37-0.48-0.65c0.13-0.19,0.31-0.11,0.46-0.13c1.07-0.09,2.16-0.11,3.22-0.36c0.37-0.09,0.76-0.17,1.11-0.33
	c1.04-0.45,2.11-0.82,3.12-1.34c1.16-0.6,2.39-1.03,3.63-1.43c1-0.33,1.99-0.68,2.98-1.02c0.07-0.03,0.15-0.06,0.23-0.1
	c0.23-0.15,0.21-0.49-0.04-0.61c-0.12-0.07-0.25-0.11-0.39-0.13c-0.81-0.13-1.53-0.46-2.26-0.81c-1.03-0.49-2.06-0.95-3.1-1.4
	c-2.3-1-4.69-1.17-7.16-0.89c-1.43,0.15-2.7,0.68-3.8,1.52c-1.14,0.87-2.01,1.98-2.04,3.54c0,0.08-0.02,0.16-0.03,0.24
	c-0.23,0.08-0.37-0.08-0.53-0.17c-1.24-0.67-2.58-1.15-3.85-1.76c-0.72-0.34-1.44-0.7-2.17-1.03c-0.48-0.22-0.95-0.45-1.45-0.61
	c-1.81-0.55-3.5-1.37-5.16-2.28c-0.29-0.16-0.59-0.31-0.89-0.45c-0.2-0.09-0.41-0.15-0.65-0.13c-0.21,0.03-0.37,0.13-0.41,0.35
	c-0.03,0.19,0.07,0.33,0.23,0.39c2.2,0.89,4.2,2.25,6.52,2.87c0.43,0.11,0.84,0.29,1.23,0.49c1.58,0.81,3.21,1.49,4.83,2.2
	c0.73,0.32,1.45,0.65,2.15,1.17c-0.35,0.24-0.69,0.23-1,0.23c-0.97,0-1.76,0.37-2.52,0.93c-2.05,1.51-3.5,3.49-4.31,5.87
	c-0.59,1.72-1.1,3.48-1.29,5.31c-0.13,1.26-0.36,2.52-0.67,3.75c-0.19,0.79-0.47,1.54-0.77,2.28c-0.11,0.27-0.3,0.57-0.05,0.85
	c0.27,0.3,0.61,0.19,0.93,0.09c0.83-0.27,1.54-0.76,2.25-1.24c1.12-0.76,2.24-1.53,3.3-2.37c0.96-0.76,1.83-1.6,2.58-2.57
	c0.82-1.05,1.7-2.03,2.39-3.18c0.89-1.48,1.36-3.08,1.55-4.78c0.09-0.74,0.19-1.48,0.08-2.23c-0.05-0.39-0.13-0.76-0.25-1.11
	c0.22-0.17,0.33,0,0.45,0.09c0.4,0.3,0.75,0.65,1.07,1.04c0.83,1,1.64,1.99,2.46,2.99c0.69,0.83,0.64,0.75,1.03,1.24
	c0.2,0.25,0.89,1.14,1.68,2.36c0.61,0.95,1.89,2.94,3.03,5.79c0.3,0.77,0.72,1.74,1.04,3.06c0.85,3.48,1.22,6.97,0.19,10.5
	c-0.37,1.27-0.71,2.56-1.22,3.78c-1.22,2.92-2.44,5.83-3.65,8.73c-0.8,1.89-1.83,3.65-2.92,5.4c-0.17,0.27-0.37,0.45-0.71,0.51
	c-0.84,0.14-1.7,0.19-2.54,0.48c-0.74-0.8-1.69-0.91-2.68-0.95c-1.16-0.05-2.24,0.15-3.28,0.69c-0.96,0.5-1.91,1-2.84,1.55
	c-2,1.18-4.01,2.34-6.08,3.4c-0.22,0.12-0.45,0.23-0.65,0.37c-0.51,0.37-0.45,0.79,0.14,1.05c0.18,0.08,0.37,0.13,0.55,0.18
	c0.93,0.27,1.89,0.39,2.86,0.51c1.66,0.2,3.31,0.13,4.96-0.15c1.1-0.18,2.16-0.49,3.18-0.92c1.07-0.45,1.9-1.23,2.66-2.08
	c0.15-0.17,0.28-0.36,0.38-0.56c0.17-0.33,0.27-0.71,0.32-1.1c0.09-0.75,0.49-1.22,1.19-1.4c0.5-0.13,1.01-0.17,1.52-0.19
	c0.05,0.29-0.1,0.44-0.21,0.59c-0.43,0.64-0.85,1.3-1.33,1.9c-0.23,0.28-0.45,0.56-0.66,0.85c-1.68,2.2-3.16,4.55-4.71,6.84
	c-1.79,2.63-3.35,5.41-4.69,8.31c-0.11,0.25-0.23,0.48-0.48,0.65c-0.36,0.24-0.69,0.31-1.08,0.12c-1.01-0.49-2.08-0.5-3.17-0.41
	c-0.91,0.08-1.73,0.37-2.51,0.81c-0.41,0.23-0.83,0.45-1.22,0.7c-0.72,0.44-1.49,0.73-2.3,0.91c-0.11,0.03-0.22,0.04-0.33,0.07
	c-0.25,0.08-0.49,0.19-0.49,0.49c-0.01,0.3,0.2,0.43,0.45,0.51c0.27,0.09,0.53,0.17,0.78,0.29c1.72,0.81,3.53,0.87,5.37,0.58
	c1.13-0.17,2.13-0.75,3.1-1.35c0.28-0.19,0.47-0.47,0.6-0.79c0.09-0.19,0.12-0.43,0.42-0.59c-1.05,3.86-2.35,7.61-2.73,11.56
	c-0.21,0.25-0.47,0.24-0.76,0.21c-0.69-0.09-1.37-0.15-2.06-0.2c-1.16-0.07-2.15,0.25-3.02,1.08c-1.08,1.04-2.24,1.98-3.36,2.98
	c-0.23,0.2-0.46,0.41-0.65,0.63c-1.12,1.31-2.41,2.44-3.71,3.57c-0.02,0.02-0.04,0.03-0.06,0.05c-0.21,0.18-0.49,0.34-0.35,0.67
	c0.13,0.3,0.45,0.27,0.73,0.27c0.08,0,0.17,0,0.25-0.01c1.76-0.17,3.53-0.34,5.29-0.51c0.11-0.01,0.23-0.02,0.33-0.05
	c2.02-0.63,3.99-1.34,5.3-3.17c0.8-1.13,1.54-2.3,1.84-3.68c0.01-0.05,0.05-0.09,0.11-0.17c0.17,0.11,0.13,0.28,0.13,0.41
	c-0.11,2.31,0.21,4.59,0.45,6.87c0.19,1.89,0.76,3.68,1.48,5.43c0.77,1.84,1.77,3.56,2.85,5.25c0.12,0.19,0.23,0.37,0.35,0.57
	c0.03,0.04,0.02,0.1,0.03,0.16c-0.1,0.18-0.29,0.15-0.44,0.16c-0.65,0.04-1.15,0.36-1.56,0.85c-0.34,0.4-0.63,0.84-0.83,1.33
	c-0.2,0.51-0.41,1.03-0.57,1.56c-0.51,1.72-1.34,3.27-2.4,4.71c-0.08,0.11-0.17,0.22-0.24,0.34c-0.12,0.2-0.17,0.41,0.03,0.6
	c0.15,0.15,0.37,0.11,0.58-0.11c0.11-0.12,0.21-0.25,0.31-0.39c0.37-0.51,0.84-0.89,1.42-1.11c1.54-0.58,2.64-1.68,3.61-2.96
	c0.44-0.58,0.57-1.26,0.61-1.96c0.03-0.44,0.02-0.89,0.03-1.32c0-0.19-0.04-0.39,0.05-0.54c0.05-0.03,0.07-0.05,0.1-0.05
	s0.05,0.01,0.07,0.03c0.05,0.03,0.09,0.07,0.12,0.11c3.12,4.69,6.55,9.12,10.26,13.26c0.08,0.25-0.03,0.39-0.09,0.54
	c-0.05,0.15-0.13,0.3-0.23,0.51c-1.26,0.09-2.3,0.8-3.34,1.48c-0.49,0.33-0.92,0.72-1.23,1.22c-1.69,2.7-3.04,5.53-3.24,8.78
	c-0.01,0.27-0.04,0.55-0.03,0.83c0.04,0.57,0.2,0.71,0.77,0.75c0.13,0.01,0.27-0.06,0.38,0.06c0.04,0.09,0.01,0.17-0.05,0.23
	c-1.09,1.39-1.4,3.05-1.57,4.74c-0.09,0.88-0.09,1.76-0.07,2.65c0.02,0.75-0.06,1.5-0.04,2.24c0.04,1.96,0.13,3.93,0.16,5.89
	c0.03,2.04,0.11,4.09-0.01,6.14c-0.01,0.19-0.04,0.39-0.01,0.58c0.05,0.41,0.37,0.56,0.73,0.35c0.35-0.21,0.72-0.42,1.04-0.67
	c1.48-1.17,3.12-2.1,4.69-3.14c1.27-0.84,2.3-1.9,3.06-3.22c0.32-0.55,0.68-1.08,1.03-1.6c0.29-0.43,0.52-0.9,0.77-1.47
	c0.21,0.36,0.13,0.66,0.17,0.94c0.03,0.17,0.09,0.33,0.27,0.38c0.19,0.05,0.32-0.07,0.4-0.23c0.17-0.3,0.43-0.51,0.69-0.71
	c1.09-0.88,1.78-2.05,2.29-3.31c0.93-2.32,1.09-4.73,0.63-7.18c-0.09-0.49-0.23-0.97-0.41-1.43c-0.19-0.49-0.36-0.98-0.54-1.47
	c0.77-0.2,1.14-0.74,1.13-1.68c-0.01-0.81-0.16-1.58-0.51-2.33c-0.46-0.99-1.06-1.88-1.71-2.74c-0.8-1.06-1.62-2.1-2.44-3.15
	c-0.31-0.4-0.64-0.77-1.05-1.06c-0.57-0.39-0.87-0.99-1.14-1.6c-0.08-0.19-0.08-0.37,0.14-0.49c0.13-0.01,0.21,0.09,0.27,0.17
	c1.68,1.96,3.67,3.6,5.63,5.27c1.54,1.32,2.96,2.75,4.4,4.17c2.44,2.38,4.27,5.22,6.1,8.05c0.78,1.21,1.37,2.53,1.95,3.85
	c0.26,0.58,0.29,1.05-0.25,1.46c-0.11,0.08-0.19,0.2-0.27,0.31c-0.13,0.21-0.31,0.29-0.55,0.32c-0.91,0.09-1.59,0.6-2.27,1.13
	c-0.54,0.42-0.89,0.99-1.1,1.63c-0.31,0.95-0.68,1.87-1.08,2.78c-0.34,0.79-0.75,1.54-1.35,2.18c-0.19,0.19-0.41,0.4-0.27,0.72
	c0.09,0.21,0.4,0.28,0.83,0.13c0.39-0.14,0.77-0.32,1.13-0.51c0.85-0.47,1.7-0.94,2.53-1.44c0.83-0.51,1.54-1.17,2.15-1.93
	c0.64-0.81,0.95-1.74,0.95-2.78c0.01-0.42-0.13-0.81-0.27-1.2c-0.19-0.53-0.13-0.65,0.38-1.05c0.22,0.25,0.28,0.58,0.39,0.89
	c0.3,0.86,1.18,3,2.06,9.39c0.23,1.62,0.32,2.58,0.35,2.88c0.07,0.69,0.21,2.25,0.29,4.03c0.09,2.28,0.17,4.63-0.22,7.62
	c-0.35,2.7-0.92,4.77-1.38,6.32c-0.37,1.22-0.8,2.42-1.2,3.62c-0.08,0.24-0.16,0.47-0.27,0.7c-0.17,0.36-0.43,0.63-0.87,0.67
	c-0.3,0.03-0.6,0.09-0.9,0.15c-0.2,0.04-0.38,0.01-0.55-0.11c-0.28-0.2-0.61-0.25-0.95-0.25c-0.86,0-1.72,0.02-2.57,0.13
	c-0.61,0.08-1.21,0.25-1.68,0.65c-0.97,0.81-2.09,1.34-3.12,2.05c-0.2,0.14-0.5,0.21-0.45,0.53c0.06,0.35,0.4,0.35,0.66,0.39
	c1.67,0.23,3.34,0.48,5.03,0.15c0.22-0.04,0.43-0.09,0.65-0.14c1.15-0.22,1.93-0.93,2.46-1.93c0.39-0.73,0.57-0.96,1.56-0.91
	c0.1,0.21-0.03,0.37-0.12,0.54c-1.88,3.61-3.75,7.22-6.29,10.43c-0.37,0.46-0.99,1.46-1.96,2.68c-0.19,0.23-0.77,0.97-1.6,1.9
	c-0.79,0.88-1.39,1.49-1.53,1.63c-3.48,3.55-9.14,13.51-9.46,14.45c-0.01,0.04-0.11,0.29-0.27,0.61c-0.26,0.52-0.69,0.85-1.23,1.04
	c-0.29,0.1-0.58,0.17-0.9,0.26c-0.11-0.05-0.23-0.09-0.35-0.16c-1.55-0.87-3.05-0.59-4.49,0.25c-0.98,0.57-1.9,1.23-2.78,1.95
	c-0.9,0.74-1.78,1.5-2.86,1.98c-0.1,0.04-0.19,0.1-0.28,0.17c-0.3,0.26-0.28,0.59,0.05,0.83c0.21,0.15,0.45,0.2,0.71,0.23
	c0.39,0.03,0.77,0.11,1.13,0.25c0.17,0.07,0.37,0.13,0.56,0.13c1.86,0.03,3.72,0.02,5.5-0.63c1.44-0.53,2.52-1.47,3.02-2.98
	c0.1-0.31,0.25-0.63,0.3-0.95c0.07-0.51,0.36-0.63,0.79-0.6c0.12,0.21-0.02,0.38-0.08,0.55c-1.47,4.13-2.14,8.41-2.35,12.77
	c-0.15,3.12,1.09,5.96,1.22,6.3c0.13,0.37,0.24,0.67,0.33,0.87c0.14,0.35,0.37,0.91,0.72,1.56c0.51,0.99,0.89,1.49,1.58,2.62
	c0.29,0.47,0.71,1.16,1.18,2.03c-0.13,0.25-0.25,0.51-0.41,0.81c-0.55,0.01-1.03,0.31-1.52,0.56c-1.6,0.85-2.88,2.04-3.89,3.53
	c-0.41,0.6-0.67,1.27-0.89,1.96c-0.41,1.26-0.64,2.58-0.82,3.89c-0.47,3.53-1.59,6.83-3.42,9.89c-0.2,0.33-0.4,0.67-0.57,1.01
	c-0.18,0.38,0,0.66,0.43,0.67c0.36,0.01,0.72-0.06,1.05-0.2c0.77-0.32,1.56-0.55,2.38-0.74c0.65-0.15,1.27-0.37,1.88-0.66
	c0.47-0.23,0.95-0.45,1.45-0.6c1.44-0.43,2.67-1.19,3.81-2.14c0.55-0.46,1.13-0.89,1.7-1.33c0.35-0.27,0.67-0.58,0.93-0.95
	c0.87-1.24,1.48-2.57,1.52-4.13c0.03-1.03,0.12-2.04-0.03-3.06c-0.25-1.72-0.81-3.33-1.76-4.79c-0.1-0.16-0.21-0.33-0.28-0.5
	c-0.21-0.51-0.39-1.03-0.49-1.59c0.57,0.8,1.12,1.6,1.7,2.4c0.61,0.83,1.24,1.62,1.85,2.44c0.59,0.81,1.08,1.68,1.53,2.56
	c0.46,0.89,0.95,1.75,1.46,2.51c0.02,0.28-0.11,0.4-0.2,0.53c-0.64,0.95-0.98,1.99-0.96,3.12c0.01,1.2-0.2,2.37-0.25,3.56
	c-0.01,0.05-0.02,0.11-0.03,0.16c-0.05,0.29-0.06,0.57,0.24,0.73c0.31,0.16,0.53-0.05,0.75-0.21c0.55-0.4,0.97-0.9,1.28-1.5
	c0.54-1.04,0.97-2.11,1.19-3.38c0.43,0.35,0.67,0.75,0.91,1.12c0.25,0.39,0.44,0.83,0.65,1.24c0.09,0.17,0.15,0.36,0.25,0.53
	c0.27,0.4,0.71,0.4,0.91-0.04c0.34-0.73,0.51-1.51,0.51-2.33c-0.01-0.91-0.35-1.67-0.95-2.34c-0.33-0.37-0.7-0.71-1.07-1.03
	c-0.41-0.37-0.93-0.48-1.47-0.46c-0.27,0.01-0.55,0.06-0.81,0.09c-0.27-0.1-0.38-0.33-0.52-0.53c-0.39-0.55-0.71-1.13-1.01-1.72
	c-0.79-1.56-1.71-3.03-2.8-4.4c-0.74-0.93-1.48-1.86-2.07-2.88c0.16-0.22,0.32-0.08,0.45-0.01c1.05,0.54,2.14,0.71,3.3,0.49
	c0.42-0.08,0.82,0,1.22,0.16c0.69,0.27,1.41,0.49,2.1,0.77c0.88,0.37,1.61,0.97,2.3,1.62c0.47,0.43,0.97,0.83,1.5,1.18
	c0.77,0.51,1.59,0.89,2.52,1.03c0.71,0.1,1.42,0.23,2.14,0.32c0.71,0.09,1.33,0.33,1.87,0.81c0.31,0.27,0.65,0.51,0.99,0.76
	c0.13,0.1,0.27,0.2,0.42,0.27c0.33,0.15,0.62-0.01,0.67-0.37c0.05-0.36-0.01-0.73-0.1-1.07c-0.72-2.93-2.18-5.36-4.77-7.03
	c-0.84-0.54-1.66-1.09-2.5-1.64c-0.63-0.41-1.32-0.71-2.02-0.95c-0.63-0.21-1.25-0.2-1.85,0.13c-0.17,0.09-0.35,0.16-0.53,0.24
	c-0.68,0.32-1.38,0.37-2.1,0.17c-1.29-0.37-2.61-0.46-3.95-0.31c-0.53,0.06-1.02,0.2-1.48,0.47c-0.54,0.31-1.05,0.45-1.6,0.49
	c-2.3-2.7-3.73-5.83-4.69-9.18c-0.36-1.25-0.39-2.58-0.31-3.87c0.13-2.16,0.37-4.3,0.77-6.42c0.03-0.15,0.09-0.31,0.13-0.48
	c0.12,0.06,0.19,0.09,0.26,0.14c0.11,0.09,0.2,0.18,0.31,0.29c-0.17,0.85-0.37,1.68-0.26,2.54c0.05,0.45,0.15,0.87,0.35,1.27
	c0.19,0.37,0.35,0.76,0.57,1.11c1.15,1.84,2.1,3.77,3.13,5.67c0.11,0.19,0.2,0.39,0.34,0.57c0.28,0.35,0.63,0.37,0.91,0.04
	c0.15-0.16,0.28-0.36,0.34-0.56c0.31-1.06,0.76-2.07,0.83-3.2c0.1-1.5,0.03-2.99-0.46-4.42c-0.41-1.18-1.07-2.18-2.17-2.85
	c-0.45-0.27-0.91-0.53-1.36-0.8c-0.4-0.25-0.79-0.32-1.25-0.12c-0.53,0.23-0.77,0.11-0.96-0.42c-0.2-0.56-0.22-1.12-0.06-1.71
	c0.68-2.49,1.63-4.87,2.76-7.2c0.3-0.62,0.56-1.26,0.97-1.88c0.69,0.45,1.21,1,1.39,1.8c0.15,0.7,0.3,1.4,0.4,2.12
	c0.18,1.27,0.49,2.5,1.1,3.63c0.83,1.53,1.72,3.03,2.98,4.27c0.49,0.49,0.98,0.98,1.46,1.46c0.1,0.1,0.19,0.21,0.31,0.29
	c0.37,0.25,0.69,0.21,0.92-0.18c0.21-0.35,0.38-0.73,0.53-1.12c0.22-0.59,0.4-1.19,0.6-1.78c0.24,0.05,0.33,0.24,0.43,0.39
	c0.51,0.77,1.22,1.27,2.06,1.62c1.94,0.81,3.88,1.62,5.81,2.44c1.22,0.52,2.44,1.05,3.65,1.58c0.11,0.05,0.2,0.11,0.31,0.14
	c0.31,0.11,0.55-0.01,0.62-0.34c0.04-0.19,0.05-0.39,0.02-0.57c-0.2-1.42-0.26-2.87-0.55-4.28c-0.09-0.49-0.11-0.99-0.13-1.49
	c-0.03-0.83-0.19-1.64-0.37-2.46c-0.37-1.8-1.12-3.41-2.37-4.77c-0.03-0.04-0.03-0.1-0.05-0.15c0.08-0.16,0.23-0.12,0.36-0.11
	c0.55,0.03,1.1,0.11,1.64,0.25c0.51,0.13,0.73-0.05,0.75-0.57c0.01-0.17,0-0.34-0.04-0.5c-0.7-2.73-2.16-4.95-4.51-6.53
	c-0.87-0.58-1.89-0.76-2.89-0.98c-0.33-0.07-0.66-0.09-1.04-0.15c0.11-0.26,0.34-0.47,0.26-0.75s-0.25-0.49-0.44-0.69
	c-1.01-1.07-2.96-1.36-4.13-0.63c-0.45,0.28-0.88,0.59-1.21,1c-0.61,0.75-1.2,1.52-1.79,2.28c-0.41,0.53-0.81,1.05-1.22,1.56
	c-0.8,0.97-1.85,1.47-2.97,1.89c-0.36,0.14-0.75,0.21-1.11-0.03c-0.01-0.29,0.16-0.49,0.28-0.7c0.64-1.13,1.34-2.23,2.13-3.26
	c1.78-2.34,3.54-4.68,5.63-6.76c1.36-1.36,2.4-2.97,3.57-4.47c2.58-3.26,4.57-6.86,6.48-10.51c0.14-0.27,0.23-0.57,0.47-0.77
	c0.18,0.07,0.29,0.18,0.23,0.38c-0.02,0.05-0.05,0.1-0.09,0.15c-0.83,1.34-0.87,2.79-0.48,4.25c0.35,1.3,0.74,2.6,1.05,3.92
	c0.03,0.11,0.05,0.22,0.07,0.33c0.07,0.23,0.21,0.4,0.47,0.41c0.21,0.01,0.37-0.12,0.45-0.31c0.13-0.28,0.23-0.56,0.34-0.85
	c0.17-0.47,0.3-0.95,0.5-1.41c0.44-1,0.61-2.06,0.72-3.14c0.05-0.56-0.03-1.11-0.19-1.64c-0.21-0.7-0.63-1.23-1.28-1.55
	c-0.33-0.17-0.61-0.37-0.87-0.63c-0.38-0.36-0.51-0.78-0.35-1.28c0.07-0.24,0.16-0.47,0.24-0.71c0.84-2.32,1.59-4.66,2.18-7.05
	c0.63-2.52,0.77-5.08,0.85-7.66c0.14-4.28-0.35-8.51-0.99-12.73c-0.22-1.45-0.51-2.89-0.86-4.31c-0.03-0.13-0.11-0.26-0.03-0.44
	c0.34,0.03,0.54,0.35,0.79,0.4c0.16,0.24,0.15,0.44,0.12,0.63c-0.23,1.8,0.57,3.16,2.02,4.07c1.52,0.97,2.93,2.08,4.39,3.14
	c0.25,0.18,0.5,0.35,0.77,0.48c0.36,0.17,0.68-0.05,0.67-0.45C93.14,227.11,93.07,226.89,92.99,226.69z M82.63,105.52
	c-0.5,0.16-1.01,0.07-1.5-0.13c-1.56-0.65-2.69-1.79-3.61-3.17c-0.25-0.37-0.35-0.81-0.14-1.24c0.33-0.2,0.65-0.13,0.98-0.03
	c0.37,0.12,0.71,0.31,1.02,0.54c1.3,0.96,2.4,2.11,3.17,3.54C82.62,105.17,82.75,105.3,82.63,105.52z"/>
<path class="st1" d="M117.69,132.02c-0.03-0.03-0.05-0.05-0.08-0.07c-1.78-1.55-3.56-3.1-5.1-4.91c-0.27-0.31-0.59-0.59-0.9-0.87
	c-1.54-1.36-3.13-2.66-4.61-4.09c-1.19-1.14-2.55-1.58-4.15-1.48c-0.95,0.06-1.89,0.16-2.84,0.27c-0.4,0.05-0.75,0.05-1.04-0.28
	c-0.52-5.43-2.32-10.58-3.75-15.89c0.41,0.22,0.46,0.54,0.58,0.81c0.18,0.43,0.44,0.82,0.82,1.08c1.33,0.83,2.7,1.62,4.26,1.86
	c2.52,0.39,5.01,0.32,7.38-0.8c0.34-0.16,0.7-0.28,1.07-0.4c0.35-0.11,0.64-0.29,0.62-0.7c-0.01-0.4-0.34-0.56-0.68-0.67
	c-0.15-0.05-0.3-0.06-0.45-0.1c-1.12-0.25-2.18-0.65-3.17-1.25c-0.55-0.35-1.12-0.64-1.68-0.96c-1.07-0.6-2.21-1-3.45-1.11
	c-1.49-0.13-2.97-0.12-4.36,0.56c-0.53,0.27-0.99,0.16-1.48-0.16c-0.35-0.24-0.5-0.56-0.66-0.9c-1.85-3.98-3.99-7.81-6.45-11.42
	c-2.14-3.15-4.17-6.37-6.48-9.4c-0.29-0.39-0.59-0.78-0.91-1.16c-0.66-0.83-1.24-1.74-1.83-2.62c-0.15-0.21-0.36-0.41-0.28-0.81
	c0.7,0.03,1.4,0.09,2.09,0.27c0.97,0.26,1.52,0.9,1.64,1.93c0.06,0.54,0.2,1.05,0.44,1.51c0.14,0.27,0.31,0.53,0.52,0.77
	c1.04,1.17,2.19,2.25,3.66,2.87c1.4,0.59,2.86,1.02,4.37,1.26c2.27,0.38,4.53,0.48,6.82,0.2c1.33-0.16,2.65-0.33,3.93-0.7
	c0.26-0.07,0.51-0.14,0.76-0.25c0.81-0.35,0.89-0.93,0.19-1.44c-0.28-0.2-0.59-0.35-0.9-0.51c-2.84-1.46-5.61-3.06-8.36-4.68
	c-1.28-0.76-2.59-1.45-3.91-2.13c-1.43-0.74-2.92-1.02-4.51-0.95c-1.36,0.05-2.67,0.2-3.69,1.3c-1.15-0.4-2.33-0.47-3.49-0.66
	c-0.47-0.08-0.73-0.32-0.97-0.7c-1.49-2.4-2.91-4.82-4.01-7.42c-1.68-4-3.35-8-5.03-12.01c-0.7-1.68-1.17-3.45-1.68-5.2
	c-1.43-4.85-0.91-9.65,0.26-14.43c0.44-1.82,1.02-3.16,1.43-4.21c1.57-3.91,3.32-6.65,4.16-7.95c1.09-1.68,2.04-2.89,2.32-3.24
	c0.53-0.68,0.47-0.56,1.41-1.7c1.13-1.37,2.25-2.74,3.39-4.11c0.44-0.53,0.92-1.02,1.47-1.43c0.16-0.12,0.31-0.36,0.61-0.12
	c-0.16,0.49-0.27,1-0.35,1.53c-0.16,1.03-0.01,2.05,0.11,3.07c0.26,2.33,0.92,4.53,2.13,6.57c0.94,1.57,2.16,2.93,3.29,4.37
	c1.03,1.34,2.23,2.49,3.55,3.53c1.46,1.15,3,2.22,4.54,3.26c0.97,0.66,1.95,1.34,3.09,1.7c0.44,0.14,0.91,0.28,1.27-0.13
	c0.35-0.38,0.08-0.8-0.06-1.17c-0.4-1.03-0.79-2.06-1.05-3.14c-0.42-1.69-0.73-3.41-0.92-5.15c-0.27-2.52-0.97-4.94-1.78-7.3
	c-1.12-3.28-3.1-6-5.92-8.07c-1.03-0.77-2.13-1.28-3.46-1.28c-0.42,0-0.89,0.02-1.37-0.31c0.96-0.72,1.96-1.17,2.96-1.61
	c2.23-0.98,4.48-1.91,6.65-3.03c0.54-0.28,1.11-0.53,1.69-0.68c3.19-0.85,5.94-2.73,8.97-3.95c0.22-0.09,0.37-0.28,0.32-0.54
	c-0.05-0.3-0.27-0.44-0.56-0.48c-0.32-0.03-0.61,0.06-0.89,0.18c-0.41,0.19-0.82,0.4-1.22,0.62c-2.28,1.24-4.6,2.37-7.09,3.13
	c-0.69,0.21-1.34,0.53-2,0.83c-1,0.46-2,0.95-2.98,1.42c-1.76,0.83-3.59,1.5-5.3,2.42c-0.22,0.12-0.42,0.34-0.73,0.23
	c-0.02-0.11-0.05-0.22-0.05-0.33c-0.04-2.14-1.24-3.67-2.8-4.87c-1.52-1.16-3.26-1.89-5.23-2.1c-3.4-0.38-6.69-0.15-9.85,1.23
	c-1.43,0.62-2.85,1.26-4.26,1.93c-1.01,0.48-2,0.92-3.11,1.11c-0.18,0.03-0.37,0.08-0.53,0.17C57.7,6.15,57.68,6.61,58,6.82
	c0.1,0.05,0.21,0.1,0.31,0.14c1.36,0.47,2.73,0.95,4.1,1.4c1.7,0.56,3.4,1.14,4.99,1.97c1.39,0.71,2.86,1.22,4.29,1.84
	c0.49,0.21,1.02,0.33,1.53,0.45c1.46,0.35,2.95,0.37,4.42,0.49c0.21,0.02,0.46-0.08,0.63,0.17c-0.09,0.38-0.42,0.61-0.66,0.9
	c-2.39,2.91-4.82,5.78-6.94,8.91c-1.73,2.54-3.14,5.21-4.14,8.1c-0.2,0.58-0.42,1.14-0.62,1.72c-1.44,4.03-2.03,8.18-1.89,12.45
	c0.01,0.44-0.04,0.82-0.27,1.18c-1.61,2.45-3.25,4.88-5.28,7.02c-1.54,1.63-3.4,2.79-5.48,3.61c-0.97,0.38-1.97,0.59-3.01,0.46
	c-1.31-0.16-2-0.86-2.07-2.16c-0.06-1.23,0.07-2.43,0.45-3.61c0.08-0.25,0.14-0.52,0.41-0.64c1.96,0.1,2.44,0.05,3.65-0.58
	c2-1.03,3.56-2.58,4.81-4.45c0.44-0.65,0.57-1.4,0.49-2.18c-0.09-0.87-0.63-1.37-1.51-1.42c-0.58-0.03-1.14,0.08-1.67,0.31
	c-0.67,0.28-1.29,0.66-1.85,1.12c-1.61,1.3-3.02,2.78-4.06,4.59c-0.14,0.25-0.2,0.59-0.61,0.7c-0.97-0.98-1.52-2.13-1.58-3.53
	c-0.14-3.08,1.03-5.64,3.18-7.79c1.35-1.36,2.97-2.37,4.82-2.94c0.55-0.17,1.12-0.25,1.69-0.12c0.29,0.06,0.45,0.26,0.46,0.56
	c0.01,0.48-0.09,0.91-0.39,1.28c-0.2,0.27-0.29,0.55-0.01,0.81c0.23,0.23,0.57,0.15,0.88-0.21c0.48-0.55,0.65-1.21,0.61-1.91
	c-0.05-0.99-0.58-1.52-1.57-1.62c-0.65-0.06-1.29,0.02-1.92,0.2c-3.88,1.14-8.65,5.1-8.83,10.91c-0.05,1.85,0.41,3.45,1.62,4.84
	c0.22,0.26,0.55,0.43,0.63,0.86c-0.07,0.24-0.16,0.53-0.27,0.81c-0.46,1.23-0.57,2.53-0.56,3.82c0.01,2.05,1.17,3.24,3.2,3.45
	c1.33,0.14,2.56-0.16,3.77-0.68c2.54-1.06,4.7-2.65,6.46-4.77c1.26-1.52,2.41-3.13,3.55-4.75c0.14-0.19,0.21-0.48,0.57-0.51
	c0.28,1.13,0.52,2.24,0.84,3.33c0.37,1.26,0.25,2.54-0.17,3.7c-0.6,1.64-1.35,3.25-2.55,4.56c-1.62,1.76-2.97,3.74-4.58,5.53
	c-0.76,0.86-1.61,1.24-2.7,1.1c-1.06-0.13-2.11-0.28-3.14-0.59c-1.98-0.58-3.9-0.53-5.72,0.58c-0.88,0.53-1.78,1.01-2.67,1.53
	c-1.4,0.82-2.59,1.87-3.51,3.21c-1.91,2.81-3.19,5.86-3.62,9.25c-0.37,2.85-0.51,5.68-0.05,8.53c0.26,1.57,0.52,3.15,1.11,4.65
	c0.53,1.38,1.19,2.73,1.26,4.25c0.01,0.24,0.12,0.46,0.35,0.55c0.29,0.11,0.51-0.05,0.69-0.27c0.18-0.25,0.35-0.5,0.51-0.76
	c0.91-1.49,1.78-3.02,2.73-4.49c1.61-2.47,3.84-4.41,5.86-6.53c0.02-0.03,0.05-0.05,0.08-0.07c1.62-1.25,3.23-2.54,4.87-3.77
	c2.95-2.23,4.6-5.23,5.11-8.84c0.37-2.61,0.57-5.24-0.41-7.76c0.21-0.3,0.35-0.59,0.57-0.78c0.94-0.85,1.64-1.89,2.37-2.91
	c0.22-0.31,0.49-0.59,0.75-0.86c1.23-1.28,2.21-2.71,2.93-4.33c0.28-0.64,0.62-1.26,0.94-1.89c0.25,0.13,0.28,0.32,0.36,0.49
	c0.32,0.77,0.64,1.55,0.97,2.32c2.14,5,3.92,10.16,6.65,14.89c0.14,0.24,0.2,0.49,0.17,0.76c-0.11,1.11-0.46,2.14-0.77,3.23
	c-1.06-0.08-1.8,0.43-2.52,1.02c-0.08,0.07-0.18,0.13-0.27,0.2c-1.03,0.83-1.82,1.88-2.14,3.17c-0.85,3.47-0.7,6.87,1,10.1
	c0.3,0.57,0.59,1.14,0.92,1.7c0.76,1.33,1.35,2.72,1.73,4.21c0.1,0.37,0.23,0.72,0.38,1.08c0.1,0.25,0.3,0.44,0.61,0.42
	s0.46-0.23,0.56-0.49c0.23-0.65,0.36-1.33,0.43-2c0.11-0.95,0.33-1.88,0.66-2.77c0.58-1.61,1.2-3.2,1.75-4.82
	c1.03-2.97,1.17-5.95-0.16-8.9c-0.39-0.87-0.81-1.72-1.37-2.49c-0.16-0.21-0.41-0.41-0.34-0.7c0.13-0.53,0.13-1.12,0.58-1.65
	c0.26,0.38,0.47,0.7,0.66,1.02c1.23,2.06,2.58,4.04,4.05,5.93c0.7,0.91,1.38,1.82,2.01,2.77c1.28,1.93,2.58,3.86,3.95,5.74
	c1.14,1.57,2.13,3.24,3.09,4.93c0.54,0.96,1.08,1.92,1.64,2.87c0.89,1.51,1.68,3.07,2.38,4.68c0.74,1.68,0.76,1.75-0.88,2.47
	c-1.55,0.69-2.73,1.79-3.86,2.97c-0.9,0.92-1.45,2.04-1.55,3.35c-0.06,0.83-0.16,1.67-0.21,2.5c-0.06,1.03,0.05,2.06,0.34,3.05
	c0.36,1.28,0.88,2.52,1.13,3.84c0.1,0.55,0.39,0.81,0.7,0.76c0.42-0.05,0.5-0.41,0.59-0.74c0.34-1.14,0.71-2.25,1.17-3.34
	c0.95-2.23,1.87-4.49,2.86-6.72c0.46-1.03,0.63-2.11,0.59-3.21c-0.02-0.57,0.01-1.14-0.14-1.7c-0.05-0.16-0.08-0.39,0.25-0.44
	c0.28,0.31,0.36,0.72,0.47,1.12c0.72,2.6,1.46,5.2,2.14,7.81c0.63,2.4,1.12,4.81,1.13,7.31c0,1.12-0.13,1.29-1.25,1.47
	c-0.41,0.07-0.83,0.12-1.24,0.23c-1.63,0.43-3.09,1.24-4.51,2.13c-0.92,0.59-1.64,1.36-2.15,2.32c-0.31,0.57-0.58,1.15-0.83,1.75
	c-1.62,3.68-1.75,7.61-1.9,11.52c-0.01,0.18,0.02,0.38,0.07,0.56c0.12,0.38,0.56,0.49,0.81,0.19c0.16-0.2,0.3-0.44,0.41-0.68
	c0.49-1.01,1.14-1.88,1.93-2.66c0.86-0.86,1.62-1.82,2.39-2.76c0.86-1.06,1.72-2.13,2.65-3.14c0.92-0.99,1.65-2.1,2.31-3.25
	c0.51-0.88,0.85-1.85,1.24-2.79c0.02,0.66,0.01,1.31-0.05,1.95c-0.06,0.7-0.14,2.3-0.42,4.09c-0.24,1.47-0.81,4.92-2.65,8.81
	c-0.54,1.14-0.42,0.71-1.62,3.06c-0.71,1.39-1.68,2.63-2.47,3.97c-0.08,0.14-0.25,0.42-0.59,0.61c-0.28,0.16-0.63,0.22-1.02,0.2
	c-0.23-0.01-0.46-0.04-0.69-0.06c-1.17-0.16-2.34-0.22-3.52-0.22c-1.36,0.01-2.64,0.3-3.84,0.92c-1.86,0.96-3.36,2.35-4.73,3.89
	c-0.38,0.43-0.71,0.89-1.05,1.35c-0.17,0.23-0.21,0.51-0.05,0.75c0.16,0.26,0.45,0.27,0.72,0.2c0.44-0.13,0.88-0.25,1.31-0.39
	c1.7-0.54,3.41-1.02,5.2-1.26c1.51-0.21,2.97-0.66,4.27-1.51c0.26-0.16,0.53-0.3,0.79-0.47c0.27-0.16,0.51-0.36,0.85-0.58
	c-0.06,0.41-0.25,0.61-0.4,0.81c-3.08,4.06-6.02,8.24-9.36,12.09c-1.49,1.73-3.04,3.41-4.56,5.11c-0.39,0.45-0.81,0.89-1.22,1.31
	c-0.91,0.92-1.63,1.57-2.02,1.91c-2.82,2.49-4.35,3.7-6.7,5.86c-0.39,0.37-0.7,0.66-0.89,0.82c-0.21,0.23-0.55,0.57-0.97,1
	c-0.26,0.27-0.43,0.44-0.95,0.96c-1.45,1.46-1.85,1.86-2.39,2.53c-0.09,0.12-0.2,0.26-0.35,0.45c-3.48,4.54-5.03,6.91-6.58,9.45
	c-1.64,2.67-2.79,5.57-3.7,8.57c-0.36,1.16-1.03,2-2,2.67c-0.56,0.39-1.14,0.59-1.81,0.51c-1.34-0.16-2.48,0.29-3.48,1.13
	c-1.81,1.51-3.14,3.41-4.23,5.47c-0.16,0.3-0.27,0.63-0.38,0.95c-0.38,1.07-0.77,2.14-1.14,3.22c-0.1,0.28-0.2,0.59-0.21,0.88
	c-0.02,0.56,0.42,0.85,0.92,0.62c0.38-0.18,0.72-0.41,1.06-0.66c2.01-1.45,3.95-2.98,6.04-4.31c1.99-1.25,3.08-3.12,2.77-5.6
	c-0.04-0.26-0.05-0.53,0.16-0.86c0.35-0.07,0.62-0.5,1.09-0.55c0.12,0.25,0.01,0.42-0.04,0.6c-0.49,1.96-0.88,3.94-1.18,5.93
	c-0.88,5.79-1.55,11.62-1.35,17.5c0.11,3.54,0.31,7.07,1.17,10.53c0.81,3.29,1.85,6.51,3,9.69c0.11,0.32,0.23,0.64,0.33,0.97
	c0.22,0.69,0.05,1.26-0.48,1.76c-0.36,0.35-0.74,0.63-1.2,0.86c-0.9,0.44-1.46,1.17-1.76,2.13c-0.23,0.73-0.34,1.48-0.27,2.25
	c0.15,1.48,0.38,2.94,0.99,4.31c0.27,0.63,0.46,1.29,0.69,1.94c0.15,0.39,0.29,0.78,0.47,1.16c0.12,0.26,0.34,0.44,0.62,0.42
	c0.35-0.02,0.55-0.25,0.64-0.57c0.04-0.15,0.06-0.3,0.1-0.45c0.43-1.81,0.97-3.6,1.45-5.39c0.53-2,0.49-4-0.66-5.84
	c-0.05-0.06-0.09-0.13-0.12-0.2c-0.08-0.27,0.06-0.42,0.31-0.52c0.33,0.28,0.45,0.7,0.64,1.06c2.63,5.03,5.37,9.98,8.92,14.45
	c1.62,2.06,3.05,4.27,4.92,6.14c2.87,2.86,5.3,6.08,7.74,9.29c1.08,1.42,2.05,2.93,2.93,4.49c0.16,0.29,0.39,0.56,0.38,0.96
	c-0.49,0.32-1.03,0.23-1.52,0.04c-1.54-0.58-2.98-1.27-4.08-2.6c-0.58-0.7-1.13-1.43-1.68-2.15c-0.81-1.05-1.63-2.11-2.46-3.14
	c-0.46-0.57-1.04-0.99-1.67-1.37c-1.62-1.02-4.29-0.6-5.68,0.86c-0.26,0.27-0.49,0.57-0.6,0.95c-0.11,0.39,0.21,0.68,0.36,1.03
	c-0.52,0.07-0.98,0.11-1.43,0.2c-1.37,0.3-2.78,0.55-3.97,1.35c-3.24,2.17-5.24,5.23-6.21,8.98c-0.05,0.22-0.06,0.46-0.05,0.69
	c0.04,0.7,0.34,0.95,1.03,0.78c0.74-0.18,1.49-0.29,2.25-0.34c0.17-0.01,0.38-0.06,0.49,0.16c-0.03,0.07-0.03,0.16-0.06,0.21
	c-1.72,1.87-2.75,4.08-3.26,6.55c-0.24,1.12-0.46,2.23-0.5,3.38c-0.03,0.69-0.05,1.38-0.17,2.05c-0.4,1.94-0.49,3.93-0.76,5.89
	c-0.04,0.26-0.03,0.53,0.03,0.79c0.09,0.45,0.42,0.61,0.85,0.47c0.15-0.05,0.27-0.13,0.42-0.19c1.68-0.73,3.34-1.46,5.03-2.18
	c2.65-1.14,5.33-2.24,7.99-3.36c1.14-0.49,2.13-1.17,2.83-2.23c0.15-0.21,0.27-0.47,0.59-0.54c0.27,0.81,0.52,1.64,0.82,2.45
	c0.2,0.53,0.44,1.05,0.72,1.54c0.31,0.53,0.76,0.59,1.26,0.25c0.16-0.11,0.28-0.26,0.42-0.39c0.67-0.67,1.34-1.35,2.01-2.01
	c1.72-1.71,2.95-3.77,4.09-5.88c0.84-1.56,1.26-3.25,1.51-5c0.14-0.98,0.34-1.95,0.55-2.91c0.25-1.1,0.96-1.85,1.91-2.47
	c0.56,0.86,0.92,1.74,1.33,2.59c1.56,3.19,2.86,6.47,3.8,9.89c0.22,0.81,0.19,1.58-0.08,2.35c-0.27,0.72-0.59,0.9-1.32,0.58
	c-0.64-0.27-1.17-0.17-1.72,0.16c-0.62,0.38-1.25,0.72-1.87,1.1c-1.51,0.92-2.43,2.3-2.98,3.92c-0.68,1.97-0.77,4.01-0.63,6.08
	c0.1,1.56,0.71,2.95,1.14,4.4c0.08,0.27,0.27,0.55,0.47,0.77c0.39,0.45,0.87,0.43,1.25-0.05c0.19-0.24,0.32-0.51,0.47-0.78
	c1.42-2.61,2.73-5.27,4.3-7.8c0.29-0.48,0.52-1.01,0.78-1.52c0.27-0.55,0.41-1.13,0.49-1.75c0.15-1.19-0.12-2.33-0.36-3.5
	c0.16-0.15,0.28-0.27,0.43-0.39c0.09-0.06,0.19-0.11,0.36-0.19c0.06,0.24,0.15,0.45,0.18,0.66c0.54,2.92,0.88,5.87,1.05,8.83
	c0.11,1.78,0.06,3.61-0.43,5.33c-1.33,4.6-3.29,8.91-6.45,12.62c-0.75-0.05-1.46-0.25-2.2-0.68c-0.64-0.37-1.32-0.56-2.04-0.64
	c-1.84-0.21-3.65-0.08-5.43,0.42c-1,0.27-1.96,0.21-2.89-0.23c-0.24-0.11-0.49-0.21-0.72-0.33c-0.82-0.45-1.68-0.47-2.54-0.17
	c-0.97,0.33-1.91,0.73-2.78,1.3c-1.14,0.75-2.28,1.51-3.43,2.25c-3.56,2.3-5.57,5.64-6.55,9.67c-0.12,0.48-0.2,0.98-0.14,1.47
	c0.07,0.49,0.47,0.71,0.92,0.51c0.2-0.09,0.39-0.23,0.58-0.37c0.46-0.34,0.92-0.67,1.35-1.04c0.74-0.66,1.6-0.99,2.57-1.11
	c0.99-0.13,1.96-0.3,2.94-0.44c1.27-0.18,2.4-0.71,3.46-1.41c0.72-0.49,1.42-1.03,2.06-1.62c0.94-0.9,1.95-1.72,3.16-2.22
	c0.94-0.39,1.93-0.69,2.88-1.06c0.55-0.22,1.1-0.33,1.68-0.22c1.59,0.31,3.1,0.07,4.54-0.67c0.17-0.09,0.39-0.28,0.61,0.02
	c-0.81,1.41-1.83,2.69-2.85,3.96c-1.5,1.89-2.77,3.91-3.85,6.05c-0.41,0.81-0.86,1.61-1.39,2.36c-0.19,0.27-0.34,0.59-0.71,0.73
	c-0.36-0.05-0.73-0.11-1.11-0.13c-0.75-0.03-1.46,0.12-2.02,0.63c-0.51,0.45-1.03,0.92-1.47,1.42c-0.81,0.92-1.29,1.97-1.3,3.21
	c-0.01,1.13,0.23,2.2,0.7,3.2c0.27,0.6,0.89,0.6,1.25,0.05c0.14-0.23,0.23-0.49,0.35-0.72c0.29-0.58,0.55-1.17,0.9-1.71
	c0.33-0.51,0.66-1.05,1.24-1.54c0.31,1.74,0.9,3.21,1.64,4.64c0.43,0.82,1.02,1.51,1.77,2.06c0.3,0.22,0.59,0.51,1.03,0.29
	c0.41-0.21,0.39-0.6,0.33-1c-0.01-0.07-0.03-0.15-0.04-0.22c-0.06-1.64-0.36-3.25-0.34-4.9c0.03-1.56-0.44-2.99-1.32-4.29
	c-0.13-0.18-0.3-0.35-0.27-0.73c0.7-1.04,1.37-2.23,2-3.45c0.62-1.22,1.29-2.42,2.11-3.52c0.83-1.14,1.71-2.22,2.54-3.36
	c0.8-1.09,1.56-2.2,2.33-3.3c-0.13,0.78-0.38,1.49-0.67,2.19c-0.09,0.24-0.25,0.47-0.38,0.69c-1.31,2.01-2.09,4.22-2.43,6.59
	c-0.2,1.4-0.08,2.8-0.04,4.21c0.05,2.15,0.91,3.97,2.1,5.68c0.36,0.5,0.8,0.92,1.28,1.3c0.78,0.6,1.57,1.2,2.33,1.83
	c1.57,1.3,3.26,2.35,5.24,2.94c0.69,0.2,1.35,0.51,2,0.82c0.83,0.39,1.68,0.7,2.58,0.91c1.12,0.26,2.21,0.58,3.27,1.02
	c0.46,0.19,0.95,0.28,1.45,0.27c0.59-0.02,0.83-0.4,0.59-0.92c-0.23-0.48-0.5-0.93-0.78-1.39c-2.52-4.2-4.06-8.74-4.7-13.59
	c-0.25-1.81-0.56-3.62-1.13-5.35c-0.3-0.94-0.66-1.87-1.22-2.69c-1.39-2.06-3.15-3.7-5.35-4.86c-0.67-0.35-1.33-0.75-2.09-0.77
	c-0.21-0.41-0.38-0.78-0.56-1.12c0.66-1.2,1.24-2.15,1.63-2.79c0.95-1.55,1.48-2.24,2.18-3.6c0.48-0.9,0.8-1.67,0.99-2.15
	c0.12-0.27,0.27-0.69,0.45-1.19c0.17-0.47,1.88-4.38,1.68-8.67c-0.28-6-1.21-11.88-3.23-17.56c-0.08-0.24-0.27-0.47-0.11-0.76
	c0.59-0.04,1,0.13,1.09,0.82c0.06,0.44,0.27,0.87,0.41,1.3c0.68,2.08,2.17,3.38,4.15,4.1c2.44,0.89,5.01,0.9,7.56,0.86
	c0.26,0,0.53-0.08,0.77-0.17c0.5-0.19,1.03-0.3,1.56-0.35c0.35-0.04,0.68-0.1,0.97-0.31c0.46-0.33,0.49-0.79,0.07-1.14
	c-0.12-0.1-0.25-0.18-0.38-0.24c-1.48-0.66-2.7-1.7-3.94-2.72c-1.21-0.99-2.48-1.89-3.83-2.68c-1.99-1.15-4.05-1.54-6.18-0.34
	c-0.16,0.09-0.34,0.16-0.49,0.22c-0.44-0.13-0.84-0.22-1.24-0.36c-0.75-0.26-1.34-0.71-1.69-1.43c-0.22-0.44-0.36-0.78-0.38-0.83
	c-0.44-1.28-8.23-14.97-13.01-19.86c-0.19-0.19-1.03-1.03-2.11-2.24c-1.14-1.28-1.95-2.29-2.21-2.61c-1.35-1.68-2.2-3.06-2.7-3.69
	c-3.5-4.41-6.07-9.38-8.65-14.34c-0.12-0.23-0.3-0.45-0.16-0.74c1.37-0.07,1.62,0.25,2.15,1.24c0.72,1.37,1.79,2.35,3.38,2.65
	c0.29,0.06,0.59,0.14,0.89,0.19c2.32,0.45,4.62,0.1,6.92-0.21c0.36-0.05,0.82-0.05,0.91-0.54c0.07-0.43-0.34-0.53-0.61-0.72
	c-1.41-0.97-2.96-1.71-4.28-2.82c-0.65-0.54-1.47-0.78-2.32-0.89c-1.17-0.16-2.35-0.18-3.53-0.18c-0.46-0.01-0.92,0.06-1.3,0.34
	c-0.24,0.16-0.49,0.2-0.76,0.15c-0.41-0.08-0.82-0.16-1.24-0.2c-0.6-0.06-0.96-0.43-1.2-0.92c-0.16-0.31-0.27-0.63-0.38-0.96
	c-0.55-1.66-1.14-3.3-1.65-4.98c-0.64-2.12-1.42-4.97-1.9-8.69c-0.54-4.12-0.42-7.35-0.3-10.48c0.1-2.44,0.29-4.59,0.39-5.54
	c0.05-0.42,0.17-1.74,0.49-3.96c1.22-8.78,2.43-11.73,2.84-12.91c0.15-0.42,0.23-0.87,0.53-1.22c0.7,0.54,0.78,0.71,0.52,1.44
	c-0.19,0.54-0.38,1.08-0.37,1.66c0,1.42,0.42,2.7,1.3,3.82c0.83,1.04,1.81,1.96,2.96,2.65c1.14,0.69,2.31,1.34,3.48,1.98
	c0.49,0.27,1.02,0.51,1.56,0.7c0.59,0.21,1.01,0.12,1.14-0.17c0.2-0.44-0.11-0.72-0.37-0.99c-0.83-0.87-1.39-1.9-1.86-2.99
	c-0.55-1.25-1.06-2.53-1.48-3.83c-0.29-0.89-0.77-1.67-1.51-2.24c-0.93-0.73-1.88-1.44-3.12-1.56c-0.32-0.04-0.58-0.15-0.75-0.44
	c-0.1-0.16-0.22-0.32-0.37-0.43c-0.74-0.58-0.7-1.22-0.34-2.01c0.8-1.81,1.61-3.62,2.68-5.29c2.52-3.89,5.03-7.79,8.38-11.07
	c1.99-1.95,3.94-3.92,6.05-5.73c2.68-2.3,5.42-4.55,7.73-7.25c0.09-0.11,0.19-0.25,0.38-0.23c0.3,0.16,0.3,0.4,0.19,0.67
	c-0.37,0.84-0.79,1.66-1.57,2.2c-0.57,0.4-1.03,0.91-1.45,1.46c-1.12,1.45-2.25,2.87-3.35,4.33c-0.9,1.18-1.72,2.42-2.35,3.77
	c-0.48,1.03-0.69,2.1-0.7,3.2c-0.02,1.29,0.49,2.03,1.55,2.31c-0.25,0.68-0.48,1.35-0.74,2.02c-0.25,0.64-0.44,1.3-0.57,1.97
	c-0.62,3.38-0.4,6.69,0.87,9.88c0.7,1.73,1.65,3.34,3.15,4.55c0.36,0.28,0.71,0.57,0.94,0.98c0.11,0.22,0.28,0.38,0.55,0.31
	c0.25-0.06,0.34-0.28,0.38-0.52c0.05-0.38-0.05-0.8,0.24-1.29c0.34,0.79,0.65,1.43,1.05,2.02c0.49,0.72,0.98,1.46,1.42,2.21
	c1.05,1.81,2.46,3.27,4.21,4.42c2.16,1.43,4.41,2.71,6.44,4.32c0.44,0.35,0.94,0.63,1.43,0.92s0.93,0.08,1-0.48
	c0.04-0.26,0-0.53-0.02-0.8c-0.17-2.81-0.05-5.63-0.02-8.44c0.05-2.7,0.16-5.4,0.22-8.1c0.03-1.03-0.08-2.06-0.05-3.08
	c0.04-1.22,0.04-2.43-0.09-3.64c-0.23-2.32-0.67-4.6-2.16-6.52c-0.07-0.09-0.12-0.19-0.06-0.32c0.15-0.16,0.35-0.06,0.52-0.08
	c0.79-0.05,1.01-0.26,1.06-1.03c0.02-0.38-0.02-0.76-0.04-1.14c-0.28-4.48-2.13-8.37-4.46-12.07c-0.43-0.69-1.03-1.23-1.69-1.68
	c-1.43-0.94-2.85-1.92-4.59-2.04c-0.13-0.29-0.24-0.49-0.31-0.7c-0.08-0.21-0.24-0.4-0.13-0.74c5.1-5.69,9.82-11.79,14.11-18.23
	c0.04-0.05,0.1-0.11,0.16-0.16c0.03-0.02,0.06-0.04,0.1-0.04s0.06,0.03,0.14,0.06c0.12,0.21,0.06,0.49,0.06,0.74
	c0.01,0.6,0,1.22,0.04,1.82c0.06,0.96,0.24,1.89,0.84,2.69c1.33,1.75,2.85,3.27,4.96,4.06c0.8,0.3,1.45,0.83,1.95,1.53
	c0.14,0.18,0.27,0.37,0.43,0.53c0.28,0.3,0.59,0.36,0.8,0.16c0.27-0.26,0.2-0.55,0.04-0.82c-0.1-0.16-0.22-0.31-0.33-0.47
	c-1.46-1.98-2.6-4.11-3.3-6.47c-0.22-0.73-0.51-1.44-0.79-2.14c-0.27-0.68-0.67-1.28-1.14-1.83c-0.57-0.67-1.25-1.11-2.15-1.16
	c-0.21-0.02-0.47,0.03-0.6-0.22c0.02-0.08,0.01-0.16,0.05-0.22c0.16-0.27,0.31-0.52,0.48-0.78c1.48-2.32,2.86-4.68,3.92-7.21
	c0.99-2.4,1.77-4.86,2.03-7.46c0.33-3.14,0.76-6.27,0.61-9.45c-0.01-0.18-0.06-0.42,0.17-0.57c0.07,0.11,0.14,0.16,0.15,0.24
	c0.4,1.9,1.43,3.51,2.53,5.06c1.79,2.52,4.51,3.5,7.29,4.36c0.15,0.05,0.3,0.05,0.46,0.07c2.42,0.24,4.84,0.48,7.27,0.7
	c0.11,0.02,0.23,0.02,0.34,0.02c0.38-0.01,0.81,0.04,1-0.38C118.37,132.48,117.98,132.26,117.69,132.02z M49.45,49.38
	c1.06-1.97,2.57-3.55,4.36-4.87c0.43-0.32,0.9-0.58,1.4-0.74c0.45-0.14,0.89-0.23,1.35,0.05c0.28,0.59,0.15,1.19-0.19,1.7
	c-1.26,1.89-2.82,3.47-4.96,4.36c-0.68,0.28-1.37,0.4-2.06,0.18C49.18,49.75,49.35,49.57,49.45,49.38z"/>
<path class="st2" d="M83.09,292.53c-0.38-1.08-0.76-2.15-1.14-3.22c-0.11-0.32-0.23-0.65-0.38-0.95c-1.09-2.07-2.42-3.96-4.23-5.47
	c-1-0.83-2.14-1.28-3.48-1.13c-0.68,0.07-1.25-0.12-1.81-0.51c-0.97-0.68-1.64-1.51-2-2.67c-0.91-2.99-2.06-5.89-3.7-8.57
	c-1.55-2.54-3.1-4.91-6.58-9.45c-0.15-0.19-0.26-0.33-0.35-0.45c-0.54-0.67-0.94-1.07-2.39-2.53c-0.52-0.52-0.7-0.7-0.95-0.96
	c-0.42-0.43-0.76-0.77-0.97-1c-0.18-0.16-0.49-0.46-0.89-0.82c-2.35-2.16-3.88-3.37-6.7-5.86c-0.39-0.35-1.12-0.99-2.02-1.91
	c-0.41-0.42-0.82-0.86-1.22-1.31c-1.52-1.7-3.07-3.38-4.56-5.11c-3.34-3.85-6.28-8.03-9.36-12.09c-0.16-0.2-0.34-0.4-0.4-0.81
	c0.34,0.22,0.59,0.41,0.85,0.58c0.26,0.16,0.53,0.3,0.79,0.47c1.3,0.85,2.76,1.3,4.27,1.51c1.78,0.25,3.5,0.72,5.2,1.26
	c0.43,0.15,0.87,0.27,1.31,0.39c0.27,0.07,0.56,0.05,0.72-0.2c0.16-0.24,0.12-0.52-0.05-0.75c-0.34-0.46-0.68-0.92-1.05-1.35
	c-1.37-1.54-2.87-2.93-4.73-3.89c-1.21-0.62-2.48-0.92-3.84-0.92c-1.18,0-2.35,0.06-3.52,0.22c-0.23,0.03-0.46,0.05-0.69,0.06
	c-0.38,0.02-0.73-0.04-1.02-0.2c-0.34-0.19-0.5-0.48-0.59-0.61c-0.79-1.35-1.76-2.58-2.47-3.97c-1.2-2.34-1.08-1.92-1.62-3.06
	c-1.83-3.89-2.41-7.33-2.65-8.81c-0.28-1.79-0.36-3.4-0.42-4.09c-0.06-0.64-0.07-1.29-0.05-1.95c0.39,0.94,0.73,1.91,1.24,2.79
	c0.66,1.15,1.39,2.26,2.31,3.25c0.92,1.01,1.78,2.08,2.65,3.14c0.77,0.94,1.53,1.9,2.39,2.76c0.79,0.79,1.45,1.66,1.93,2.66
	c0.11,0.24,0.25,0.48,0.41,0.68c0.26,0.29,0.7,0.18,0.81-0.19c0.05-0.17,0.08-0.38,0.07-0.56c-0.16-3.92-0.28-7.84-1.9-11.52
	c-0.26-0.59-0.52-1.18-0.83-1.75c-0.51-0.95-1.23-1.73-2.15-2.32c-1.42-0.9-2.88-1.7-4.51-2.13c-0.4-0.11-0.82-0.16-1.24-0.23
	c-1.13-0.18-1.25-0.36-1.25-1.47c0.01-2.5,0.49-4.92,1.13-7.31c0.69-2.61,1.42-5.21,2.14-7.81c0.11-0.39,0.18-0.81,0.47-1.12
	c0.33,0.05,0.29,0.27,0.25,0.44c-0.15,0.56-0.12,1.14-0.14,1.7c-0.04,1.11,0.14,2.18,0.59,3.21c0.99,2.22,1.9,4.49,2.86,6.72
	c0.46,1.09,0.83,2.21,1.17,3.34c0.09,0.33,0.17,0.69,0.59,0.74c0.3,0.05,0.59-0.21,0.7-0.76c0.25-1.32,0.77-2.55,1.13-3.84
	c0.28-0.99,0.4-2.01,0.34-3.05c-0.05-0.83-0.15-1.67-0.21-2.5c-0.1-1.31-0.65-2.43-1.55-3.35c-1.14-1.18-2.32-2.29-3.86-2.97
	c-1.64-0.72-1.62-0.79-0.88-2.47c0.7-1.61,1.49-3.17,2.38-4.68c0.56-0.95,1.1-1.91,1.64-2.87c0.96-1.69,1.95-3.36,3.09-4.93
	c1.36-1.88,2.66-3.81,3.95-5.74c0.63-0.95,1.32-1.87,2.01-2.77c1.46-1.89,2.82-3.87,4.05-5.93c0.19-0.32,0.4-0.63,0.66-1.02
	c0.45,0.53,0.45,1.12,0.58,1.65c0.07,0.28-0.18,0.49-0.34,0.7c-0.57,0.77-0.98,1.62-1.37,2.49c-1.34,2.95-1.19,5.92-0.16,8.9
	c0.55,1.62,1.17,3.21,1.75,4.82c0.33,0.9,0.55,1.82,0.66,2.77c0.07,0.68,0.2,1.35,0.43,2c0.1,0.27,0.25,0.48,0.56,0.49
	s0.51-0.17,0.61-0.42c0.15-0.36,0.27-0.71,0.38-1.08c0.38-1.49,0.97-2.88,1.73-4.21c0.33-0.56,0.62-1.14,0.92-1.7
	c1.7-3.23,1.85-6.63,1-10.1c-0.32-1.29-1.11-2.33-2.14-3.17c-0.09-0.07-0.19-0.13-0.27-0.2c-0.71-0.59-1.46-1.1-2.52-1.02
	c-0.31-1.09-0.66-2.12-0.77-3.23c-0.03-0.27,0.04-0.52,0.17-0.76c2.73-4.73,4.5-9.89,6.65-14.89c0.33-0.77,0.65-1.55,0.97-2.32
	c0.07-0.17,0.11-0.37,0.36-0.49c0.32,0.62,0.66,1.24,0.94,1.89c0.72,1.62,1.7,3.05,2.93,4.33c0.27,0.27,0.53,0.55,0.75,0.86
	c0.73,1.02,1.43,2.06,2.37,2.91c0.22,0.19,0.36,0.48,0.57,0.78c-0.98,2.53-0.78,5.15-0.41,7.76c0.5,3.62,2.16,6.61,5.11,8.84
	c1.64,1.24,3.25,2.52,4.87,3.77c0.03,0.03,0.06,0.05,0.08,0.07c2.02,2.11,4.25,4.05,5.86,6.53c0.95,1.46,1.82,2.99,2.73,4.49
	c0.16,0.26,0.33,0.51,0.51,0.76c0.17,0.22,0.39,0.38,0.69,0.27c0.23-0.09,0.34-0.31,0.35-0.55c0.07-1.52,0.73-2.86,1.26-4.25
	c0.59-1.5,0.85-3.08,1.11-4.65c0.47-2.85,0.32-5.68-0.05-8.53c-0.43-3.4-1.71-6.44-3.62-9.25c-0.92-1.35-2.11-2.39-3.51-3.21
	c-0.89-0.52-1.79-1-2.67-1.53c-1.82-1.11-3.74-1.15-5.72-0.58c-1.03,0.3-2.08,0.46-3.14,0.59c-1.09,0.14-1.94-0.24-2.7-1.1
	c-1.6-1.78-2.96-3.77-4.58-5.53c-1.21-1.31-1.95-2.92-2.55-4.56c-0.42-1.16-0.54-2.43-0.17-3.7c0.32-1.09,0.56-2.21,0.84-3.33
	c0.36,0.04,0.43,0.32,0.57,0.51c1.14,1.62,2.29,3.23,3.55,4.75c1.77,2.11,3.92,3.71,6.46,4.77c1.21,0.51,2.44,0.81,3.77,0.68
	c2.03-0.21,3.19-1.4,3.2-3.45c0.01-1.29-0.1-2.59-0.56-3.82c-0.11-0.28-0.19-0.58-0.27-0.81c0.08-0.43,0.41-0.6,0.63-0.86
	c1.21-1.39,1.68-2.99,1.62-4.84c-0.18-5.81-4.95-9.77-8.83-10.91c-0.63-0.18-1.27-0.27-1.92-0.2c-1,0.1-1.52,0.63-1.57,1.62
	c-0.04,0.7,0.14,1.36,0.61,1.91c0.31,0.36,0.65,0.44,0.88,0.21c0.28-0.27,0.19-0.55-0.01-0.81c-0.3-0.38-0.4-0.81-0.39-1.28
	c0.01-0.3,0.16-0.49,0.46-0.56c0.58-0.13,1.14-0.05,1.69,0.12c1.86,0.57,3.47,1.57,4.82,2.94c2.14,2.15,3.31,4.7,3.18,7.79
	c-0.06,1.4-0.61,2.55-1.58,3.53c-0.41-0.11-0.48-0.45-0.61-0.7c-1.04-1.8-2.45-3.29-4.06-4.59c-0.56-0.46-1.18-0.83-1.85-1.12
	c-0.53-0.23-1.09-0.34-1.67-0.31c-0.88,0.05-1.42,0.55-1.51,1.42c-0.07,0.78,0.05,1.53,0.49,2.18c1.25,1.87,2.81,3.41,4.81,4.45
	c1.21,0.62,1.69,0.68,3.65,0.58c0.27,0.12,0.33,0.39,0.41,0.64c0.38,1.17,0.51,2.38,0.45,3.61c-0.06,1.3-0.76,2-2.07,2.16
	c-1.04,0.13-2.04-0.07-3.01-0.46c-2.09-0.81-3.95-1.98-5.48-3.61c-2.03-2.14-3.67-4.57-5.28-7.02c-0.24-0.36-0.28-0.74-0.27-1.18
	c0.15-4.27-0.45-8.42-1.89-12.45c-0.2-0.58-0.42-1.14-0.62-1.72c-1-2.89-2.41-5.57-4.14-8.1c-2.11-3.12-4.55-6-6.94-8.91
	c-0.24-0.28-0.57-0.51-0.66-0.9c0.17-0.26,0.42-0.16,0.63-0.17c1.47-0.13,2.97-0.15,4.42-0.49c0.51-0.12,1.04-0.24,1.53-0.45
	c1.43-0.62,2.9-1.13,4.29-1.84c1.59-0.82,3.29-1.41,4.99-1.97c1.37-0.45,2.74-0.93,4.1-1.4c0.1-0.04,0.21-0.08,0.31-0.14
	c0.31-0.21,0.29-0.67-0.05-0.84c-0.16-0.09-0.35-0.15-0.53-0.17c-1.11-0.18-2.11-0.63-3.11-1.11c-1.41-0.67-2.83-1.31-4.26-1.93
	c-3.16-1.37-6.45-1.6-9.85-1.23c-1.97,0.21-3.71,0.93-5.23,2.1c-1.57,1.2-2.76,2.73-2.8,4.87c0,0.11-0.03,0.22-0.05,0.33
	c-0.31,0.11-0.51-0.11-0.73-0.23c-1.71-0.92-3.54-1.58-5.3-2.42c-0.99-0.47-1.99-0.96-2.98-1.42c-0.66-0.3-1.31-0.62-2-0.83
	c-2.49-0.76-4.81-1.89-7.09-3.13c-0.39-0.22-0.81-0.43-1.22-0.62c-0.27-0.12-0.57-0.21-0.89-0.18c-0.29,0.04-0.51,0.17-0.56,0.48
	c-0.05,0.26,0.1,0.45,0.32,0.54c3.03,1.22,5.78,3.09,8.97,3.95c0.59,0.15,1.15,0.39,1.69,0.68c2.17,1.12,4.41,2.05,6.65,3.03
	c1,0.44,2,0.89,2.96,1.61c-0.49,0.33-0.95,0.31-1.37,0.31c-1.33,0-2.43,0.51-3.46,1.28c-2.82,2.08-4.81,4.8-5.92,8.07
	c-0.81,2.36-1.51,4.79-1.78,7.3c-0.18,1.74-0.49,3.46-0.92,5.15c-0.27,1.08-0.65,2.11-1.05,3.14c-0.15,0.38-0.41,0.79-0.06,1.17
	c0.37,0.41,0.83,0.27,1.27,0.13c1.14-0.37,2.12-1.04,3.09-1.7c1.54-1.04,3.08-2.11,4.54-3.26c1.32-1.04,2.52-2.2,3.55-3.53
	c1.13-1.44,2.34-2.79,3.29-4.37c1.22-2.04,1.88-4.24,2.13-6.57c0.12-1.02,0.27-2.03,0.11-3.07c-0.07-0.53-0.18-1.04-0.35-1.53
	c0.3-0.24,0.46,0,0.61,0.12c0.55,0.41,1.03,0.9,1.47,1.43c1.14,1.37,2.26,2.74,3.39,4.11c0.94,1.14,0.88,1.03,1.41,1.7
	c0.27,0.35,1.23,1.57,2.32,3.24c0.84,1.31,2.6,4.05,4.16,7.95c0.41,1.05,0.99,2.39,1.43,4.21c1.16,4.79,1.68,9.58,0.26,14.43
	c-0.51,1.75-0.98,3.51-1.68,5.2c-1.68,4.01-3.35,8.01-5.03,12.01c-1.1,2.6-2.52,5.03-4.01,7.42c-0.24,0.38-0.5,0.61-0.97,0.7
	c-1.15,0.19-2.33,0.26-3.49,0.66c-1.02-1.1-2.32-1.24-3.69-1.3c-1.59-0.06-3.08,0.21-4.51,0.95c-1.32,0.69-2.63,1.37-3.91,2.13
	c-2.75,1.62-5.52,3.21-8.36,4.68c-0.3,0.16-0.61,0.31-0.9,0.51c-0.7,0.5-0.62,1.09,0.19,1.44c0.25,0.11,0.5,0.17,0.76,0.25
	c1.28,0.37,2.6,0.54,3.93,0.7c2.29,0.27,4.55,0.18,6.82-0.2c1.51-0.25,2.97-0.67,4.37-1.26c1.47-0.61,2.62-1.69,3.66-2.87
	c0.21-0.24,0.38-0.49,0.52-0.77c0.24-0.46,0.38-0.97,0.44-1.51c0.12-1.03,0.67-1.68,1.64-1.93c0.69-0.17,1.39-0.24,2.09-0.27
	c0.07,0.4-0.14,0.6-0.28,0.81c-0.59,0.88-1.17,1.78-1.83,2.62c-0.31,0.38-0.61,0.77-0.91,1.16c-2.31,3.03-4.34,6.25-6.48,9.4
	c-2.46,3.62-4.6,7.44-6.45,11.42c-0.16,0.34-0.31,0.66-0.66,0.9c-0.49,0.33-0.95,0.43-1.48,0.16c-1.39-0.68-2.87-0.69-4.36-0.56
	c-1.24,0.11-2.38,0.5-3.45,1.11c-0.57,0.32-1.14,0.61-1.68,0.96c-0.99,0.6-2.05,1.01-3.17,1.25c-0.15,0.04-0.3,0.05-0.45,0.1
	c-0.34,0.11-0.67,0.27-0.68,0.67c-0.02,0.41,0.27,0.59,0.62,0.7c0.37,0.12,0.73,0.24,1.07,0.4c2.37,1.12,4.86,1.19,7.38,0.8
	c1.56-0.24,2.93-1.03,4.26-1.86c0.38-0.26,0.64-0.65,0.82-1.08c0.12-0.27,0.16-0.59,0.58-0.81c-1.44,5.31-3.23,10.46-3.75,15.89
	c-0.29,0.34-0.64,0.33-1.04,0.28c-0.94-0.12-1.89-0.21-2.84-0.27c-1.59-0.1-2.96,0.34-4.15,1.48c-1.48,1.43-3.08,2.73-4.61,4.09
	c-0.31,0.27-0.63,0.56-0.9,0.87c-1.54,1.8-3.31,3.36-5.1,4.91c-0.03,0.03-0.05,0.05-0.08,0.07c-0.29,0.25-0.68,0.47-0.48,0.92
	c0.18,0.41,0.62,0.37,1,0.38c0.11,0,0.23,0,0.34-0.02c2.43-0.23,4.85-0.47,7.27-0.7c0.16-0.02,0.31-0.03,0.46-0.07
	c2.77-0.86,5.49-1.84,7.29-4.36c1.1-1.56,2.12-3.16,2.53-5.06c0.01-0.07,0.07-0.13,0.15-0.24c0.24,0.15,0.18,0.38,0.17,0.57
	c-0.15,3.18,0.28,6.31,0.61,9.45c0.27,2.6,1.04,5.06,2.03,7.46c1.05,2.54,2.43,4.9,3.92,7.21c0.16,0.26,0.32,0.51,0.48,0.78
	c0.04,0.05,0.03,0.14,0.05,0.22c-0.14,0.25-0.39,0.2-0.6,0.22c-0.9,0.05-1.58,0.49-2.15,1.16c-0.47,0.55-0.87,1.15-1.14,1.83
	c-0.27,0.7-0.57,1.41-0.79,2.14c-0.7,2.36-1.85,4.49-3.3,6.47c-0.11,0.16-0.23,0.3-0.33,0.47c-0.16,0.27-0.24,0.57,0.04,0.82
	c0.21,0.2,0.51,0.15,0.8-0.16c0.16-0.16,0.29-0.35,0.43-0.53c0.5-0.7,1.15-1.23,1.95-1.53c2.11-0.8,3.63-2.32,4.96-4.06
	c0.6-0.8,0.78-1.73,0.84-2.69c0.04-0.6,0.03-1.22,0.04-1.82c0-0.26-0.05-0.53,0.06-0.74c0.07-0.04,0.1-0.06,0.14-0.06
	s0.07,0.02,0.1,0.04c0.06,0.05,0.13,0.1,0.16,0.16c4.28,6.44,9.01,12.54,14.11,18.23c0.11,0.34-0.05,0.53-0.13,0.74
	c-0.07,0.21-0.18,0.41-0.31,0.7c-1.74,0.12-3.16,1.1-4.59,2.04c-0.67,0.45-1.26,0.99-1.69,1.68c-2.32,3.71-4.17,7.6-4.46,12.07
	c-0.02,0.38-0.05,0.76-0.04,1.14c0.05,0.78,0.27,0.98,1.06,1.03c0.17,0.02,0.38-0.08,0.52,0.08c0.05,0.13,0.01,0.23-0.06,0.32
	c-1.49,1.91-1.93,4.19-2.16,6.52c-0.13,1.21-0.13,2.43-0.09,3.64c0.03,1.03-0.08,2.06-0.05,3.08c0.05,2.7,0.17,5.4,0.22,8.1
	c0.04,2.81,0.16,5.63-0.02,8.44c-0.02,0.27-0.05,0.54-0.02,0.8c0.06,0.56,0.5,0.77,1,0.48c0.49-0.29,0.99-0.58,1.43-0.92
	c2.03-1.61,4.28-2.89,6.44-4.32c1.75-1.15,3.16-2.61,4.21-4.42c0.44-0.75,0.93-1.48,1.42-2.21c0.4-0.59,0.71-1.24,1.05-2.02
	c0.29,0.49,0.18,0.91,0.24,1.29c0.04,0.24,0.13,0.46,0.38,0.52c0.27,0.06,0.44-0.09,0.55-0.31c0.23-0.41,0.59-0.7,0.94-0.98
	c1.5-1.21,2.45-2.82,3.15-4.55c1.27-3.19,1.49-6.5,0.87-9.88c-0.13-0.67-0.32-1.33-0.57-1.97c-0.27-0.67-0.49-1.35-0.74-2.02
	c1.05-0.27,1.57-1.02,1.55-2.31c-0.01-1.11-0.22-2.18-0.7-3.2c-0.63-1.35-1.46-2.59-2.35-3.77c-1.1-1.46-2.23-2.88-3.35-4.33
	c-0.42-0.55-0.88-1.05-1.45-1.46c-0.78-0.54-1.2-1.35-1.57-2.2c-0.11-0.27-0.11-0.51,0.19-0.67c0.18-0.02,0.28,0.12,0.38,0.23
	c2.32,2.7,5.05,4.95,7.73,7.25c2.11,1.81,4.06,3.78,6.05,5.73c3.36,3.28,5.87,7.18,8.38,11.07c1.07,1.67,1.89,3.48,2.68,5.29
	c0.36,0.8,0.4,1.44-0.34,2.01c-0.15,0.11-0.27,0.27-0.37,0.43c-0.17,0.29-0.43,0.4-0.75,0.44c-1.24,0.12-2.19,0.82-3.12,1.56
	c-0.74,0.58-1.22,1.35-1.51,2.24c-0.42,1.3-0.93,2.57-1.48,3.83c-0.47,1.09-1.03,2.12-1.86,2.99c-0.26,0.27-0.57,0.55-0.37,0.99
	c0.13,0.29,0.55,0.38,1.14,0.17c0.54-0.19,1.06-0.44,1.56-0.7c1.17-0.64,2.33-1.29,3.48-1.98c1.14-0.7,2.12-1.61,2.96-2.65
	c0.88-1.12,1.3-2.4,1.3-3.82c0.01-0.58-0.17-1.12-0.37-1.66c-0.26-0.72-0.17-0.9,0.52-1.44c0.3,0.35,0.38,0.8,0.53,1.22
	c0.41,1.18,1.62,4.13,2.84,12.91c0.31,2.22,0.44,3.54,0.49,3.96c0.1,0.95,0.29,3.09,0.39,5.54c0.12,3.13,0.24,6.36-0.3,10.48
	c-0.49,3.72-1.26,6.56-1.9,8.69c-0.51,1.68-1.1,3.32-1.65,4.98c-0.11,0.33-0.22,0.65-0.38,0.96c-0.24,0.49-0.59,0.86-1.2,0.92
	c-0.41,0.05-0.82,0.12-1.24,0.2c-0.27,0.05-0.52,0.02-0.76-0.15c-0.38-0.27-0.84-0.35-1.3-0.34c-1.18,0-2.36,0.03-3.53,0.18
	c-0.84,0.11-1.67,0.35-2.32,0.89c-1.33,1.11-2.87,1.85-4.28,2.82c-0.27,0.19-0.69,0.29-0.61,0.72c0.08,0.49,0.55,0.49,0.91,0.54
	c2.3,0.31,4.59,0.66,6.92,0.21c0.3-0.05,0.59-0.13,0.89-0.19c1.58-0.3,2.65-1.28,3.38-2.65c0.53-1,0.78-1.32,2.15-1.24
	c0.14,0.29-0.05,0.51-0.16,0.74c-2.58,4.96-5.15,9.93-8.65,14.34c-0.5,0.63-1.35,2-2.7,3.69c-0.26,0.32-1.06,1.33-2.21,2.61
	c-1.08,1.21-1.91,2.05-2.11,2.24c-4.78,4.89-12.57,18.58-13.01,19.86c-0.02,0.05-0.16,0.39-0.38,0.83
	c-0.36,0.71-0.94,1.17-1.69,1.43c-0.39,0.14-0.8,0.23-1.24,0.36c-0.15-0.06-0.32-0.13-0.49-0.22c-2.13-1.2-4.19-0.81-6.18,0.34
	c-1.35,0.79-2.62,1.69-3.83,2.68c-1.24,1.02-2.45,2.06-3.94,2.72c-0.14,0.05-0.27,0.14-0.38,0.24c-0.41,0.36-0.38,0.81,0.07,1.14
	c0.29,0.21,0.62,0.27,0.97,0.31c0.53,0.05,1.05,0.16,1.56,0.35c0.24,0.09,0.51,0.17,0.77,0.17c2.55,0.04,5.12,0.03,7.56-0.86
	c1.98-0.72,3.47-2.02,4.15-4.1c0.14-0.43,0.35-0.86,0.41-1.3c0.09-0.7,0.49-0.86,1.09-0.82c0.16,0.29-0.03,0.52-0.11,0.76
	c-2.02,5.68-2.95,11.56-3.23,17.56c-0.2,4.29,1.5,8.2,1.68,8.67c0.17,0.5,0.33,0.92,0.45,1.19c0.19,0.49,0.51,1.25,0.99,2.15
	c0.7,1.35,1.23,2.05,2.18,3.6c0.39,0.64,0.97,1.59,1.63,2.79c-0.17,0.34-0.35,0.7-0.56,1.12c-0.76,0.02-1.42,0.42-2.09,0.77
	c-2.21,1.16-3.96,2.8-5.35,4.86c-0.56,0.82-0.92,1.75-1.22,2.69c-0.57,1.74-0.88,3.54-1.13,5.35c-0.64,4.85-2.19,9.39-4.7,13.59
	c-0.27,0.46-0.55,0.92-0.78,1.39c-0.25,0.52,0,0.91,0.59,0.92c0.49,0.01,0.99-0.08,1.45-0.27c1.06-0.44,2.15-0.76,3.27-1.02
	c0.9-0.2,1.75-0.51,2.58-0.91c0.65-0.31,1.31-0.62,2-0.82c1.98-0.59,3.67-1.64,5.24-2.94c0.76-0.63,1.56-1.23,2.33-1.83
	c0.49-0.38,0.92-0.8,1.28-1.3c1.19-1.71,2.04-3.53,2.1-5.68c0.05-1.41,0.16-2.81-0.04-4.21c-0.34-2.37-1.12-4.58-2.43-6.59
	c-0.14-0.22-0.29-0.45-0.38-0.69c-0.28-0.7-0.54-1.41-0.67-2.19c0.78,1.1,1.54,2.21,2.33,3.3c0.83,1.14,1.71,2.22,2.54,3.36
	c0.81,1.11,1.48,2.31,2.11,3.52c0.63,1.22,1.3,2.41,2,3.45c0.03,0.38-0.15,0.55-0.27,0.73c-0.88,1.3-1.35,2.74-1.32,4.29
	c0.02,1.65-0.27,3.26-0.34,4.9c-0.01,0.07-0.03,0.15-0.04,0.22c-0.06,0.39-0.08,0.79,0.33,1c0.43,0.22,0.72-0.07,1.03-0.29
	c0.75-0.55,1.34-1.24,1.77-2.06c0.74-1.43,1.33-2.9,1.64-4.64c0.59,0.49,0.92,1.03,1.24,1.54c0.35,0.54,0.6,1.14,0.9,1.71
	c0.12,0.24,0.21,0.49,0.35,0.72c0.37,0.55,0.98,0.55,1.25-0.05c0.47-1.01,0.7-2.08,0.7-3.2c-0.01-1.24-0.49-2.3-1.3-3.21
	c-0.45-0.5-0.96-0.97-1.47-1.42c-0.57-0.51-1.27-0.66-2.02-0.63c-0.38,0.02-0.75,0.08-1.11,0.13c-0.38-0.14-0.52-0.46-0.71-0.73
	c-0.53-0.75-0.98-1.55-1.39-2.36c-1.08-2.14-2.35-4.16-3.85-6.05c-1.02-1.27-2.03-2.55-2.85-3.96c0.22-0.3,0.44-0.11,0.61-0.02
	c1.44,0.74,2.95,0.98,4.54,0.67c0.58-0.11,1.13,0,1.68,0.22c0.95,0.38,1.94,0.67,2.88,1.06c1.21,0.5,2.22,1.33,3.16,2.22
	c0.64,0.59,1.34,1.14,2.06,1.62c1.06,0.7,2.19,1.23,3.46,1.41c0.98,0.14,1.95,0.31,2.94,0.44c0.97,0.12,1.83,0.45,2.57,1.11
	c0.43,0.38,0.9,0.7,1.35,1.04c0.18,0.14,0.38,0.27,0.58,0.37c0.46,0.2,0.85-0.02,0.92-0.51c0.06-0.49-0.02-1-0.14-1.47
	c-0.99-4.03-2.99-7.37-6.55-9.67c-1.15-0.74-2.29-1.5-3.43-2.25c-0.87-0.57-1.81-0.97-2.78-1.3c-0.87-0.29-1.72-0.27-2.54,0.17
	c-0.23,0.12-0.49,0.22-0.72,0.33c-0.93,0.44-1.89,0.5-2.89,0.23c-1.78-0.5-3.59-0.63-5.43-0.42c-0.72,0.08-1.4,0.27-2.04,0.64
	c-0.74,0.43-1.45,0.62-2.2,0.68c-3.17-3.72-5.13-8.02-6.45-12.62c-0.49-1.72-0.54-3.54-0.43-5.33c0.17-2.97,0.51-5.91,1.05-8.83
	c0.04-0.21,0.12-0.42,0.18-0.66c0.16,0.08,0.27,0.13,0.36,0.19c0.15,0.12,0.27,0.25,0.43,0.39c-0.24,1.16-0.5,2.31-0.36,3.5
	c0.07,0.61,0.21,1.2,0.49,1.75c0.26,0.51,0.49,1.04,0.78,1.52c1.57,2.53,2.88,5.19,4.3,7.8c0.15,0.27,0.27,0.54,0.47,0.78
	c0.38,0.49,0.86,0.5,1.25,0.05c0.2-0.22,0.38-0.49,0.47-0.77c0.43-1.46,1.04-2.85,1.14-4.4c0.14-2.07,0.05-4.11-0.63-6.08
	c-0.56-1.62-1.47-3-2.98-3.92c-0.61-0.38-1.24-0.72-1.87-1.1c-0.55-0.34-1.08-0.44-1.72-0.16c-0.72,0.32-1.05,0.15-1.32-0.58
	c-0.27-0.77-0.3-1.54-0.08-2.35c0.93-3.42,2.24-6.7,3.8-9.89c0.41-0.85,0.77-1.73,1.33-2.59c0.95,0.62,1.67,1.37,1.91,2.47
	c0.21,0.96,0.41,1.93,0.55,2.91c0.25,1.75,0.67,3.44,1.51,5c1.14,2.11,2.37,4.16,4.09,5.88c0.68,0.67,1.35,1.35,2.01,2.01
	c0.14,0.14,0.27,0.28,0.42,0.39c0.5,0.34,0.95,0.28,1.26-0.25c0.28-0.49,0.52-1.01,0.72-1.54c0.3-0.81,0.55-1.64,0.82-2.45
	c0.33,0.07,0.45,0.33,0.59,0.54c0.7,1.06,1.68,1.75,2.83,2.23c2.66,1.12,5.34,2.22,7.99,3.36c1.68,0.71,3.35,1.45,5.03,2.18
	c0.15,0.06,0.27,0.15,0.42,0.19c0.43,0.15,0.76-0.02,0.85-0.47c0.05-0.26,0.06-0.53,0.03-0.79c-0.27-1.96-0.36-3.95-0.76-5.89
	c-0.13-0.67-0.15-1.36-0.17-2.05c-0.05-1.14-0.27-2.26-0.5-3.38c-0.51-2.47-1.54-4.69-3.26-6.55c-0.04-0.05-0.04-0.14-0.06-0.21
	c0.11-0.22,0.32-0.16,0.49-0.16c0.76,0.05,1.51,0.16,2.25,0.34c0.7,0.17,1-0.07,1.03-0.78c0.01-0.23,0-0.47-0.05-0.69
	c-0.96-3.75-2.97-6.81-6.21-8.98c-1.19-0.8-2.6-1.04-3.97-1.35c-0.45-0.09-0.91-0.13-1.43-0.2c0.15-0.36,0.47-0.64,0.36-1.03
	c-0.11-0.38-0.35-0.68-0.6-0.95c-1.39-1.46-4.06-1.88-5.68-0.86c-0.62,0.38-1.21,0.81-1.67,1.37c-0.83,1.03-1.66,2.09-2.46,3.14
	c-0.56,0.72-1.11,1.45-1.68,2.15c-1.1,1.33-2.54,2.02-4.08,2.6c-0.49,0.19-1.03,0.28-1.52-0.04c-0.01-0.4,0.22-0.67,0.38-0.96
	c0.88-1.56,1.85-3.07,2.93-4.49c2.44-3.21,4.87-6.43,7.74-9.29c1.87-1.87,3.3-4.08,4.92-6.14c3.54-4.48,6.29-9.43,8.92-14.45
	c0.19-0.37,0.31-0.78,0.64-1.06c0.25,0.1,0.39,0.25,0.31,0.52c-0.03,0.07-0.07,0.14-0.12,0.2c-1.14,1.84-1.19,3.84-0.66,5.84
	c0.48,1.79,1.02,3.58,1.45,5.39c0.04,0.15,0.06,0.3,0.1,0.45c0.09,0.32,0.29,0.55,0.64,0.57c0.28,0.02,0.5-0.16,0.62-0.42
	c0.17-0.38,0.32-0.77,0.47-1.16c0.23-0.65,0.41-1.31,0.69-1.94c0.6-1.37,0.84-2.83,0.99-4.31c0.07-0.77-0.04-1.52-0.27-2.25
	c-0.29-0.96-0.86-1.69-1.76-2.13c-0.46-0.23-0.84-0.51-1.2-0.86c-0.52-0.49-0.7-1.07-0.48-1.76c0.1-0.33,0.22-0.65,0.33-0.97
	c1.15-3.19,2.19-6.41,3-9.69c0.86-3.46,1.06-6.98,1.17-10.53c0.19-5.89-0.48-11.71-1.35-17.5c-0.3-2-0.7-3.97-1.18-5.93
	c-0.05-0.18-0.16-0.36-0.04-0.6c0.47,0.05,0.74,0.48,1.09,0.55c0.22,0.33,0.2,0.6,0.16,0.86c-0.31,2.48,0.79,4.35,2.77,5.6
	c2.1,1.33,4.03,2.86,6.04,4.31c0.34,0.25,0.69,0.48,1.06,0.66c0.49,0.23,0.93-0.06,0.92-0.62
	C83.29,293.12,83.19,292.82,83.09,292.53z M68.84,125.93c-0.69,0.22-1.38,0.1-2.06-0.18c-2.14-0.89-3.7-2.46-4.96-4.36
	c-0.34-0.51-0.48-1.11-0.19-1.7c0.46-0.27,0.9-0.18,1.35-0.05c0.5,0.16,0.97,0.42,1.4,0.74c1.78,1.32,3.3,2.9,4.36,4.87
	C68.83,125.45,69,125.63,68.84,125.93z"/>
</svg>
