<?xml version="1.0" encoding="utf-8"?>
<!-- Generator: Adobe Illustrator 24.0.2, SVG Export Plug-In . SVG Version: 6.00 Build 0)  -->
<svg version="1.1" id="Laag_1" xmlns="http://www.w3.org/2000/svg" xmlns:xlink="http://www.w3.org/1999/xlink" x="0px" y="0px"
	 viewBox="0 0 252.76 436.54" style="enable-background:new 0 0 252.76 436.54;" xml:space="preserve">
<style type="text/css">
	.st0{fill:none;}
	.st1{fill:url(#SVGID_1_);}
	.st2{fill:url(#SVGID_2_);}
	.st3{fill:url(#SVGID_3_);}
	.st4{fill:url(#SVGID_4_);}
	.st5{fill:url(#SVGID_5_);}
	.st6{fill:url(#SVGID_6_);}
	.st7{fill:url(#SVGID_7_);}
	.st8{fill:#A51923;}
	.st9{opacity:0.8;fill:url(#SVGID_9_);enable-background:new    ;}
</style>
<pattern  x="-171.12" y="639.66" width="102.05" height="107.72" patternUnits="userSpaceOnUse" id="SVGID_8_" viewBox="0 -218.22 102.05 107.72" style="overflow:visible;">
	<g>
		<rect y="-218.22" class="st0" width="102.05" height="107.72"/>
		<g>
			<rect y="-218.22" class="st0" width="102.05" height="107.72"/>
			
				<linearGradient id="SVGID_1_" gradientUnits="userSpaceOnUse" x1="51971.9336" y1="-1845.403" x2="51979.9336" y2="-1926.7653" gradientTransform="matrix(-1 0 0 -1 52027.2031 -2167.9141)">
				<stop  offset="0" style="stop-color:#FFFFFF;stop-opacity:0.7"/>
				<stop  offset="1" style="stop-color:#FFFFFF;stop-opacity:0.3"/>
			</linearGradient>
			<path class="st1" d="M41.02-279.32c1.18-0.28,2.22,0.23,2.8,0.51c1.61,0.8,4.43,2.33,7.95,4.45c0,0,3.17,1.47,5.06,6.12
				c-1.18-7.28,0.13-7.14-3.52-11.03c-1.74-1.85-4.18-2.45-6.09-2.64c0,0-0.99-0.29-3.05-1.76c-0.28-0.2-0.72-0.52-0.7-0.93
				c0.01-0.59,0.99-0.98,0.89-1.24c-0.06-0.14-0.44-0.16-0.51-0.14c-0.46-0.1-2.56-0.57-2.59-1.21c-0.01-0.37,0.67-0.41,0.89-0.9
				c0.55-1.16-2.42-2.77-3.86-5.6c-0.51-0.99-0.6-2.82-0.73-6.34c-0.01-0.23-0.01-0.47-0.03-0.71c-0.16-4.45,0.24-3.95,0.05-7.48
				c-0.01-0.05-0.01-0.1-0.01-0.15c-0.12-1.97-0.37-4.47,0.16-4.6c0.28-0.07,0.53,0.59,0.86,0.54c0.66-0.12,0.15-2.92,0.9-6.02
				c0.9-3.69,2.64-3.95,2.31-6.27c-0.17-1.1-0.83-2.87-0.24-3.69c0.07-0.08,0.24-0.31,0.46-0.31c0.37,0,0.64,0.61,0.78,0.93
				c0.77,1.75,1.16,2.63,1.52,3.13c0.59,0.79,1.06,0.54,2.85,1.43c1.08,0.53,3.54,1.75,5.45,4.05c0.51,0.61,1.16,1.51,1.71,1.36
				c0.51-0.14,0.54-1.05,0.92-1.07c0.38-0.01,0.64,0.85,1.24,2.06c0.23,0.46,0.65,1.12,1.5,2.45c1.38,2.18,1.41,1.9,1.9,2.85
				c0.87,1.68,1.1,3.16,1.42,3.12c0.28-0.03,0.25-1.17,0.65-1.24c0.08-0.01,0.26,0,0.56,0.42c0.68,1,0.45,2.09,0.58,3.32
				c0.11,1.04,0.34,0.9,1.04,3.11c0.49,1.56,0.74,2.75,0.91,3.6c0.5,2.45,0.83,4.02,0.7,5.85c-0.1,1.54-0.75,3.15-2.05,6.31
				c-1.21,2.95-1.67,3.54-2.06,4.53c-0.22,0.55-0.34,0.98-0.38,1.12c-0.75,2.5-2.46,4.14-2.84,6.75c-0.28,1.92,0.24,3.86,0.27,6.63
				c0,0.21,0,0.8-0.28,1.46c-0.17,0.4-0.41,1.02-0.79,1.1c-1.14,0.23-1.94-2.61-4.98-5.56c-1.08-1.05-1.98-1.65-3.78-2.85
				c-1.59-1.06-3.82-2.39-6.65-3.65c-0.14-0.06-0.31,0.06-0.29,0.21c0.75,7.98,4.52,7.42,7.95,11.68c1.59,1.98,3.98,2.77,5.86,3.1
				c0,0,0.97,0.37,2.9,1.99c0.27,0.22,0.67,0.58,0.62,0.98c-0.06,0.59-1.06,0.9-0.98,1.17c0.05,0.14,0.43,0.19,0.5,0.18
				c0.45,0.13,2.5,0.77,2.49,1.41c-0.02,0.37-0.7,0.35-0.96,0.83c-0.64,1.11,2.2,2.95,3.41,5.88c0.43,1.03,0.38,2.86,0.24,6.38
				c-0.01,0.23-0.02,0.47-0.03,0.71c-0.18,4.45-0.55,3.92-0.63,7.45c0.01,0.05,0,0.1,0,0.15c-0.03,1.97,0.03,4.48-0.52,4.58
				c-0.28,0.05-0.48-0.63-0.81-0.61c-0.67,0.07-0.38,2.9-1.36,5.93c-1.19,3.61-2.94,3.73-2.79,6.08c0.09,1.11,0.6,2.93-0.05,3.7
				c-0.06,0.07-0.25,0.28-0.47,0.27c-0.37-0.02-0.59-0.66-0.7-0.99c-0.63-1.81-0.95-2.71-1.27-3.23c-0.52-0.84-1.01-0.62-2.73-1.65
				c-1.03-0.61-3.39-2.02-5.12-4.46c-0.46-0.64-1.03-1.59-1.6-1.49c-0.52,0.1-0.62,1-1,0.99c-0.38-0.02-0.57-0.9-1.08-2.15
				c-0.2-0.47-0.56-1.17-1.31-2.55c-1.21-2.28-1.26-2-1.67-2.99c-0.73-1.74-0.85-3.24-1.18-3.22c-0.28,0.01-0.34,1.15-0.74,1.18
				c-0.08,0-0.26-0.02-0.53-0.47c-0.6-1.05-0.29-2.11-0.32-3.36c-0.03-1.04-0.27-0.92-0.8-3.18c-0.36-1.59-0.52-2.8-0.62-3.66
				c-0.31-2.48-0.52-4.07-0.24-5.89c0.22-1.53,0.99-3.08,2.53-6.13c0.57-1.12,0.99-1.89,1.32-2.46c0.28-0.49,0.68-1.03,1.09-1.89
				c0,0,0.78-1.53,1.05-3.68c0.6-4.84-4.24-10.23-2.63-11.98C40.13-279.11,40.83-279.28,41.02-279.32z M41.88-298.95
				c2,0.52,2.85,0.17,4.43,0.46c3.47,0.62,5.35,4.61,5.68,4.35c0.07-0.05,0.05-0.26-0.24-0.87c-0.11-0.25-0.28-0.57-0.5-0.97
				c-0.78-0.93-1.13-1.36-1.23-1.46c-1.15-1.04-2.8-1.49-4.28-2.25c-0.42-0.22-0.84-0.46-1.22-0.76c-0.11-0.09-0.89-0.97-0.98-0.64
				c-0.14,0.56,1.68,1.81,2.03,2.04c-1.62-0.19-3.63,0.06-5.1-0.73c0.05,0.02-0.7-0.51-0.76-0.4c-0.01,0.02-0.02,0.03-0.02,0.05
				C39.71-299.76,41.69-299,41.88-298.95z M57.17-302.09c-0.74-2.65-0.57-4.7-0.25-7.43c-0.06-0.08-0.13-0.16-0.19-0.24
				c-0.79-0.1-0.47,6-0.36,6.6c0.33,1.79,0.88,3.88,0.49,5.46c0-0.01-0.15,0.63,0.36,0.53c0.35-0.07,0.47-1.21,0.49-1.48
				C57.77-299.72,57.45-301.07,57.17-302.09z M60.5-291.95c0.48-1.16,0.81-2.36,1.09-3.59c0.35-1.51,0.11-2.15-0.31-0.36
				c-0.48,2.07-1.17,4.14-2.52,5.82c-0.09,0.12-0.59,0.75-0.66,0.85c-0.08-1.03-0.33-2.52-1.12-4.09c-0.94-1.83-1.62-1.8-2.46-3.41
				c-1.18-2.25-0.3-3.13-1.3-6.41c-0.28-0.88-0.8-2.52-2-4.24c-2.08-2.94-3.75-2.67-4.4-4.87c-0.38-1.31-0.3-2.74-0.74-4.02
				c-0.06-0.19-1-2.13-1.28-1.9c-0.09,0.08,0.46,0.72,0.44,0.68c0.82,1.29,0.74,3.14,1.04,4.6c-0.23-0.31-1.51-1.88-2.02-1.7
				c-0.3,0.1,0.58,0.74,0.66,0.84c0.29,0.32,0.55,0.69,0.78,1.06c0.79,1.29,1.34,2.77,2.37,3.75c0.42,0.4,0.95,0.67,1.42,1.02
				c-2.08-0.37-3.99-0.12-6.06,0.05c-0.93,0.07-1.81,0.21-2.74,0.05c-0.5-0.09-0.99-0.32-1.47-0.44c-0.04-0.01-0.39-0.12-0.43-0.11
				c-0.07,0.03-0.1,0.05-0.1,0.08c0,0.09,0.33,0.17,0.41,0.21c0.39,0.17,0.81,0.35,1.21,0.48c1.91,0.63,3.9,0.4,5.83,0.13
				c1.15-0.16,2.39-0.04,3.52,0.17c0.48,0.09,0.59,0.02,0.96,0.21c0.55,0.28,0.98,0.89,0.98,0.89c0.68,1.01,1.26,3.13,1.51,4.78
				c0.09,0.63,0.13,1.17,0.13,1.17c0.06,0.59,0.04,0.78,0.08,1.16c0,0,0.07,0.69,0.31,1.56c0.19,0.62,0.56,1.27,0.98,1.86
				c0.54,0.76,1.12,1.41,1.38,1.75c0.78,1.03,1.53,2.82,1.13,6.16c-2.32-2-5.52-2.38-8.11-3.53c-0.73-0.32-5.21-3.53-5.45-3.32
				c-0.28,0.22,4.37,3.38,4.81,3.57c2.58,1.18,5.93,1.89,8.12,3.96c0.97,0.91,0.62,1.63,0.76,2.94c0.07,0.55,0.19,1.08,0.32,1.62
				c0.01,0.05,0.6,1.48,0.55,0.94c-0.17-1.89-0.17-3.47,0.22-5.33C58.68-288.74,59.79-290.23,60.5-291.95z M59.64-245.1
				c-1.95-0.67-2.83-0.39-4.39-0.8c-3.41-0.88-4.97-5.01-5.33-4.78c-0.07,0.05-0.07,0.26,0.17,0.88c0.09,0.26,0.23,0.59,0.42,1
				c0.7,0.99,1.02,1.44,1.12,1.55c1.07,1.12,2.68,1.71,4.1,2.57c0.4,0.25,0.81,0.53,1.16,0.85c0.1,0.1,0.81,1.04,0.92,0.71
				c0.19-0.55-1.53-1.94-1.87-2.19c1.6,0.32,3.62,0.23,5.03,1.12c-0.05-0.02,0.65,0.57,0.73,0.46c0.01-0.02,0.02-0.03,0.02-0.05
				C61.75-244.12,59.83-245.03,59.64-245.1z M44.15-243.15c0.53,2.7,0.2,4.73-0.32,7.43c0.05,0.08,0.12,0.17,0.17,0.25
				c0.78,0.16,0.93-5.95,0.88-6.56c-0.19-1.81-0.58-3.94-0.07-5.48c0,0.01,0.2-0.62-0.31-0.55c-0.35,0.05-0.56,1.17-0.6,1.44
				C43.74-245.56,43.95-244.19,44.15-243.15z M40.54-249.64c0.64-2.03,1.49-4.04,2.97-5.6c0.1-0.11,0.65-0.7,0.73-0.79
				c0,1.03,0.13,2.53,0.8,4.16c0.79,1.9,1.47,1.92,2.19,3.59c1,2.33,0.06,3.14,0.8,6.49c0.21,0.9,0.6,2.58,1.67,4.38
				c1.85,3.09,3.53,2.96,4.01,5.19c0.28,1.33,0.08,2.75,0.43,4.07c0.05,0.19,0.83,2.2,1.13,1.99c0.1-0.07-0.4-0.75-0.38-0.71
				c-0.72-1.35-0.5-3.19-0.68-4.67c0.21,0.32,1.36,1.99,1.88,1.85c0.31-0.08-0.52-0.79-0.59-0.89c-0.27-0.34-0.49-0.73-0.7-1.12
				c-0.69-1.35-1.12-2.86-2.07-3.92c-0.39-0.43-0.89-0.74-1.34-1.12c2.05,0.53,3.97,0.43,6.05,0.42c0.93,0,1.82-0.07,2.74,0.17
				c0.49,0.13,0.97,0.4,1.44,0.55c0.04,0.01,0.38,0.15,0.42,0.14c0.07-0.03,0.1-0.04,0.11-0.07c0.01-0.09-0.32-0.19-0.39-0.24
				c-0.38-0.2-0.78-0.41-1.17-0.57c-1.85-0.78-3.86-0.7-5.8-0.58c-1.16,0.07-2.39-0.14-3.5-0.45c-0.47-0.12-0.59-0.07-0.94-0.28
				c-0.53-0.33-0.91-0.96-0.91-0.96c-0.6-1.06-1.02-3.22-1.13-4.88c-0.04-0.63-0.04-1.18-0.04-1.18c-0.01-0.59,0.02-0.78,0.01-1.16
				c0,0-0.01-0.69-0.18-1.58c-0.14-0.63-0.46-1.31-0.83-1.93c-0.48-0.8-1.01-1.49-1.24-1.85c-0.7-1.09-1.3-2.93-0.65-6.23
				c2.16,2.17,5.32,2.8,7.81,4.15c0.71,0.38,4.92,3.92,5.18,3.73c0.29-0.2-4.1-3.71-4.51-3.93c-2.48-1.38-5.76-2.34-7.79-4.58
				c-0.9-0.98-0.49-1.68-0.53-2.99c-0.02-0.55-0.11-1.09-0.19-1.64c-0.01-0.05-0.49-1.53-0.47-0.98c0.02,1.9-0.09,3.47-0.63,5.3
				c-0.51,1.8-1.74,3.2-2.57,4.86c-0.57,1.12-0.99,2.29-1.37,3.5C39.79-248.54,39.98-247.88,40.54-249.64z"/>
			
				<linearGradient id="SVGID_2_" gradientUnits="userSpaceOnUse" x1="52005.9492" y1="-1881.3083" x2="52013.9492" y2="-1962.6707" gradientTransform="matrix(-1 0 0 -1 52027.2031 -2167.9141)">
				<stop  offset="0" style="stop-color:#FFFFFF;stop-opacity:0.7"/>
				<stop  offset="1" style="stop-color:#FFFFFF;stop-opacity:0.3"/>
			</linearGradient>
			<path class="st2" d="M7.01-243.41c1.18-0.28,2.22,0.23,2.8,0.51c1.61,0.8,4.43,2.33,7.95,4.45c0,0,3.17,1.47,5.06,6.12
				c-1.18-7.28,0.13-7.14-3.52-11.03c-1.74-1.85-4.18-2.45-6.09-2.64c0,0-0.99-0.29-3.05-1.76c-0.28-0.2-0.72-0.52-0.7-0.93
				c0.01-0.59,0.99-0.98,0.89-1.24c-0.06-0.14-0.44-0.16-0.51-0.14c-0.46-0.1-2.56-0.57-2.59-1.21c-0.01-0.37,0.67-0.41,0.89-0.9
				c0.55-1.16-2.42-2.77-3.86-5.6c-0.51-0.99-0.6-2.82-0.73-6.34c-0.01-0.23-0.01-0.47-0.03-0.71c-0.16-4.45,0.24-3.95,0.05-7.48
				c-0.01-0.05-0.01-0.1-0.01-0.15c-0.12-1.97-0.37-4.47,0.16-4.6c0.28-0.07,0.53,0.59,0.86,0.54c0.66-0.12,0.15-2.92,0.9-6.02
				c0.9-3.69,2.64-3.95,2.31-6.27c-0.17-1.1-0.83-2.87-0.24-3.69c0.06-0.07,0.23-0.3,0.45-0.3c0.37,0,0.64,0.61,0.78,0.93
				c0.77,1.75,1.16,2.63,1.52,3.13c0.59,0.79,1.06,0.54,2.85,1.43c1.08,0.53,3.54,1.75,5.45,4.05c0.51,0.61,1.16,1.51,1.71,1.36
				c0.51-0.14,0.54-1.05,0.92-1.07c0.38-0.01,0.64,0.85,1.24,2.06c0.23,0.46,0.65,1.12,1.5,2.45c1.38,2.18,1.41,1.9,1.9,2.85
				c0.87,1.68,1.1,3.16,1.42,3.12c0.28-0.03,0.25-1.17,0.65-1.24c0.08-0.01,0.26,0,0.56,0.42c0.68,1,0.45,2.09,0.58,3.32
				c0.11,1.04,0.34,0.9,1.04,3.11c0.49,1.56,0.74,2.75,0.91,3.6c0.5,2.45,0.83,4.02,0.7,5.85c-0.1,1.54-0.75,3.15-2.05,6.31
				c-1.21,2.95-1.67,3.54-2.06,4.53c-0.22,0.55-0.34,0.98-0.38,1.12c-0.75,2.5-2.46,4.14-2.84,6.75c-0.28,1.92,0.24,3.86,0.27,6.63
				c0,0.21,0,0.8-0.28,1.46c-0.17,0.4-0.41,1.02-0.79,1.1c-1.14,0.23-1.94-2.61-4.98-5.56c-1.08-1.05-1.98-1.65-3.78-2.85
				c-1.59-1.06-3.82-2.39-6.65-3.65c-0.14-0.06-0.31,0.06-0.29,0.21c0.75,7.98,4.52,7.42,7.95,11.68c1.59,1.98,3.98,2.77,5.86,3.1
				c0,0,0.97,0.37,2.9,1.99c0.27,0.22,0.67,0.58,0.62,0.98c-0.06,0.59-1.06,0.9-0.98,1.17c0.05,0.14,0.43,0.19,0.5,0.18
				c0.45,0.13,2.5,0.77,2.49,1.41c-0.02,0.37-0.7,0.35-0.96,0.83c-0.64,1.11,2.2,2.95,3.41,5.88c0.43,1.03,0.38,2.86,0.24,6.38
				c-0.01,0.23-0.02,0.47-0.03,0.71c-0.18,4.45-0.55,3.92-0.63,7.45c0.01,0.05,0,0.1,0,0.15c-0.03,1.97,0.03,4.48-0.52,4.58
				c-0.28,0.05-0.48-0.63-0.81-0.61c-0.67,0.07-0.38,2.9-1.36,5.93c-1.19,3.61-2.94,3.73-2.79,6.08c0.09,1.11,0.6,2.93-0.05,3.7
				c-0.06,0.07-0.25,0.28-0.47,0.27c-0.37-0.02-0.59-0.66-0.7-0.99c-0.63-1.81-0.95-2.71-1.27-3.23c-0.52-0.84-1.01-0.62-2.73-1.65
				c-1.03-0.61-3.39-2.02-5.12-4.46c-0.46-0.64-1.03-1.59-1.6-1.49c-0.52,0.1-0.62,1-1,0.99c-0.38-0.02-0.57-0.9-1.08-2.15
				c-0.2-0.47-0.56-1.17-1.31-2.55c-1.21-2.28-1.26-2-1.67-2.99c-0.73-1.74-0.85-3.24-1.18-3.22c-0.28,0.01-0.34,1.15-0.74,1.18
				c-0.08,0-0.26-0.02-0.53-0.47c-0.6-1.05-0.29-2.11-0.32-3.36c-0.03-1.04-0.27-0.92-0.8-3.18c-0.36-1.59-0.52-2.8-0.62-3.66
				c-0.31-2.48-0.52-4.07-0.24-5.89c0.22-1.53,0.99-3.08,2.53-6.13c0.57-1.12,0.99-1.89,1.32-2.46c0.28-0.49,0.68-1.03,1.09-1.89
				c0,0,0.78-1.53,1.05-3.68c0.6-4.84-4.24-10.23-2.63-11.98C6.11-243.21,6.81-243.37,7.01-243.41z M7.87-263.04
				c2,0.52,2.85,0.17,4.43,0.46c3.47,0.62,5.35,4.61,5.68,4.35c0.07-0.05,0.05-0.26-0.24-0.87c-0.11-0.25-0.28-0.57-0.5-0.97
				c-0.78-0.93-1.13-1.36-1.23-1.46c-1.15-1.04-2.8-1.49-4.28-2.25c-0.42-0.22-0.84-0.46-1.22-0.76c-0.11-0.09-0.89-0.97-0.98-0.64
				c-0.14,0.56,1.68,1.81,2.03,2.04c-1.62-0.19-3.63,0.06-5.1-0.73c0.05,0.02-0.7-0.51-0.76-0.4c-0.01,0.02-0.02,0.03-0.02,0.05
				C5.69-263.86,7.68-263.1,7.87-263.04z M23.16-266.18c-0.74-2.65-0.57-4.7-0.25-7.43c-0.06-0.08-0.13-0.16-0.19-0.24
				c-0.79-0.1-0.47,6-0.36,6.6c0.33,1.79,0.88,3.88,0.49,5.46c0-0.01-0.15,0.63,0.36,0.53c0.35-0.07,0.47-1.21,0.49-1.48
				C23.75-263.82,23.44-265.16,23.16-266.18z M26.48-256.04c0.48-1.16,0.81-2.36,1.09-3.59c0.35-1.51,0.11-2.15-0.31-0.36
				c-0.48,2.07-1.17,4.14-2.52,5.82c-0.09,0.12-0.59,0.75-0.66,0.85c-0.08-1.03-0.33-2.52-1.12-4.09c-0.94-1.83-1.62-1.8-2.46-3.41
				c-1.18-2.25-0.3-3.13-1.3-6.41c-0.28-0.88-0.8-2.52-2-4.24c-2.08-2.94-3.75-2.67-4.4-4.87c-0.38-1.31-0.3-2.74-0.74-4.02
				c-0.06-0.19-1-2.13-1.28-1.9c-0.09,0.08,0.46,0.72,0.44,0.68c0.82,1.29,0.74,3.14,1.04,4.6c-0.23-0.31-1.51-1.88-2.02-1.7
				c-0.3,0.1,0.58,0.74,0.66,0.84c0.29,0.32,0.55,0.69,0.78,1.06c0.79,1.29,1.34,2.77,2.37,3.75c0.42,0.4,0.95,0.67,1.42,1.02
				c-2.08-0.37-3.99-0.12-6.06,0.05c-0.93,0.07-1.81,0.21-2.74,0.05c-0.5-0.1-0.99-0.32-1.47-0.44c-0.04-0.01-0.39-0.12-0.43-0.11
				c-0.07,0.03-0.1,0.05-0.1,0.08c0,0.09,0.33,0.17,0.41,0.21c0.39,0.17,0.81,0.35,1.21,0.48c1.91,0.63,3.9,0.4,5.83,0.13
				c1.15-0.16,2.39-0.04,3.52,0.17c0.48,0.09,0.59,0.02,0.96,0.21c0.55,0.28,0.98,0.89,0.98,0.89c0.68,1.01,1.26,3.13,1.51,4.78
				c0.09,0.63,0.13,1.17,0.13,1.17c0.06,0.59,0.04,0.78,0.08,1.16c0,0,0.07,0.69,0.31,1.56c0.19,0.62,0.56,1.27,0.98,1.86
				c0.54,0.76,1.12,1.41,1.38,1.75c0.78,1.03,1.53,2.82,1.13,6.16c-2.32-2-5.52-2.38-8.11-3.53c-0.73-0.32-5.21-3.53-5.45-3.32
				c-0.28,0.22,4.37,3.38,4.81,3.57c2.58,1.18,5.93,1.89,8.12,3.96c0.97,0.91,0.62,1.63,0.76,2.94c0.07,0.55,0.19,1.08,0.32,1.62
				c0.01,0.05,0.6,1.48,0.55,0.94c-0.17-1.89-0.17-3.47,0.22-5.33C24.66-252.84,25.78-254.33,26.48-256.04z M25.62-209.19
				c-1.95-0.67-2.83-0.39-4.39-0.8c-3.41-0.88-4.97-5.01-5.33-4.78c-0.07,0.05-0.07,0.26,0.17,0.88c0.09,0.26,0.23,0.59,0.42,1
				c0.7,0.99,1.02,1.44,1.12,1.55c1.07,1.12,2.68,1.71,4.1,2.57c0.4,0.25,0.81,0.53,1.16,0.85c0.1,0.1,0.81,1.04,0.92,0.71
				c0.19-0.55-1.53-1.94-1.87-2.19c1.6,0.32,3.62,0.23,5.03,1.12c-0.05-0.02,0.65,0.57,0.73,0.46c0.01-0.02,0.02-0.03,0.02-0.05
				C27.73-208.21,25.81-209.12,25.62-209.19z M10.14-207.25c0.53,2.7,0.2,4.73-0.32,7.43c0.05,0.08,0.12,0.17,0.17,0.25
				c0.78,0.16,0.93-5.95,0.88-6.56c-0.19-1.81-0.58-3.94-0.07-5.48c0,0.01,0.2-0.62-0.31-0.55c-0.35,0.05-0.56,1.17-0.6,1.44
				C9.73-209.65,9.94-208.28,10.14-207.25z M6.53-213.74c0.64-2.03,1.49-4.04,2.97-5.6c0.1-0.11,0.65-0.7,0.73-0.79
				c0,1.03,0.13,2.53,0.8,4.16c0.79,1.9,1.47,1.92,2.19,3.59c1,2.33,0.06,3.14,0.8,6.49c0.21,0.9,0.6,2.58,1.67,4.38
				c1.85,3.09,3.53,2.96,4.01,5.19c0.28,1.33,0.08,2.75,0.43,4.07c0.05,0.19,0.83,2.2,1.13,1.99c0.1-0.07-0.4-0.75-0.38-0.71
				c-0.72-1.35-0.5-3.19-0.68-4.67c0.21,0.32,1.36,1.99,1.88,1.85c0.31-0.08-0.52-0.79-0.59-0.89c-0.27-0.34-0.49-0.73-0.7-1.12
				c-0.69-1.35-1.12-2.86-2.07-3.92c-0.39-0.43-0.89-0.74-1.34-1.12c2.05,0.53,3.97,0.43,6.05,0.42c0.93,0,1.82-0.07,2.74,0.17
				c0.49,0.13,0.97,0.4,1.44,0.55c0.04,0.01,0.38,0.15,0.42,0.14c0.07-0.03,0.1-0.04,0.11-0.07c0.01-0.09-0.32-0.19-0.39-0.24
				c-0.38-0.2-0.78-0.41-1.17-0.57c-1.85-0.78-3.86-0.7-5.8-0.58c-1.16,0.07-2.39-0.14-3.5-0.45c-0.47-0.12-0.59-0.07-0.94-0.28
				c-0.53-0.33-0.91-0.96-0.91-0.96c-0.6-1.06-1.02-3.22-1.13-4.88c-0.04-0.63-0.04-1.18-0.04-1.18c-0.01-0.59,0.02-0.78,0.01-1.16
				c0,0-0.01-0.69-0.18-1.58c-0.14-0.63-0.46-1.31-0.83-1.93c-0.48-0.8-1.01-1.49-1.24-1.85c-0.7-1.09-1.3-2.93-0.65-6.23
				c2.16,2.17,5.32,2.8,7.81,4.15c0.71,0.38,4.92,3.92,5.18,3.73c0.29-0.2-4.1-3.71-4.51-3.93c-2.48-1.38-5.76-2.34-7.79-4.58
				c-0.9-0.98-0.49-1.68-0.53-2.99c-0.02-0.55-0.11-1.09-0.19-1.64c-0.01-0.05-0.49-1.53-0.47-0.98c0.02,1.9-0.09,3.47-0.63,5.3
				c-0.51,1.8-1.74,3.2-2.57,4.86c-0.57,1.12-0.99,2.29-1.37,3.5C5.77-212.63,5.97-211.98,6.53-213.74z"/>
			
				<linearGradient id="SVGID_3_" gradientUnits="userSpaceOnUse" x1="51937.918" y1="-1917.2144" x2="51945.918" y2="-1998.5757" gradientTransform="matrix(-1 0 0 -1 52027.2031 -2167.9141)">
				<stop  offset="0" style="stop-color:#FFFFFF;stop-opacity:0.7"/>
				<stop  offset="1" style="stop-color:#FFFFFF;stop-opacity:0.3"/>
			</linearGradient>
			<path class="st3" d="M75.04-207.51c1.18-0.28,2.22,0.23,2.8,0.51c1.61,0.8,4.43,2.33,7.95,4.45c0,0,3.17,1.47,5.06,6.12
				c-1.18-7.28,0.13-7.14-3.52-11.03c-1.74-1.85-4.18-2.45-6.09-2.64c0,0-0.99-0.29-3.05-1.76c-0.28-0.2-0.72-0.52-0.7-0.93
				c0.01-0.59,0.99-0.98,0.89-1.24c-0.06-0.14-0.44-0.16-0.51-0.14c-0.46-0.1-2.56-0.57-2.59-1.21c-0.01-0.37,0.67-0.41,0.89-0.9
				c0.55-1.16-2.42-2.77-3.86-5.6c-0.51-0.99-0.6-2.82-0.73-6.34c-0.01-0.23-0.01-0.47-0.03-0.71c-0.16-4.45,0.24-3.95,0.05-7.48
				c-0.01-0.05-0.01-0.1-0.01-0.15c-0.12-1.97-0.37-4.47,0.16-4.6c0.28-0.07,0.53,0.59,0.86,0.54c0.66-0.12,0.15-2.92,0.9-6.02
				c0.9-3.69,2.64-3.95,2.31-6.27c-0.17-1.1-0.83-2.87-0.24-3.69c0.06-0.07,0.23-0.3,0.45-0.3c0.37,0,0.64,0.61,0.78,0.93
				c0.77,1.75,1.16,2.63,1.52,3.13c0.59,0.79,1.06,0.54,2.85,1.43c1.08,0.53,3.54,1.75,5.45,4.05c0.51,0.61,1.16,1.51,1.71,1.36
				c0.51-0.14,0.54-1.05,0.92-1.07c0.38-0.01,0.64,0.85,1.24,2.06c0.23,0.46,0.65,1.12,1.5,2.45c1.38,2.18,1.41,1.9,1.9,2.85
				c0.87,1.68,1.1,3.16,1.42,3.12c0.28-0.03,0.25-1.17,0.65-1.24c0.08-0.01,0.26,0,0.56,0.42c0.68,1,0.45,2.09,0.58,3.32
				c0.11,1.04,0.34,0.9,1.04,3.11c0.49,1.56,0.74,2.75,0.91,3.6c0.5,2.45,0.83,4.02,0.7,5.85c-0.1,1.54-0.75,3.15-2.05,6.31
				c-1.21,2.95-1.67,3.54-2.06,4.53c-0.22,0.55-0.34,0.98-0.38,1.12c-0.75,2.5-2.46,4.14-2.84,6.75c-0.28,1.92,0.24,3.86,0.27,6.63
				c0,0.21,0,0.8-0.28,1.46c-0.17,0.4-0.41,1.02-0.79,1.1c-1.14,0.23-1.94-2.61-4.98-5.56c-1.08-1.05-1.98-1.65-3.78-2.85
				c-1.59-1.06-3.82-2.39-6.65-3.65c-0.14-0.06-0.31,0.06-0.29,0.21c0.75,7.98,4.52,7.42,7.95,11.68c1.59,1.98,3.98,2.77,5.86,3.1
				c0,0,0.97,0.37,2.9,1.99c0.27,0.22,0.67,0.58,0.62,0.98c-0.06,0.59-1.06,0.9-0.98,1.17c0.05,0.14,0.43,0.19,0.5,0.18
				c0.45,0.13,2.5,0.77,2.49,1.41c-0.02,0.37-0.7,0.35-0.96,0.83c-0.64,1.11,2.2,2.95,3.41,5.88c0.43,1.03,0.38,2.86,0.24,6.38
				c-0.01,0.23-0.02,0.47-0.03,0.71c-0.18,4.45-0.55,3.92-0.63,7.45c0.01,0.05,0,0.1,0,0.15c-0.03,1.97,0.03,4.48-0.52,4.58
				c-0.28,0.05-0.48-0.63-0.81-0.61c-0.67,0.07-0.38,2.9-1.36,5.93c-1.19,3.61-2.94,3.73-2.79,6.08c0.09,1.11,0.6,2.93-0.05,3.7
				c-0.06,0.07-0.25,0.28-0.47,0.27c-0.37-0.02-0.59-0.66-0.7-0.99c-0.63-1.81-0.95-2.71-1.27-3.23c-0.52-0.84-1.01-0.62-2.73-1.65
				c-1.03-0.61-3.39-2.02-5.12-4.46c-0.46-0.64-1.03-1.59-1.6-1.49c-0.52,0.1-0.62,1-1,0.99c-0.38-0.02-0.57-0.9-1.08-2.15
				c-0.2-0.47-0.56-1.17-1.31-2.55c-1.21-2.28-1.26-2-1.67-2.99c-0.73-1.74-0.85-3.24-1.18-3.22c-0.28,0.01-0.34,1.15-0.74,1.18
				c-0.08,0-0.26-0.02-0.53-0.47c-0.6-1.05-0.29-2.11-0.32-3.36c-0.03-1.04-0.27-0.92-0.8-3.18c-0.36-1.59-0.52-2.8-0.62-3.66
				c-0.31-2.48-0.52-4.07-0.24-5.89c0.22-1.53,0.99-3.08,2.53-6.13c0.57-1.12,0.99-1.89,1.32-2.46c0.28-0.49,0.68-1.03,1.09-1.89
				c0,0,0.78-1.53,1.05-3.68c0.6-4.84-4.24-10.23-2.63-11.98C74.14-207.3,74.84-207.46,75.04-207.51z M75.9-227.13
				c2,0.52,2.85,0.17,4.43,0.46c3.47,0.62,5.35,4.61,5.68,4.35c0.07-0.05,0.05-0.26-0.24-0.87c-0.11-0.25-0.28-0.57-0.5-0.97
				c-0.78-0.93-1.13-1.36-1.23-1.46c-1.15-1.04-2.8-1.49-4.28-2.25c-0.42-0.22-0.84-0.46-1.22-0.76c-0.11-0.09-0.89-0.97-0.98-0.64
				c-0.14,0.56,1.68,1.81,2.03,2.04c-1.62-0.19-3.63,0.06-5.1-0.73c0.05,0.02-0.7-0.51-0.76-0.4c-0.01,0.02-0.02,0.03-0.02,0.05
				C73.72-227.95,75.71-227.19,75.9-227.13z M91.19-230.28c-0.74-2.65-0.57-4.7-0.25-7.43c-0.06-0.08-0.13-0.16-0.19-0.24
				c-0.79-0.1-0.47,6-0.36,6.6c0.33,1.79,0.88,3.88,0.49,5.46c0-0.01-0.15,0.63,0.36,0.53c0.35-0.07,0.47-1.21,0.49-1.48
				C91.78-227.91,91.47-229.26,91.19-230.28z M94.51-220.14c0.48-1.16,0.81-2.36,1.09-3.59c0.35-1.51,0.11-2.15-0.31-0.36
				c-0.48,2.07-1.17,4.14-2.52,5.82c-0.09,0.12-0.59,0.75-0.66,0.85c-0.08-1.03-0.33-2.52-1.12-4.09c-0.94-1.83-1.62-1.8-2.46-3.41
				c-1.18-2.25-0.3-3.13-1.3-6.41c-0.28-0.88-0.8-2.52-2-4.24c-2.08-2.94-3.75-2.67-4.4-4.87c-0.38-1.31-0.3-2.74-0.74-4.02
				c-0.06-0.19-1-2.13-1.28-1.9c-0.09,0.08,0.46,0.72,0.44,0.68c0.82,1.29,0.74,3.14,1.04,4.6c-0.23-0.31-1.51-1.88-2.02-1.7
				c-0.3,0.1,0.58,0.74,0.66,0.84c0.29,0.32,0.55,0.69,0.78,1.06c0.79,1.29,1.34,2.77,2.37,3.75c0.42,0.4,0.95,0.67,1.42,1.02
				c-2.08-0.37-3.99-0.12-6.06,0.05c-0.93,0.07-1.81,0.21-2.74,0.05c-0.5-0.1-0.99-0.32-1.47-0.44c-0.04-0.01-0.39-0.12-0.43-0.11
				c-0.07,0.03-0.1,0.05-0.1,0.08c0,0.09,0.33,0.17,0.41,0.21c0.39,0.17,0.81,0.35,1.21,0.48c1.91,0.63,3.9,0.4,5.83,0.13
				c1.15-0.16,2.39-0.04,3.52,0.17c0.48,0.09,0.59,0.02,0.96,0.21c0.55,0.28,0.98,0.89,0.98,0.89c0.68,1.01,1.26,3.13,1.51,4.78
				c0.09,0.63,0.13,1.17,0.13,1.17c0.06,0.59,0.04,0.78,0.08,1.16c0,0,0.07,0.69,0.31,1.56c0.19,0.62,0.56,1.27,0.98,1.86
				c0.54,0.76,1.12,1.41,1.38,1.75c0.78,1.03,1.53,2.82,1.13,6.16c-2.32-2-5.52-2.38-8.11-3.53c-0.73-0.32-5.21-3.53-5.45-3.32
				c-0.28,0.22,4.37,3.38,4.81,3.57c2.58,1.18,5.93,1.89,8.12,3.96c0.97,0.91,0.62,1.63,0.76,2.94c0.07,0.55,0.19,1.08,0.32,1.62
				c0.01,0.05,0.6,1.48,0.55,0.94c-0.17-1.89-0.17-3.47,0.22-5.33C92.69-216.93,93.81-218.42,94.51-220.14z M93.66-173.29
				c-1.95-0.67-2.83-0.39-4.39-0.8c-3.41-0.88-4.97-5.01-5.33-4.78c-0.07,0.05-0.07,0.26,0.17,0.88c0.09,0.26,0.23,0.59,0.42,1
				c0.7,0.99,1.02,1.44,1.12,1.55c1.07,1.12,2.68,1.71,4.1,2.57c0.4,0.25,0.81,0.53,1.16,0.85c0.1,0.1,0.81,1.04,0.92,0.71
				c0.19-0.55-1.53-1.94-1.87-2.19c1.6,0.32,3.62,0.23,5.03,1.12c-0.05-0.02,0.65,0.57,0.73,0.46c0.01-0.02,0.02-0.03,0.02-0.05
				C95.76-172.3,93.84-173.22,93.66-173.29z M78.17-171.34c0.53,2.7,0.2,4.73-0.32,7.43c0.05,0.08,0.12,0.17,0.17,0.25
				c0.78,0.16,0.93-5.95,0.88-6.56c-0.19-1.81-0.58-3.94-0.07-5.48c0,0.01,0.2-0.62-0.31-0.55c-0.35,0.05-0.56,1.17-0.6,1.44
				C77.76-173.74,77.97-172.38,78.17-171.34z M74.56-177.83c0.64-2.03,1.49-4.04,2.97-5.6c0.1-0.11,0.65-0.7,0.73-0.79
				c0,1.03,0.13,2.53,0.8,4.16c0.79,1.9,1.47,1.92,2.19,3.59c1,2.33,0.06,3.14,0.8,6.49c0.21,0.9,0.6,2.58,1.67,4.38
				c1.85,3.09,3.53,2.96,4.01,5.19c0.28,1.33,0.08,2.75,0.43,4.07c0.05,0.19,0.83,2.2,1.13,1.99c0.1-0.07-0.4-0.75-0.38-0.71
				c-0.72-1.35-0.5-3.19-0.68-4.67c0.21,0.32,1.36,1.99,1.88,1.85c0.31-0.08-0.52-0.79-0.59-0.89c-0.27-0.34-0.49-0.73-0.7-1.12
				c-0.69-1.35-1.12-2.86-2.07-3.92c-0.39-0.43-0.89-0.74-1.34-1.12c2.05,0.53,3.97,0.43,6.05,0.42c0.93,0,1.82-0.07,2.74,0.17
				c0.49,0.13,0.97,0.4,1.44,0.55c0.04,0.01,0.38,0.15,0.42,0.14c0.07-0.03,0.1-0.04,0.11-0.07c0.01-0.09-0.32-0.19-0.39-0.24
				c-0.38-0.2-0.78-0.41-1.17-0.57c-1.85-0.78-3.86-0.7-5.8-0.58c-1.16,0.07-2.39-0.14-3.5-0.45c-0.47-0.12-0.59-0.07-0.94-0.28
				c-0.53-0.33-0.91-0.96-0.91-0.96c-0.6-1.06-1.02-3.22-1.13-4.88c-0.04-0.63-0.04-1.18-0.04-1.18c-0.01-0.59,0.02-0.78,0.01-1.16
				c0,0-0.01-0.69-0.18-1.58c-0.14-0.63-0.46-1.31-0.83-1.93c-0.48-0.8-1.01-1.49-1.24-1.85c-0.7-1.09-1.3-2.93-0.65-6.23
				c2.16,2.17,5.32,2.8,7.81,4.15c0.71,0.38,4.92,3.92,5.18,3.73c0.29-0.2-4.1-3.71-4.51-3.93c-2.48-1.38-5.76-2.34-7.79-4.58
				c-0.9-0.98-0.49-1.68-0.53-2.99c-0.02-0.55-0.11-1.09-0.19-1.64c-0.01-0.05-0.49-1.53-0.47-0.98c0.02,1.9-0.09,3.47-0.63,5.3
				c-0.51,1.8-1.74,3.2-2.57,4.86c-0.57,1.12-0.99,2.29-1.37,3.5C73.8-176.73,74-176.07,74.56-177.83z"/>
			
				<linearGradient id="SVGID_4_" gradientUnits="userSpaceOnUse" x1="51971.9375" y1="-1953.1193" x2="51979.9375" y2="-2034.4806" gradientTransform="matrix(-1 0 0 -1 52027.2031 -2167.9141)">
				<stop  offset="0" style="stop-color:#FFFFFF;stop-opacity:0.7"/>
				<stop  offset="1" style="stop-color:#FFFFFF;stop-opacity:0.3"/>
			</linearGradient>
			<path class="st4" d="M41.02-171.6c1.18-0.28,2.22,0.23,2.8,0.51c1.61,0.8,4.43,2.33,7.95,4.45c0,0,3.17,1.47,5.06,6.12
				c-1.18-7.28,0.13-7.14-3.52-11.03c-1.74-1.85-4.18-2.45-6.09-2.64c0,0-0.99-0.29-3.05-1.76c-0.28-0.2-0.72-0.52-0.7-0.93
				c0.01-0.59,0.99-0.98,0.89-1.24c-0.06-0.14-0.44-0.16-0.51-0.14c-0.46-0.1-2.56-0.57-2.59-1.21c-0.01-0.37,0.67-0.41,0.89-0.9
				c0.55-1.16-2.42-2.77-3.86-5.6c-0.51-0.99-0.6-2.82-0.73-6.34c-0.01-0.23-0.01-0.47-0.03-0.71c-0.16-4.45,0.24-3.95,0.05-7.48
				c-0.01-0.05-0.01-0.1-0.01-0.15c-0.12-1.97-0.37-4.47,0.16-4.6c0.28-0.07,0.53,0.59,0.86,0.54c0.66-0.12,0.15-2.92,0.9-6.02
				c0.9-3.69,2.64-3.95,2.31-6.27c-0.17-1.1-0.83-2.87-0.24-3.69c0.06-0.07,0.23-0.3,0.45-0.3c0.37,0,0.64,0.61,0.78,0.93
				c0.77,1.75,1.16,2.63,1.52,3.13c0.59,0.79,1.06,0.54,2.85,1.43c1.08,0.53,3.54,1.75,5.45,4.05c0.51,0.61,1.16,1.51,1.71,1.36
				c0.51-0.14,0.54-1.05,0.92-1.07c0.38-0.01,0.64,0.85,1.24,2.06c0.23,0.46,0.65,1.12,1.5,2.45c1.38,2.18,1.41,1.9,1.9,2.85
				c0.87,1.68,1.1,3.16,1.42,3.12c0.28-0.03,0.25-1.17,0.65-1.24c0.08-0.01,0.26,0,0.56,0.42c0.68,1,0.45,2.09,0.58,3.32
				c0.11,1.04,0.34,0.9,1.04,3.11c0.49,1.56,0.74,2.75,0.91,3.6c0.5,2.45,0.83,4.02,0.7,5.85c-0.1,1.54-0.75,3.15-2.05,6.31
				c-1.21,2.95-1.67,3.54-2.06,4.53c-0.22,0.55-0.34,0.98-0.38,1.12c-0.75,2.5-2.46,4.14-2.84,6.75c-0.28,1.92,0.24,3.86,0.27,6.63
				c0,0.21,0,0.8-0.28,1.46c-0.17,0.4-0.41,1.02-0.79,1.1c-1.14,0.23-1.94-2.61-4.98-5.56c-1.08-1.05-1.98-1.65-3.78-2.85
				c-1.59-1.06-3.82-2.39-6.65-3.65c-0.14-0.06-0.31,0.06-0.29,0.21c0.75,7.98,4.52,7.42,7.95,11.68c1.59,1.98,3.98,2.77,5.86,3.1
				c0,0,0.97,0.37,2.9,1.99c0.27,0.22,0.67,0.58,0.62,0.98c-0.06,0.59-1.06,0.9-0.98,1.17c0.05,0.14,0.43,0.19,0.5,0.18
				c0.45,0.13,2.5,0.77,2.49,1.41c-0.02,0.37-0.7,0.35-0.96,0.83c-0.64,1.11,2.2,2.95,3.41,5.88c0.43,1.03,0.38,2.86,0.24,6.38
				c-0.01,0.23-0.02,0.47-0.03,0.71c-0.18,4.45-0.55,3.92-0.63,7.45c0.01,0.05,0,0.1,0,0.15c-0.03,1.97,0.03,4.48-0.52,4.58
				c-0.28,0.05-0.48-0.63-0.81-0.61c-0.67,0.07-0.38,2.9-1.36,5.93c-1.19,3.61-2.94,3.73-2.79,6.08c0.09,1.11,0.6,2.93-0.05,3.7
				c-0.06,0.07-0.25,0.28-0.47,0.27c-0.37-0.02-0.59-0.66-0.7-0.99c-0.63-1.81-0.95-2.71-1.27-3.23c-0.52-0.84-1.01-0.62-2.73-1.65
				c-1.03-0.61-3.39-2.02-5.12-4.46c-0.46-0.64-1.03-1.59-1.6-1.49c-0.52,0.1-0.62,1-1,0.99c-0.38-0.02-0.57-0.9-1.08-2.15
				c-0.2-0.47-0.56-1.17-1.31-2.55c-1.21-2.28-1.26-2-1.67-2.99c-0.73-1.74-0.85-3.24-1.18-3.22c-0.28,0.01-0.34,1.15-0.74,1.18
				c-0.08,0-0.26-0.02-0.53-0.47c-0.6-1.05-0.29-2.11-0.32-3.36c-0.03-1.04-0.27-0.92-0.8-3.18c-0.36-1.59-0.52-2.8-0.62-3.66
				c-0.31-2.48-0.52-4.07-0.24-5.89c0.22-1.53,0.99-3.08,2.53-6.13c0.57-1.12,0.99-1.89,1.32-2.46c0.28-0.49,0.68-1.03,1.09-1.89
				c0,0,0.78-1.53,1.05-3.68c0.6-4.84-4.24-10.23-2.63-11.98C40.13-171.39,40.83-171.56,41.02-171.6z M41.88-191.23
				c2,0.52,2.85,0.17,4.43,0.46c3.47,0.62,5.35,4.61,5.68,4.35c0.07-0.05,0.05-0.26-0.24-0.87c-0.11-0.25-0.28-0.57-0.5-0.97
				c-0.78-0.93-1.13-1.36-1.23-1.46c-1.15-1.04-2.8-1.49-4.28-2.25c-0.42-0.22-0.84-0.46-1.22-0.76c-0.11-0.09-0.89-0.97-0.98-0.64
				c-0.14,0.56,1.68,1.81,2.03,2.04c-1.62-0.19-3.63,0.06-5.1-0.73c0.05,0.02-0.7-0.51-0.76-0.4c-0.01,0.02-0.02,0.03-0.02,0.05
				C39.71-192.05,41.69-191.29,41.88-191.23z M57.17-194.37c-0.74-2.65-0.57-4.7-0.25-7.43c-0.06-0.08-0.13-0.16-0.19-0.24
				c-0.79-0.1-0.47,6-0.36,6.6c0.33,1.79,0.88,3.88,0.49,5.46c0-0.01-0.15,0.63,0.36,0.53c0.35-0.07,0.47-1.21,0.49-1.48
				C57.77-192.01,57.45-193.35,57.17-194.37z M60.5-184.23c0.48-1.16,0.81-2.36,1.09-3.59c0.35-1.51,0.11-2.15-0.31-0.36
				c-0.48,2.07-1.17,4.14-2.52,5.82c-0.09,0.12-0.59,0.75-0.66,0.85c-0.08-1.03-0.33-2.52-1.12-4.09c-0.94-1.83-1.62-1.8-2.46-3.41
				c-1.18-2.25-0.3-3.13-1.3-6.41c-0.28-0.88-0.8-2.52-2-4.24c-2.08-2.94-3.75-2.67-4.4-4.87c-0.38-1.31-0.3-2.74-0.74-4.02
				c-0.06-0.19-1-2.13-1.28-1.9c-0.09,0.08,0.46,0.72,0.44,0.68c0.82,1.29,0.74,3.14,1.04,4.6c-0.23-0.31-1.51-1.88-2.02-1.7
				c-0.3,0.1,0.58,0.74,0.66,0.84c0.29,0.32,0.55,0.69,0.78,1.06c0.79,1.29,1.34,2.77,2.37,3.75c0.42,0.4,0.95,0.67,1.42,1.02
				c-2.08-0.37-3.99-0.12-6.06,0.05c-0.93,0.07-1.81,0.21-2.74,0.05c-0.5-0.1-0.99-0.32-1.47-0.44c-0.04-0.01-0.39-0.12-0.43-0.11
				c-0.07,0.03-0.1,0.05-0.1,0.08c0,0.09,0.33,0.17,0.41,0.21c0.39,0.17,0.81,0.35,1.21,0.48c1.91,0.63,3.9,0.4,5.83,0.13
				c1.15-0.16,2.39-0.04,3.52,0.17c0.48,0.09,0.59,0.02,0.96,0.21c0.55,0.28,0.98,0.89,0.98,0.89c0.68,1.01,1.26,3.13,1.51,4.78
				c0.09,0.63,0.13,1.17,0.13,1.17c0.06,0.59,0.04,0.78,0.08,1.16c0,0,0.07,0.69,0.31,1.56c0.19,0.62,0.56,1.27,0.98,1.86
				c0.54,0.76,1.12,1.41,1.38,1.75c0.78,1.03,1.53,2.82,1.13,6.16c-2.32-2-5.52-2.38-8.11-3.53c-0.73-0.32-5.21-3.53-5.45-3.32
				c-0.28,0.22,4.37,3.38,4.81,3.57c2.58,1.18,5.93,1.89,8.12,3.96c0.97,0.91,0.62,1.63,0.76,2.94c0.07,0.55,0.19,1.08,0.32,1.62
				c0.01,0.05,0.6,1.48,0.55,0.94c-0.17-1.89-0.17-3.47,0.22-5.33C58.68-181.03,59.79-182.52,60.5-184.23z M59.64-137.38
				c-1.95-0.67-2.83-0.39-4.39-0.8c-3.41-0.88-4.97-5.01-5.33-4.78c-0.07,0.05-0.07,0.26,0.17,0.88c0.09,0.26,0.23,0.59,0.42,1
				c0.7,0.99,1.02,1.44,1.12,1.55c1.07,1.12,2.68,1.71,4.1,2.57c0.4,0.25,0.81,0.53,1.16,0.85c0.1,0.1,0.81,1.04,0.92,0.71
				c0.19-0.55-1.53-1.94-1.87-2.19c1.6,0.32,3.62,0.23,5.03,1.12c-0.05-0.02,0.65,0.57,0.73,0.46c0.01-0.02,0.02-0.03,0.02-0.05
				C61.75-136.4,59.83-137.31,59.64-137.38z M44.15-135.44c0.53,2.7,0.2,4.73-0.32,7.43c0.05,0.08,0.12,0.17,0.17,0.25
				c0.78,0.16,0.93-5.95,0.88-6.56c-0.19-1.81-0.58-3.94-0.07-5.48c0,0.01,0.2-0.62-0.31-0.55c-0.35,0.05-0.56,1.17-0.6,1.44
				C43.74-137.84,43.95-136.47,44.15-135.44z M40.54-141.92c0.64-2.03,1.49-4.04,2.97-5.6c0.1-0.11,0.65-0.7,0.73-0.79
				c0,1.03,0.13,2.53,0.8,4.16c0.79,1.9,1.47,1.92,2.19,3.59c1,2.33,0.06,3.14,0.8,6.49c0.21,0.9,0.6,2.58,1.67,4.38
				c1.85,3.09,3.53,2.96,4.01,5.19c0.28,1.33,0.08,2.75,0.43,4.07c0.05,0.19,0.83,2.2,1.13,1.99c0.1-0.07-0.4-0.75-0.38-0.71
				c-0.72-1.35-0.5-3.19-0.68-4.67c0.21,0.32,1.36,1.99,1.88,1.85c0.31-0.08-0.52-0.79-0.59-0.89c-0.27-0.34-0.49-0.73-0.7-1.12
				c-0.69-1.35-1.12-2.86-2.07-3.92c-0.39-0.43-0.89-0.74-1.34-1.12c2.05,0.53,3.97,0.43,6.05,0.42c0.93,0,1.82-0.07,2.74,0.17
				c0.49,0.13,0.97,0.4,1.44,0.55c0.04,0.01,0.38,0.15,0.42,0.14c0.07-0.03,0.1-0.04,0.11-0.07c0.01-0.09-0.32-0.19-0.39-0.24
				c-0.38-0.2-0.78-0.41-1.17-0.57c-1.85-0.78-3.86-0.7-5.8-0.58c-1.16,0.07-2.39-0.14-3.5-0.45c-0.47-0.12-0.59-0.07-0.94-0.28
				c-0.53-0.33-0.91-0.96-0.91-0.96c-0.6-1.06-1.02-3.22-1.13-4.88c-0.04-0.63-0.04-1.18-0.04-1.18c-0.01-0.59,0.02-0.78,0.01-1.16
				c0,0-0.01-0.69-0.18-1.58c-0.14-0.63-0.46-1.31-0.83-1.93c-0.48-0.8-1.01-1.49-1.24-1.85c-0.7-1.09-1.3-2.93-0.65-6.23
				c2.16,2.17,5.32,2.8,7.81,4.15c0.71,0.38,4.92,3.92,5.18,3.73c0.29-0.2-4.1-3.71-4.51-3.93c-2.48-1.38-5.76-2.34-7.79-4.58
				c-0.9-0.98-0.49-1.68-0.53-2.99c-0.02-0.55-0.11-1.09-0.19-1.64c-0.01-0.05-0.49-1.53-0.47-0.98c0.02,1.9-0.09,3.47-0.63,5.3
				c-0.51,1.8-1.74,3.2-2.57,4.86c-0.57,1.12-0.99,2.29-1.37,3.5C39.79-140.82,39.98-140.17,40.54-141.92z"/>
			
				<linearGradient id="SVGID_5_" gradientUnits="userSpaceOnUse" x1="52005.9492" y1="-1989.025" x2="52013.9492" y2="-2070.3875" gradientTransform="matrix(-1 0 0 -1 52027.2031 -2167.9141)">
				<stop  offset="0" style="stop-color:#FFFFFF;stop-opacity:0.7"/>
				<stop  offset="1" style="stop-color:#FFFFFF;stop-opacity:0.3"/>
			</linearGradient>
			<path class="st5" d="M7.01-135.7c1.18-0.28,2.22,0.23,2.8,0.51c1.61,0.8,4.43,2.33,7.95,4.45c0,0,3.17,1.47,5.06,6.12
				c-1.18-7.28,0.13-7.14-3.52-11.03c-1.74-1.85-4.18-2.45-6.09-2.64c0,0-0.99-0.29-3.05-1.76c-0.28-0.2-0.72-0.52-0.7-0.93
				c0.01-0.59,0.99-0.98,0.89-1.24c-0.06-0.14-0.44-0.16-0.51-0.14c-0.46-0.1-2.56-0.57-2.59-1.21c-0.01-0.37,0.67-0.41,0.89-0.9
				c0.55-1.16-2.42-2.77-3.86-5.6c-0.51-0.99-0.6-2.82-0.73-6.34c-0.01-0.23-0.01-0.47-0.03-0.71c-0.16-4.45,0.24-3.95,0.05-7.48
				c-0.01-0.05-0.01-0.1-0.01-0.15c-0.12-1.97-0.37-4.47,0.16-4.6c0.28-0.07,0.53,0.59,0.86,0.54c0.66-0.12,0.15-2.92,0.9-6.02
				c0.9-3.69,2.64-3.95,2.31-6.27c-0.17-1.1-0.83-2.87-0.24-3.69c0.06-0.07,0.23-0.3,0.45-0.3c0.37,0,0.64,0.61,0.78,0.93
				c0.77,1.75,1.16,2.63,1.52,3.13c0.59,0.79,1.06,0.54,2.85,1.43c1.08,0.53,3.54,1.75,5.45,4.05c0.51,0.61,1.16,1.51,1.71,1.36
				c0.51-0.14,0.54-1.05,0.92-1.07c0.38-0.01,0.64,0.85,1.24,2.06c0.23,0.46,0.65,1.12,1.5,2.45c1.38,2.18,1.41,1.9,1.9,2.85
				c0.87,1.68,1.1,3.16,1.42,3.12c0.28-0.03,0.25-1.17,0.65-1.24c0.08-0.01,0.26,0,0.56,0.42c0.68,1,0.45,2.09,0.58,3.32
				c0.11,1.04,0.34,0.9,1.04,3.11c0.49,1.56,0.74,2.75,0.91,3.6c0.5,2.45,0.83,4.02,0.7,5.85c-0.1,1.54-0.75,3.15-2.05,6.31
				c-1.21,2.95-1.67,3.54-2.06,4.53c-0.22,0.55-0.34,0.98-0.38,1.12c-0.75,2.5-2.46,4.14-2.84,6.75c-0.28,1.92,0.24,3.86,0.27,6.63
				c0,0.21,0,0.8-0.28,1.46c-0.17,0.4-0.41,1.02-0.79,1.1c-1.14,0.23-1.94-2.61-4.98-5.56c-1.08-1.05-1.98-1.65-3.78-2.85
				c-1.59-1.06-3.82-2.39-6.65-3.65c-0.14-0.06-0.31,0.06-0.29,0.21c0.75,7.98,4.52,7.42,7.95,11.68c1.59,1.98,3.98,2.77,5.86,3.1
				c0,0,0.97,0.37,2.9,1.99c0.27,0.22,0.67,0.58,0.62,0.98c-0.06,0.59-1.06,0.9-0.98,1.17c0.05,0.14,0.43,0.19,0.5,0.18
				c0.45,0.13,2.5,0.77,2.49,1.41c-0.02,0.37-0.7,0.35-0.96,0.83c-0.64,1.11,2.2,2.95,3.41,5.88c0.43,1.03,0.38,2.86,0.24,6.38
				c-0.01,0.23-0.02,0.47-0.03,0.71c-0.18,4.45-0.55,3.92-0.63,7.45c0.01,0.05,0,0.1,0,0.15c-0.03,1.97,0.03,4.48-0.52,4.58
				c-0.28,0.05-0.48-0.63-0.81-0.61c-0.67,0.07-0.38,2.9-1.36,5.93c-1.19,3.61-2.94,3.73-2.79,6.08c0.09,1.11,0.6,2.93-0.05,3.7
				c-0.06,0.07-0.25,0.28-0.47,0.27c-0.37-0.02-0.59-0.66-0.7-0.99c-0.63-1.81-0.95-2.71-1.27-3.23c-0.52-0.84-1.01-0.62-2.73-1.65
				c-1.03-0.61-3.39-2.02-5.12-4.46c-0.46-0.64-1.03-1.59-1.6-1.49c-0.52,0.1-0.62,1-1,0.99c-0.38-0.02-0.57-0.9-1.08-2.15
				c-0.2-0.47-0.56-1.17-1.31-2.55c-1.21-2.28-1.26-2-1.67-2.99c-0.73-1.74-0.85-3.24-1.18-3.22c-0.28,0.01-0.34,1.15-0.74,1.18
				c-0.08,0-0.26-0.02-0.53-0.47c-0.6-1.05-0.29-2.11-0.32-3.36c-0.03-1.04-0.27-0.92-0.8-3.18c-0.36-1.59-0.52-2.8-0.62-3.66
				c-0.31-2.48-0.52-4.07-0.24-5.89c0.22-1.53,0.99-3.08,2.53-6.13c0.57-1.12,0.99-1.89,1.32-2.46c0.28-0.49,0.68-1.03,1.09-1.89
				c0,0,0.78-1.53,1.05-3.68c0.6-4.84-4.24-10.23-2.63-11.98C6.11-135.49,6.81-135.65,7.01-135.7z M7.87-155.32
				c2,0.52,2.85,0.17,4.43,0.46c3.47,0.62,5.35,4.61,5.68,4.35c0.07-0.05,0.05-0.26-0.24-0.87c-0.11-0.25-0.28-0.57-0.5-0.97
				c-0.78-0.93-1.13-1.36-1.23-1.46c-1.15-1.04-2.8-1.49-4.28-2.25c-0.42-0.22-0.84-0.46-1.22-0.76c-0.11-0.09-0.89-0.97-0.98-0.64
				c-0.14,0.56,1.68,1.81,2.03,2.04c-1.62-0.19-3.63,0.06-5.1-0.73c0.05,0.02-0.7-0.51-0.76-0.4c-0.01,0.02-0.02,0.03-0.02,0.05
				C5.69-156.14,7.68-155.38,7.87-155.32z M23.16-158.47c-0.74-2.65-0.57-4.7-0.25-7.43c-0.06-0.08-0.13-0.16-0.19-0.24
				c-0.79-0.1-0.47,6-0.36,6.6c0.33,1.79,0.88,3.88,0.49,5.46c0-0.01-0.15,0.63,0.36,0.53c0.35-0.07,0.47-1.21,0.49-1.48
				C23.75-156.1,23.44-157.45,23.16-158.47z M26.48-148.33c0.48-1.16,0.81-2.36,1.09-3.59c0.35-1.51,0.11-2.15-0.31-0.36
				c-0.48,2.07-1.17,4.14-2.52,5.82c-0.09,0.12-0.59,0.75-0.66,0.85c-0.08-1.03-0.33-2.52-1.12-4.09c-0.94-1.83-1.62-1.8-2.46-3.41
				c-1.18-2.25-0.3-3.13-1.3-6.41c-0.28-0.88-0.8-2.52-2-4.24c-2.08-2.94-3.75-2.67-4.4-4.87c-0.38-1.31-0.3-2.74-0.74-4.02
				c-0.06-0.19-1-2.13-1.28-1.9c-0.09,0.08,0.46,0.72,0.44,0.68c0.82,1.29,0.74,3.14,1.04,4.6c-0.23-0.31-1.51-1.88-2.02-1.7
				c-0.3,0.1,0.58,0.74,0.66,0.84c0.29,0.32,0.55,0.69,0.78,1.06c0.79,1.29,1.34,2.77,2.37,3.75c0.42,0.4,0.95,0.67,1.42,1.02
				c-2.08-0.37-3.99-0.12-6.06,0.05c-0.93,0.07-1.81,0.21-2.74,0.05c-0.5-0.1-0.99-0.32-1.47-0.44c-0.04-0.01-0.39-0.12-0.43-0.11
				c-0.07,0.03-0.1,0.05-0.1,0.08c0,0.09,0.33,0.17,0.41,0.21c0.39,0.17,0.81,0.35,1.21,0.48c1.91,0.63,3.9,0.4,5.83,0.13
				c1.15-0.16,2.39-0.04,3.52,0.17c0.48,0.09,0.59,0.02,0.96,0.21c0.55,0.28,0.98,0.89,0.98,0.89c0.68,1.01,1.26,3.13,1.51,4.78
				c0.09,0.63,0.13,1.17,0.13,1.17c0.06,0.59,0.04,0.78,0.08,1.16c0,0,0.07,0.69,0.31,1.56c0.19,0.62,0.56,1.27,0.98,1.86
				c0.54,0.76,1.12,1.41,1.38,1.75c0.78,1.03,1.53,2.82,1.13,6.16c-2.32-2-5.52-2.38-8.11-3.53c-0.73-0.32-5.21-3.53-5.45-3.32
				c-0.28,0.22,4.37,3.38,4.81,3.57c2.58,1.18,5.93,1.89,8.12,3.96c0.97,0.91,0.62,1.63,0.76,2.94c0.07,0.55,0.19,1.08,0.32,1.62
				c0.01,0.05,0.6,1.48,0.55,0.94c-0.17-1.89-0.17-3.47,0.22-5.33C24.66-145.12,25.78-146.61,26.48-148.33z M25.62-101.48
				c-1.95-0.67-2.83-0.39-4.39-0.8c-3.41-0.88-4.97-5.01-5.33-4.78c-0.07,0.05-0.07,0.26,0.17,0.88c0.09,0.26,0.23,0.59,0.42,1
				c0.7,0.99,1.02,1.44,1.12,1.55c1.07,1.12,2.68,1.71,4.1,2.57c0.4,0.25,0.81,0.53,1.16,0.85c0.1,0.1,0.81,1.04,0.92,0.71
				c0.19-0.55-1.53-1.94-1.87-2.19c1.6,0.32,3.62,0.23,5.03,1.12c-0.05-0.02,0.65,0.57,0.73,0.46c0.01-0.02,0.02-0.03,0.02-0.05
				C27.73-100.49,25.81-101.41,25.62-101.48z M10.14-99.53c0.53,2.7,0.2,4.73-0.32,7.43c0.05,0.08,0.12,0.17,0.17,0.25
				c0.78,0.16,0.93-5.95,0.88-6.56c-0.19-1.81-0.58-3.94-0.07-5.48c0,0.01,0.2-0.62-0.31-0.55c-0.35,0.05-0.56,1.17-0.6,1.44
				C9.73-101.93,9.94-100.57,10.14-99.53z M6.53-106.02c0.64-2.03,1.49-4.04,2.97-5.6c0.1-0.11,0.65-0.7,0.73-0.79
				c0,1.03,0.13,2.53,0.8,4.16c0.79,1.9,1.47,1.92,2.19,3.59c1,2.33,0.06,3.14,0.8,6.49c0.21,0.9,0.6,2.58,1.67,4.38
				c1.85,3.09,3.53,2.96,4.01,5.19c0.28,1.33,0.08,2.75,0.43,4.07c0.05,0.19,0.83,2.2,1.13,1.99c0.1-0.07-0.4-0.75-0.38-0.71
				c-0.72-1.35-0.5-3.19-0.68-4.67c0.21,0.32,1.36,1.99,1.88,1.85c0.31-0.08-0.52-0.79-0.59-0.89c-0.27-0.34-0.49-0.73-0.7-1.12
				c-0.69-1.35-1.12-2.86-2.07-3.92c-0.39-0.43-0.89-0.74-1.34-1.12c2.05,0.53,3.97,0.43,6.05,0.42c0.93,0,1.82-0.07,2.74,0.17
				c0.49,0.13,0.97,0.4,1.44,0.55c0.04,0.01,0.38,0.15,0.42,0.14c0.07-0.03,0.1-0.04,0.11-0.07c0.01-0.09-0.32-0.19-0.39-0.24
				c-0.38-0.2-0.78-0.41-1.17-0.57c-1.85-0.78-3.86-0.7-5.8-0.58c-1.16,0.07-2.39-0.14-3.5-0.45c-0.47-0.12-0.59-0.07-0.94-0.28
				c-0.53-0.33-0.91-0.96-0.91-0.96c-0.6-1.06-1.02-3.22-1.13-4.88c-0.04-0.63-0.04-1.18-0.04-1.18c-0.01-0.59,0.02-0.78,0.01-1.16
				c0,0-0.01-0.69-0.18-1.58c-0.14-0.63-0.46-1.31-0.83-1.93c-0.48-0.8-1.01-1.49-1.24-1.85c-0.7-1.09-1.3-2.93-0.65-6.23
				c2.16,2.17,5.32,2.8,7.81,4.15c0.71,0.38,4.92,3.92,5.18,3.73c0.29-0.2-4.1-3.71-4.51-3.93c-2.48-1.38-5.76-2.34-7.79-4.58
				c-0.9-0.98-0.49-1.68-0.53-2.99c-0.02-0.55-0.11-1.09-0.19-1.64c-0.01-0.05-0.49-1.53-0.47-0.98c0.02,1.9-0.09,3.47-0.63,5.3
				c-0.51,1.8-1.74,3.2-2.57,4.86c-0.57,1.12-0.99,2.29-1.37,3.5C5.77-104.92,5.97-104.26,6.53-106.02z"/>
			
				<linearGradient id="SVGID_6_" gradientUnits="userSpaceOnUse" x1="51937.918" y1="-2024.9303" x2="51945.918" y2="-2106.2925" gradientTransform="matrix(-1 0 0 -1 52027.2031 -2167.9141)">
				<stop  offset="0" style="stop-color:#FFFFFF;stop-opacity:0.7"/>
				<stop  offset="1" style="stop-color:#FFFFFF;stop-opacity:0.3"/>
			</linearGradient>
			<path class="st6" d="M75.04-99.79c1.18-0.28,2.22,0.23,2.8,0.51c1.61,0.8,4.43,2.33,7.95,4.45c0,0,3.17,1.47,5.06,6.12
				c-1.18-7.28,0.13-7.14-3.52-11.03c-1.74-1.85-4.18-2.45-6.09-2.64c0,0-0.99-0.29-3.05-1.76c-0.28-0.2-0.72-0.52-0.7-0.93
				c0.01-0.59,0.99-0.98,0.89-1.24c-0.06-0.14-0.44-0.16-0.51-0.14c-0.46-0.1-2.56-0.57-2.59-1.21c-0.01-0.37,0.67-0.41,0.89-0.9
				c0.55-1.16-2.42-2.77-3.86-5.6c-0.51-0.99-0.6-2.82-0.73-6.34c-0.01-0.23-0.01-0.47-0.03-0.71c-0.16-4.45,0.24-3.95,0.05-7.48
				c-0.01-0.05-0.01-0.1-0.01-0.15c-0.12-1.97-0.37-4.47,0.16-4.6c0.28-0.07,0.53,0.59,0.86,0.54c0.66-0.12,0.15-2.92,0.9-6.02
				c0.9-3.69,2.64-3.95,2.31-6.27c-0.17-1.1-0.83-2.87-0.24-3.69c0.06-0.07,0.23-0.3,0.45-0.3c0.37,0,0.64,0.61,0.78,0.93
				c0.77,1.75,1.16,2.63,1.52,3.13c0.59,0.79,1.06,0.54,2.85,1.43c1.08,0.53,3.54,1.75,5.45,4.05c0.51,0.61,1.16,1.51,1.71,1.36
				c0.51-0.14,0.54-1.05,0.92-1.07c0.38-0.01,0.64,0.85,1.24,2.06c0.23,0.46,0.65,1.12,1.5,2.45c1.38,2.18,1.41,1.9,1.9,2.85
				c0.87,1.68,1.1,3.16,1.42,3.12c0.28-0.03,0.25-1.17,0.65-1.24c0.08-0.01,0.26,0,0.56,0.42c0.68,1,0.45,2.09,0.58,3.32
				c0.11,1.04,0.34,0.9,1.04,3.11c0.49,1.56,0.74,2.75,0.91,3.6c0.5,2.45,0.83,4.02,0.7,5.85c-0.1,1.54-0.75,3.15-2.05,6.31
				c-1.21,2.95-1.67,3.54-2.06,4.53c-0.22,0.55-0.34,0.98-0.38,1.12c-0.75,2.5-2.46,4.14-2.84,6.75c-0.28,1.92,0.24,3.86,0.27,6.63
				c0,0.21,0,0.8-0.28,1.46c-0.17,0.4-0.41,1.02-0.79,1.1c-1.14,0.23-1.94-2.61-4.98-5.56c-1.08-1.05-1.98-1.65-3.78-2.85
				c-1.59-1.06-3.82-2.39-6.65-3.65c-0.14-0.06-0.31,0.06-0.29,0.21c0.75,7.98,4.52,7.42,7.95,11.68c1.59,1.98,3.98,2.77,5.86,3.1
				c0,0,0.97,0.37,2.9,1.99c0.27,0.22,0.67,0.58,0.62,0.98c-0.06,0.59-1.06,0.9-0.98,1.17c0.05,0.14,0.43,0.19,0.5,0.18
				c0.45,0.13,2.5,0.77,2.49,1.41c-0.02,0.37-0.7,0.35-0.96,0.83c-0.64,1.11,2.2,2.95,3.41,5.88c0.43,1.03,0.38,2.86,0.24,6.38
				c-0.01,0.23-0.02,0.47-0.03,0.71C97.75-59,97.38-59.53,97.3-56c0.01,0.05,0,0.1,0,0.15c-0.03,1.97,0.03,4.48-0.52,4.58
				c-0.28,0.05-0.48-0.63-0.81-0.61c-0.67,0.07-0.38,2.9-1.36,5.93c-1.19,3.61-2.94,3.73-2.79,6.08c0.09,1.11,0.6,2.93-0.05,3.7
				c-0.06,0.07-0.25,0.28-0.47,0.27c-0.37-0.02-0.59-0.66-0.7-0.99c-0.63-1.81-0.95-2.71-1.27-3.23c-0.52-0.84-1.01-0.62-2.73-1.65
				c-1.03-0.61-3.39-2.02-5.12-4.46c-0.46-0.64-1.03-1.59-1.6-1.49c-0.52,0.1-0.62,1-1,0.99c-0.38-0.02-0.57-0.9-1.08-2.15
				c-0.2-0.47-0.56-1.17-1.31-2.55c-1.21-2.28-1.26-2-1.67-2.99c-0.73-1.74-0.85-3.24-1.18-3.22c-0.28,0.01-0.34,1.15-0.74,1.18
				c-0.08,0-0.26-0.02-0.53-0.47c-0.6-1.05-0.29-2.11-0.32-3.36c-0.03-1.04-0.27-0.92-0.8-3.18c-0.36-1.59-0.52-2.8-0.62-3.66
				c-0.31-2.48-0.52-4.07-0.24-5.89c0.22-1.53,0.99-3.08,2.53-6.13c0.57-1.12,0.99-1.89,1.32-2.46c0.28-0.49,0.68-1.03,1.09-1.89
				c0,0,0.78-1.53,1.05-3.68c0.6-4.84-4.24-10.23-2.63-11.98C74.14-99.58,74.84-99.75,75.04-99.79z M75.9-119.42
				c2,0.52,2.85,0.17,4.43,0.46c3.47,0.62,5.35,4.61,5.68,4.35c0.07-0.05,0.05-0.26-0.24-0.87c-0.11-0.25-0.28-0.57-0.5-0.97
				c-0.78-0.93-1.13-1.36-1.23-1.46c-1.15-1.04-2.8-1.49-4.28-2.25c-0.42-0.22-0.84-0.46-1.22-0.76c-0.11-0.09-0.89-0.97-0.98-0.64
				c-0.14,0.56,1.68,1.81,2.03,2.04c-1.62-0.19-3.63,0.06-5.1-0.73c0.05,0.02-0.7-0.51-0.76-0.4c-0.01,0.02-0.02,0.03-0.02,0.05
				C73.72-120.24,75.71-119.48,75.9-119.42z M91.19-122.56c-0.74-2.65-0.57-4.7-0.25-7.43c-0.06-0.08-0.13-0.16-0.19-0.24
				c-0.79-0.1-0.47,6-0.36,6.6c0.33,1.79,0.88,3.88,0.49,5.46c0-0.01-0.15,0.63,0.36,0.53c0.35-0.07,0.47-1.21,0.49-1.48
				C91.78-120.2,91.47-121.54,91.19-122.56z M94.51-112.42c0.48-1.16,0.81-2.36,1.09-3.59c0.35-1.51,0.11-2.15-0.31-0.36
				c-0.48,2.07-1.17,4.14-2.52,5.82c-0.09,0.12-0.59,0.75-0.66,0.85c-0.08-1.03-0.33-2.52-1.12-4.09c-0.94-1.83-1.62-1.8-2.46-3.41
				c-1.18-2.25-0.3-3.13-1.3-6.41c-0.28-0.88-0.8-2.52-2-4.24c-2.08-2.94-3.75-2.67-4.4-4.87c-0.38-1.31-0.3-2.74-0.74-4.02
				c-0.06-0.19-1-2.13-1.28-1.9c-0.09,0.08,0.46,0.72,0.44,0.68c0.82,1.29,0.74,3.14,1.04,4.6c-0.23-0.31-1.51-1.88-2.02-1.7
				c-0.3,0.1,0.58,0.74,0.66,0.84c0.29,0.32,0.55,0.69,0.78,1.06c0.79,1.29,1.34,2.77,2.37,3.75c0.42,0.4,0.95,0.67,1.42,1.02
				c-2.08-0.37-3.99-0.12-6.06,0.05c-0.93,0.07-1.81,0.21-2.74,0.05c-0.5-0.1-0.99-0.32-1.47-0.44c-0.04-0.01-0.39-0.12-0.43-0.11
				c-0.07,0.03-0.1,0.05-0.1,0.08c0,0.09,0.33,0.17,0.41,0.21c0.39,0.17,0.81,0.35,1.21,0.48c1.91,0.63,3.9,0.4,5.83,0.13
				c1.15-0.16,2.39-0.04,3.52,0.17c0.48,0.09,0.59,0.02,0.96,0.21c0.55,0.28,0.98,0.89,0.98,0.89c0.68,1.01,1.26,3.13,1.51,4.78
				c0.09,0.63,0.13,1.17,0.13,1.17c0.06,0.59,0.04,0.78,0.08,1.16c0,0,0.07,0.69,0.31,1.56c0.19,0.62,0.56,1.27,0.98,1.86
				c0.54,0.76,1.12,1.41,1.38,1.75c0.78,1.03,1.53,2.82,1.13,6.16c-2.32-2-5.52-2.38-8.11-3.53c-0.73-0.32-5.21-3.53-5.45-3.32
				c-0.28,0.22,4.37,3.38,4.81,3.57c2.58,1.18,5.93,1.89,8.12,3.96c0.97,0.91,0.62,1.63,0.76,2.94c0.07,0.55,0.19,1.08,0.32,1.62
				c0.01,0.05,0.6,1.48,0.55,0.94c-0.17-1.89-0.17-3.47,0.22-5.33C92.69-109.21,93.81-110.71,94.51-112.42z M93.66-65.57
				c-1.95-0.67-2.83-0.39-4.39-0.8c-3.41-0.88-4.97-5.01-5.33-4.78c-0.07,0.05-0.07,0.26,0.17,0.88c0.09,0.26,0.23,0.59,0.42,1
				c0.7,0.99,1.02,1.44,1.12,1.55c1.07,1.12,2.68,1.71,4.1,2.57c0.4,0.25,0.81,0.53,1.16,0.85c0.1,0.1,0.81,1.04,0.92,0.71
				c0.19-0.55-1.53-1.94-1.87-2.19c1.6,0.32,3.62,0.23,5.03,1.12c-0.05-0.02,0.65,0.57,0.73,0.46c0.01-0.02,0.02-0.03,0.02-0.05
				C95.76-64.59,93.84-65.5,93.66-65.57z M78.17-63.62c0.53,2.7,0.2,4.73-0.32,7.43c0.05,0.08,0.12,0.17,0.17,0.25
				c0.78,0.16,0.93-5.95,0.88-6.56c-0.19-1.81-0.58-3.94-0.07-5.48c0,0.01,0.2-0.62-0.31-0.55c-0.35,0.05-0.56,1.17-0.6,1.44
				C77.76-66.03,77.97-64.66,78.17-63.62z M74.56-70.11c0.64-2.03,1.49-4.04,2.97-5.6c0.1-0.11,0.65-0.7,0.73-0.79
				c0,1.03,0.13,2.53,0.8,4.16c0.79,1.9,1.47,1.92,2.19,3.59c1,2.33,0.06,3.14,0.8,6.49c0.21,0.9,0.6,2.58,1.67,4.38
				c1.85,3.09,3.53,2.96,4.01,5.19c0.28,1.33,0.08,2.75,0.43,4.07c0.05,0.19,0.83,2.2,1.13,1.99c0.1-0.07-0.4-0.75-0.38-0.71
				c-0.72-1.35-0.5-3.19-0.68-4.67c0.21,0.32,1.36,1.99,1.88,1.85c0.31-0.08-0.52-0.79-0.59-0.89c-0.27-0.34-0.49-0.73-0.7-1.12
				c-0.69-1.35-1.12-2.86-2.07-3.92c-0.39-0.43-0.89-0.74-1.34-1.12c2.05,0.53,3.97,0.43,6.05,0.42c0.93,0,1.82-0.07,2.74,0.17
				c0.49,0.13,0.97,0.4,1.44,0.55c0.04,0.01,0.38,0.15,0.42,0.14c0.07-0.03,0.1-0.04,0.11-0.07c0.01-0.09-0.32-0.19-0.39-0.24
				c-0.38-0.2-0.78-0.41-1.17-0.57c-1.85-0.78-3.86-0.7-5.8-0.58c-1.16,0.07-2.39-0.14-3.5-0.45c-0.47-0.12-0.59-0.07-0.94-0.28
				c-0.53-0.33-0.91-0.96-0.91-0.96c-0.6-1.06-1.02-3.22-1.13-4.88c-0.04-0.63-0.04-1.18-0.04-1.18c-0.01-0.59,0.02-0.78,0.01-1.16
				c0,0-0.01-0.69-0.18-1.58c-0.14-0.63-0.46-1.31-0.83-1.93c-0.48-0.8-1.01-1.49-1.24-1.85c-0.7-1.09-1.3-2.93-0.65-6.23
				c2.16,2.17,5.32,2.8,7.81,4.15c0.71,0.38,4.92,3.92,5.18,3.73c0.29-0.2-4.1-3.71-4.51-3.93c-2.48-1.38-5.76-2.34-7.79-4.58
				c-0.9-0.98-0.49-1.68-0.53-2.99c-0.02-0.55-0.11-1.09-0.19-1.64c-0.01-0.05-0.49-1.53-0.47-0.98c0.02,1.9-0.09,3.47-0.63,5.3
				c-0.51,1.8-1.74,3.2-2.57,4.86c-0.57,1.12-0.99,2.29-1.37,3.5C73.8-69.01,74-68.36,74.56-70.11z"/>
			
				<linearGradient id="SVGID_7_" gradientUnits="userSpaceOnUse" x1="51971.9414" y1="-2060.8359" x2="51979.9414" y2="-2142.1973" gradientTransform="matrix(-1 0 0 -1 52027.2031 -2167.9141)">
				<stop  offset="0" style="stop-color:#FFFFFF;stop-opacity:0.7"/>
				<stop  offset="1" style="stop-color:#FFFFFF;stop-opacity:0.3"/>
			</linearGradient>
			<path class="st7" d="M41.02-63.89c1.18-0.28,2.22,0.23,2.8,0.51c1.61,0.8,4.43,2.33,7.95,4.45c0,0,3.17,1.47,5.06,6.12
				c-1.18-7.28,0.13-7.14-3.52-11.03c-1.74-1.85-4.18-2.45-6.09-2.64c0,0-0.99-0.29-3.05-1.76c-0.28-0.2-0.72-0.52-0.7-0.93
				c0.01-0.59,0.99-0.98,0.89-1.24c-0.06-0.14-0.44-0.16-0.51-0.14c-0.46-0.1-2.56-0.57-2.59-1.21c-0.01-0.37,0.67-0.41,0.89-0.9
				c0.55-1.16-2.42-2.77-3.86-5.6c-0.51-0.99-0.6-2.82-0.73-6.34c-0.01-0.23-0.01-0.47-0.03-0.71c-0.16-4.45,0.24-3.95,0.05-7.48
				c-0.01-0.05-0.01-0.1-0.01-0.15c-0.12-1.97-0.37-4.47,0.16-4.6c0.28-0.07,0.53,0.59,0.86,0.54c0.66-0.12,0.15-2.92,0.9-6.02
				c0.9-3.69,2.64-3.95,2.31-6.27c-0.17-1.1-0.83-2.87-0.24-3.69c0.06-0.07,0.23-0.3,0.45-0.3c0.37,0,0.64,0.61,0.78,0.93
				c0.77,1.75,1.16,2.63,1.52,3.13c0.59,0.79,1.06,0.54,2.85,1.43c1.08,0.53,3.54,1.75,5.45,4.05c0.51,0.6,1.16,1.51,1.71,1.36
				c0.51-0.14,0.54-1.05,0.92-1.07c0.38-0.01,0.64,0.85,1.24,2.06c0.23,0.46,0.65,1.12,1.5,2.45c1.38,2.18,1.41,1.9,1.9,2.85
				c0.87,1.68,1.1,3.16,1.42,3.12c0.28-0.03,0.25-1.17,0.65-1.24c0.08-0.01,0.26,0,0.56,0.42c0.68,1,0.45,2.09,0.58,3.32
				c0.11,1.04,0.34,0.9,1.04,3.11c0.49,1.56,0.74,2.75,0.91,3.6c0.5,2.45,0.83,4.02,0.7,5.85c-0.1,1.54-0.75,3.15-2.05,6.31
				c-1.21,2.95-1.67,3.54-2.06,4.53c-0.22,0.55-0.34,0.98-0.38,1.12c-0.75,2.5-2.46,4.14-2.84,6.75c-0.28,1.92,0.24,3.86,0.27,6.63
				c0,0.21,0,0.8-0.28,1.46c-0.17,0.4-0.41,1.02-0.79,1.1c-1.14,0.23-1.94-2.61-4.98-5.56c-1.08-1.05-1.98-1.65-3.78-2.85
				c-1.59-1.06-3.82-2.39-6.65-3.65c-0.14-0.06-0.31,0.06-0.29,0.21c0.75,7.98,4.52,7.42,7.95,11.68c1.59,1.98,3.98,2.77,5.86,3.1
				c0,0,0.97,0.37,2.9,1.99c0.27,0.22,0.67,0.58,0.62,0.98c-0.06,0.59-1.06,0.9-0.98,1.17c0.05,0.14,0.43,0.19,0.5,0.18
				c0.45,0.13,2.5,0.77,2.49,1.41c-0.02,0.37-0.7,0.35-0.96,0.83c-0.64,1.11,2.2,2.95,3.41,5.88c0.43,1.03,0.38,2.86,0.24,6.38
				c-0.01,0.23-0.02,0.47-0.03,0.71c-0.18,4.45-0.55,3.92-0.63,7.45c0.01,0.05,0,0.1,0,0.15c-0.03,1.97,0.03,4.48-0.52,4.58
				c-0.28,0.05-0.48-0.63-0.81-0.61c-0.67,0.07-0.38,2.9-1.36,5.93c-1.19,3.61-2.94,3.73-2.79,6.08c0.09,1.11,0.6,2.93-0.05,3.7
				C57.69-0.2,57.5,0.01,57.28,0c-0.37-0.02-0.59-0.66-0.7-0.99c-0.63-1.81-0.95-2.71-1.27-3.23c-0.52-0.84-1.01-0.62-2.73-1.65
				c-1.03-0.61-3.39-2.02-5.12-4.46c-0.46-0.64-1.03-1.59-1.6-1.49c-0.52,0.1-0.62,1-1,0.99c-0.38-0.02-0.57-0.9-1.08-2.15
				c-0.2-0.47-0.56-1.17-1.31-2.55c-1.21-2.28-1.26-2-1.67-2.99c-0.73-1.74-0.85-3.24-1.18-3.22c-0.28,0.01-0.34,1.15-0.74,1.18
				c-0.08,0-0.26-0.02-0.53-0.47c-0.6-1.05-0.29-2.11-0.32-3.36c-0.03-1.04-0.27-0.92-0.8-3.18c-0.36-1.59-0.52-2.8-0.62-3.66
				c-0.31-2.48-0.52-4.07-0.24-5.89c0.22-1.53,0.99-3.08,2.53-6.13c0.57-1.12,0.99-1.89,1.32-2.46c0.28-0.49,0.68-1.03,1.09-1.89
				c0,0,0.78-1.53,1.05-3.68c0.6-4.84-4.24-10.23-2.63-11.98C40.13-63.68,40.83-63.84,41.02-63.89z M41.88-83.51
				c2,0.52,2.85,0.17,4.43,0.46c3.47,0.62,5.35,4.61,5.68,4.35c0.07-0.05,0.05-0.26-0.24-0.87c-0.11-0.25-0.28-0.57-0.5-0.97
				c-0.78-0.93-1.13-1.36-1.23-1.46c-1.15-1.04-2.8-1.49-4.28-2.25c-0.42-0.22-0.84-0.46-1.22-0.76c-0.11-0.09-0.89-0.97-0.98-0.64
				c-0.14,0.56,1.68,1.81,2.03,2.04c-1.62-0.19-3.63,0.06-5.1-0.73c0.05,0.02-0.7-0.51-0.76-0.4c-0.01,0.02-0.02,0.03-0.02,0.05
				C39.71-84.33,41.69-83.57,41.88-83.51z M57.17-86.65c-0.74-2.65-0.57-4.7-0.25-7.43c-0.06-0.08-0.13-0.16-0.19-0.24
				c-0.79-0.1-0.47,6-0.36,6.6c0.33,1.79,0.88,3.88,0.49,5.46c0-0.01-0.15,0.63,0.36,0.53c0.35-0.07,0.47-1.21,0.49-1.48
				C57.77-84.29,57.45-85.64,57.17-86.65z M60.5-76.52c0.48-1.16,0.81-2.36,1.09-3.59c0.35-1.51,0.11-2.15-0.31-0.36
				c-0.48,2.07-1.17,4.14-2.52,5.82c-0.09,0.12-0.59,0.75-0.66,0.85c-0.08-1.03-0.33-2.52-1.12-4.09c-0.94-1.83-1.62-1.8-2.46-3.41
				c-1.18-2.25-0.3-3.13-1.3-6.41c-0.28-0.88-0.8-2.52-2-4.24c-2.08-2.94-3.75-2.67-4.4-4.87c-0.38-1.31-0.3-2.74-0.74-4.02
				c-0.06-0.19-1-2.13-1.28-1.9c-0.09,0.08,0.46,0.72,0.44,0.68c0.82,1.29,0.74,3.14,1.04,4.6c-0.23-0.31-1.51-1.88-2.02-1.7
				c-0.3,0.1,0.58,0.74,0.66,0.84c0.29,0.32,0.55,0.69,0.78,1.06c0.79,1.29,1.34,2.77,2.37,3.75c0.42,0.4,0.95,0.67,1.42,1.02
				c-2.08-0.37-3.99-0.12-6.06,0.05c-0.93,0.07-1.81,0.21-2.74,0.05c-0.5-0.1-0.99-0.32-1.47-0.44c-0.04-0.01-0.39-0.12-0.43-0.11
				c-0.07,0.03-0.1,0.05-0.1,0.08c0,0.09,0.33,0.17,0.41,0.21c0.39,0.17,0.81,0.35,1.21,0.48c1.91,0.63,3.9,0.4,5.83,0.13
				c1.15-0.16,2.39-0.04,3.52,0.17c0.48,0.09,0.59,0.02,0.96,0.21c0.55,0.28,0.98,0.89,0.98,0.89c0.68,1.01,1.26,3.13,1.51,4.78
				c0.09,0.63,0.13,1.17,0.13,1.17c0.06,0.59,0.04,0.78,0.08,1.16c0,0,0.07,0.69,0.31,1.56c0.19,0.62,0.56,1.27,0.98,1.86
				c0.54,0.76,1.12,1.41,1.38,1.75c0.78,1.03,1.53,2.82,1.13,6.16c-2.32-2-5.52-2.38-8.11-3.53c-0.73-0.32-5.21-3.53-5.45-3.32
				c-0.28,0.22,4.37,3.38,4.81,3.57c2.58,1.18,5.93,1.89,8.12,3.96c0.97,0.91,0.62,1.63,0.76,2.94c0.07,0.55,0.19,1.08,0.32,1.62
				c0.01,0.05,0.6,1.48,0.55,0.94c-0.17-1.89-0.17-3.47,0.22-5.33C58.68-73.31,59.79-74.8,60.5-76.52z M59.64-29.67
				c-1.95-0.67-2.83-0.39-4.39-0.8c-3.41-0.88-4.97-5.01-5.33-4.78c-0.07,0.05-0.07,0.26,0.17,0.88c0.09,0.26,0.23,0.59,0.42,1
				c0.7,0.99,1.02,1.44,1.12,1.55c1.07,1.12,2.68,1.71,4.1,2.57c0.4,0.25,0.81,0.53,1.16,0.85c0.1,0.1,0.81,1.04,0.92,0.71
				c0.19-0.55-1.53-1.94-1.87-2.19c1.6,0.32,3.62,0.23,5.03,1.12c-0.05-0.02,0.65,0.57,0.73,0.46c0.01-0.02,0.02-0.03,0.02-0.05
				C61.75-28.68,59.83-29.59,59.64-29.67z M44.15-27.72c0.53,2.7,0.2,4.73-0.32,7.43c0.05,0.08,0.12,0.17,0.17,0.25
				c0.78,0.16,0.93-5.95,0.88-6.56c-0.19-1.81-0.58-3.94-0.07-5.48c0,0.01,0.2-0.62-0.31-0.55c-0.35,0.05-0.56,1.17-0.6,1.44
				C43.74-30.12,43.95-28.75,44.15-27.72z M40.54-34.21c0.64-2.03,1.49-4.04,2.97-5.6c0.1-0.11,0.65-0.7,0.73-0.79
				c0,1.03,0.13,2.53,0.8,4.16c0.79,1.9,1.47,1.92,2.19,3.59c1,2.33,0.06,3.14,0.8,6.49c0.21,0.9,0.6,2.58,1.67,4.38
				c1.85,3.09,3.53,2.96,4.01,5.19c0.28,1.33,0.08,2.75,0.43,4.07c0.05,0.19,0.83,2.2,1.13,1.99c0.1-0.07-0.4-0.75-0.38-0.71
				c-0.72-1.35-0.5-3.19-0.68-4.67c0.21,0.32,1.36,1.99,1.88,1.85c0.31-0.08-0.52-0.79-0.59-0.89c-0.27-0.34-0.49-0.73-0.7-1.12
				c-0.69-1.35-1.12-2.86-2.07-3.92c-0.39-0.43-0.89-0.74-1.34-1.12c2.05,0.53,3.97,0.43,6.05,0.42c0.93,0,1.82-0.07,2.74,0.17
				c0.49,0.13,0.97,0.4,1.44,0.55c0.04,0.01,0.38,0.15,0.42,0.14c0.07-0.03,0.1-0.04,0.11-0.07c0.01-0.09-0.32-0.19-0.39-0.24
				c-0.38-0.2-0.78-0.41-1.17-0.57c-1.85-0.78-3.86-0.7-5.8-0.58c-1.16,0.07-2.39-0.14-3.5-0.45c-0.47-0.12-0.59-0.07-0.94-0.28
				c-0.53-0.33-0.91-0.96-0.91-0.96c-0.6-1.06-1.02-3.22-1.13-4.88c-0.04-0.63-0.04-1.18-0.04-1.18c-0.01-0.59,0.02-0.78,0.01-1.16
				c0,0-0.01-0.69-0.18-1.58c-0.14-0.63-0.46-1.31-0.83-1.93c-0.48-0.8-1.01-1.49-1.24-1.85c-0.7-1.09-1.3-2.93-0.65-6.23
				c2.16,2.17,5.32,2.8,7.81,4.15c0.71,0.38,4.92,3.92,5.18,3.73c0.29-0.2-4.1-3.71-4.51-3.93c-2.48-1.38-5.76-2.34-7.79-4.58
				c-0.9-0.98-0.49-1.68-0.53-2.99c-0.02-0.55-0.11-1.09-0.19-1.64c-0.01-0.05-0.49-1.53-0.47-0.98c0.02,1.9-0.09,3.47-0.63,5.3
				c-0.51,1.8-1.74,3.2-2.57,4.86c-0.57,1.12-0.99,2.29-1.37,3.5C39.79-33.11,39.98-32.45,40.54-34.21z"/>
		</g>
	</g>
</pattern>
<g id="Lint_1_">
	<g>
		<polygon class="st8" points="189.48,0 0,436.54 63.28,436.54 252.76,0 		"/>
	</g>
	<pattern  id="SVGID_9_" xlink:href="#SVGID_8_" patternTransform="matrix(1 0 0 -1 -136.2703 -17393.6113)">
	</pattern>
	<polygon class="st9" points="189.48,0 0,436.54 63.28,436.54 252.76,0 	"/>
</g>
</svg>
